<mxfile host="app.diagrams.net" agent="Mozilla/5.0 (Macintosh; Intel Mac OS X 10_15_7) AppleWebKit/537.36 (KHTML, like Gecko) Chrome/129.0.0.0 Safari/537.36" version="24.7.16">
  <diagram name="Page-1" id="cDZPhbR0HMyz_kIQ4zZw">
    <mxGraphModel dx="2524" dy="1895" grid="1" gridSize="10" guides="1" tooltips="1" connect="1" arrows="1" fold="1" page="1" pageScale="1" pageWidth="850" pageHeight="1100" math="0" shadow="0">
      <root>
        <mxCell id="0" />
        <mxCell id="1" parent="0" />
        <mxCell id="wZr598679HZc5HNXFRnV-143" value="" style="rounded=1;whiteSpace=wrap;html=1;" vertex="1" parent="1">
          <mxGeometry x="477.5" y="1170" width="682.5" height="270" as="geometry" />
        </mxCell>
        <mxCell id="wZr598679HZc5HNXFRnV-118" value="" style="rounded=1;whiteSpace=wrap;html=1;" vertex="1" parent="1">
          <mxGeometry x="-200" y="1070" width="570" height="420" as="geometry" />
        </mxCell>
        <mxCell id="wZr598679HZc5HNXFRnV-9" style="edgeStyle=orthogonalEdgeStyle;rounded=0;orthogonalLoop=1;jettySize=auto;html=1;" edge="1" parent="1" source="wZr598679HZc5HNXFRnV-5" target="wZr598679HZc5HNXFRnV-7">
          <mxGeometry relative="1" as="geometry" />
        </mxCell>
        <mxCell id="wZr598679HZc5HNXFRnV-10" value="everything else" style="edgeLabel;html=1;align=center;verticalAlign=middle;resizable=0;points=[];" vertex="1" connectable="0" parent="wZr598679HZc5HNXFRnV-9">
          <mxGeometry x="0.1227" y="4" relative="1" as="geometry">
            <mxPoint x="1" y="1" as="offset" />
          </mxGeometry>
        </mxCell>
        <mxCell id="wZr598679HZc5HNXFRnV-1" value="&lt;h1 style=&quot;margin-top: 0px;&quot;&gt;Scope and use cases&lt;/h1&gt;&lt;p&gt;- ability to upload videos fast&lt;br&gt;- smooth streaming&lt;br&gt;- CHange video quality&lt;br&gt;-low infrastructures cost&lt;br&gt;- High availability, scalability and reliability&lt;br&gt;- support mobile, web, TVs&lt;br&gt;&lt;br&gt;&lt;br&gt;Estimations:&lt;br&gt;- 5 million DAU&lt;br&gt;- user watches 5 videos/day&lt;br&gt;- 10% users upload 1 video/day&lt;br&gt;- average video size is 300MB&lt;br&gt;&lt;b&gt;- daily storage = 5 million * 10% * 300 MB = 150 TB daily&lt;br&gt;- CDN = $ 0.02 / GB&lt;br&gt;- 5 million * 5 * 0.3GB * 0.02 = $150K / day&lt;/b&gt;&lt;/p&gt;" style="text;html=1;whiteSpace=wrap;overflow=hidden;rounded=0;" vertex="1" parent="1">
          <mxGeometry x="-454.37" y="-50" width="290" height="320" as="geometry" />
        </mxCell>
        <mxCell id="wZr598679HZc5HNXFRnV-6" value="CDN&amp;nbsp;&lt;br&gt;for streaming" style="rounded=1;whiteSpace=wrap;html=1;" vertex="1" parent="1">
          <mxGeometry x="370" y="160" width="120" height="60" as="geometry" />
        </mxCell>
        <mxCell id="wZr598679HZc5HNXFRnV-7" value="API Servers&lt;br&gt;upload, recommendation , ..etc" style="rounded=1;whiteSpace=wrap;html=1;" vertex="1" parent="1">
          <mxGeometry x="540" y="160" width="200" height="60" as="geometry" />
        </mxCell>
        <mxCell id="wZr598679HZc5HNXFRnV-8" style="edgeStyle=orthogonalEdgeStyle;rounded=0;orthogonalLoop=1;jettySize=auto;html=1;entryX=0.583;entryY=0;entryDx=0;entryDy=0;entryPerimeter=0;" edge="1" parent="1" source="wZr598679HZc5HNXFRnV-5" target="wZr598679HZc5HNXFRnV-6">
          <mxGeometry relative="1" as="geometry" />
        </mxCell>
        <mxCell id="wZr598679HZc5HNXFRnV-11" value="streaming Video" style="edgeLabel;html=1;align=center;verticalAlign=middle;resizable=0;points=[];" vertex="1" connectable="0" parent="wZr598679HZc5HNXFRnV-8">
          <mxGeometry x="0.2529" relative="1" as="geometry">
            <mxPoint as="offset" />
          </mxGeometry>
        </mxCell>
        <mxCell id="wZr598679HZc5HNXFRnV-13" value="" style="group" vertex="1" connectable="0" parent="1">
          <mxGeometry x="400" y="-30" width="215" height="95" as="geometry" />
        </mxCell>
        <mxCell id="wZr598679HZc5HNXFRnV-5" value="" style="rounded=0;whiteSpace=wrap;html=1;" vertex="1" parent="wZr598679HZc5HNXFRnV-13">
          <mxGeometry x="15" y="5" width="200" height="90" as="geometry" />
        </mxCell>
        <mxCell id="wZr598679HZc5HNXFRnV-2" value="" style="image;points=[];aspect=fixed;html=1;align=center;shadow=0;dashed=0;image=img/lib/allied_telesis/computer_and_terminals/Personal_Computer.svg;" vertex="1" parent="wZr598679HZc5HNXFRnV-13">
          <mxGeometry x="30" y="30" width="29.51" height="40" as="geometry" />
        </mxCell>
        <mxCell id="wZr598679HZc5HNXFRnV-3" value="" style="verticalLabelPosition=bottom;html=1;verticalAlign=top;align=center;strokeColor=none;fillColor=#00BEF2;shape=mxgraph.azure.mobile;pointerEvents=1;" vertex="1" parent="wZr598679HZc5HNXFRnV-13">
          <mxGeometry x="90" y="25" width="30" height="45" as="geometry" />
        </mxCell>
        <mxCell id="wZr598679HZc5HNXFRnV-4" value="" style="outlineConnect=0;dashed=0;verticalLabelPosition=bottom;verticalAlign=top;align=center;html=1;shape=mxgraph.aws3.fire_tv;fillColor=#5294CF;gradientColor=none;" vertex="1" parent="wZr598679HZc5HNXFRnV-13">
          <mxGeometry x="150" y="30" width="50" height="40" as="geometry" />
        </mxCell>
        <mxCell id="wZr598679HZc5HNXFRnV-12" value="User" style="text;html=1;align=center;verticalAlign=middle;whiteSpace=wrap;rounded=0;" vertex="1" parent="wZr598679HZc5HNXFRnV-13">
          <mxGeometry width="60" height="30" as="geometry" />
        </mxCell>
        <mxCell id="wZr598679HZc5HNXFRnV-14" value="" style="group" vertex="1" connectable="0" parent="1">
          <mxGeometry x="250" y="340" width="215" height="95" as="geometry" />
        </mxCell>
        <mxCell id="wZr598679HZc5HNXFRnV-15" value="" style="rounded=0;whiteSpace=wrap;html=1;" vertex="1" parent="wZr598679HZc5HNXFRnV-14">
          <mxGeometry x="15" y="5" width="200" height="90" as="geometry" />
        </mxCell>
        <mxCell id="wZr598679HZc5HNXFRnV-16" value="" style="image;points=[];aspect=fixed;html=1;align=center;shadow=0;dashed=0;image=img/lib/allied_telesis/computer_and_terminals/Personal_Computer.svg;" vertex="1" parent="wZr598679HZc5HNXFRnV-14">
          <mxGeometry x="30" y="30" width="29.51" height="40" as="geometry" />
        </mxCell>
        <mxCell id="wZr598679HZc5HNXFRnV-17" value="" style="verticalLabelPosition=bottom;html=1;verticalAlign=top;align=center;strokeColor=none;fillColor=#00BEF2;shape=mxgraph.azure.mobile;pointerEvents=1;" vertex="1" parent="wZr598679HZc5HNXFRnV-14">
          <mxGeometry x="90" y="25" width="30" height="45" as="geometry" />
        </mxCell>
        <mxCell id="wZr598679HZc5HNXFRnV-18" value="" style="outlineConnect=0;dashed=0;verticalLabelPosition=bottom;verticalAlign=top;align=center;html=1;shape=mxgraph.aws3.fire_tv;fillColor=#5294CF;gradientColor=none;" vertex="1" parent="wZr598679HZc5HNXFRnV-14">
          <mxGeometry x="150" y="30" width="50" height="40" as="geometry" />
        </mxCell>
        <mxCell id="wZr598679HZc5HNXFRnV-19" value="&lt;b&gt;User Upload Flow&lt;/b&gt;" style="text;html=1;align=center;verticalAlign=middle;whiteSpace=wrap;rounded=0;" vertex="1" parent="wZr598679HZc5HNXFRnV-14">
          <mxGeometry width="130" height="30" as="geometry" />
        </mxCell>
        <mxCell id="wZr598679HZc5HNXFRnV-147" style="edgeStyle=orthogonalEdgeStyle;rounded=0;orthogonalLoop=1;jettySize=auto;html=1;" edge="1" parent="1" source="wZr598679HZc5HNXFRnV-20" target="wZr598679HZc5HNXFRnV-146">
          <mxGeometry relative="1" as="geometry" />
        </mxCell>
        <mxCell id="wZr598679HZc5HNXFRnV-20" value="Original Storage" style="shape=cylinder3;whiteSpace=wrap;html=1;boundedLbl=1;backgroundOutline=1;size=15;" vertex="1" parent="1">
          <mxGeometry x="81" y="350" width="60" height="80" as="geometry" />
        </mxCell>
        <mxCell id="wZr598679HZc5HNXFRnV-21" value="1" style="edgeStyle=orthogonalEdgeStyle;rounded=0;orthogonalLoop=1;jettySize=auto;html=1;" edge="1" parent="1" source="wZr598679HZc5HNXFRnV-16" target="wZr598679HZc5HNXFRnV-20">
          <mxGeometry relative="1" as="geometry">
            <Array as="points">
              <mxPoint x="200" y="390" />
              <mxPoint x="200" y="390" />
            </Array>
          </mxGeometry>
        </mxCell>
        <mxCell id="wZr598679HZc5HNXFRnV-32" value="" style="edgeStyle=orthogonalEdgeStyle;rounded=0;orthogonalLoop=1;jettySize=auto;html=1;" edge="1" parent="1" source="wZr598679HZc5HNXFRnV-29" target="wZr598679HZc5HNXFRnV-31">
          <mxGeometry relative="1" as="geometry" />
        </mxCell>
        <mxCell id="wZr598679HZc5HNXFRnV-29" value="LB" style="rounded=0;whiteSpace=wrap;html=1;" vertex="1" parent="1">
          <mxGeometry x="317.5" y="470" width="95" height="30" as="geometry" />
        </mxCell>
        <mxCell id="wZr598679HZc5HNXFRnV-30" value="" style="edgeStyle=orthogonalEdgeStyle;rounded=0;orthogonalLoop=1;jettySize=auto;html=1;" edge="1" parent="1" source="wZr598679HZc5HNXFRnV-15" target="wZr598679HZc5HNXFRnV-29">
          <mxGeometry relative="1" as="geometry" />
        </mxCell>
        <mxCell id="wZr598679HZc5HNXFRnV-39" style="edgeStyle=orthogonalEdgeStyle;rounded=0;orthogonalLoop=1;jettySize=auto;html=1;entryX=0.5;entryY=0;entryDx=0;entryDy=0;" edge="1" parent="1" source="wZr598679HZc5HNXFRnV-31" target="wZr598679HZc5HNXFRnV-35">
          <mxGeometry relative="1" as="geometry" />
        </mxCell>
        <mxCell id="wZr598679HZc5HNXFRnV-85" value="4" style="edgeLabel;html=1;align=center;verticalAlign=middle;resizable=0;points=[];" vertex="1" connectable="0" parent="wZr598679HZc5HNXFRnV-39">
          <mxGeometry x="-0.0154" y="1" relative="1" as="geometry">
            <mxPoint as="offset" />
          </mxGeometry>
        </mxCell>
        <mxCell id="wZr598679HZc5HNXFRnV-31" value="Webserver" style="rounded=0;whiteSpace=wrap;html=1;" vertex="1" parent="1">
          <mxGeometry x="317.5" y="535" width="95" height="30" as="geometry" />
        </mxCell>
        <mxCell id="wZr598679HZc5HNXFRnV-37" value="" style="group" vertex="1" connectable="0" parent="1">
          <mxGeometry x="306.5" y="630" width="117" height="110" as="geometry" />
        </mxCell>
        <mxCell id="wZr598679HZc5HNXFRnV-35" value="" style="rounded=0;whiteSpace=wrap;html=1;" vertex="1" parent="wZr598679HZc5HNXFRnV-37">
          <mxGeometry width="117" height="110" as="geometry" />
        </mxCell>
        <mxCell id="wZr598679HZc5HNXFRnV-28" value="API servers" style="rounded=1;whiteSpace=wrap;html=1;" vertex="1" parent="wZr598679HZc5HNXFRnV-37">
          <mxGeometry x="9.5" y="20" width="50" height="40" as="geometry" />
        </mxCell>
        <mxCell id="wZr598679HZc5HNXFRnV-33" value="API servers" style="rounded=1;whiteSpace=wrap;html=1;" vertex="1" parent="wZr598679HZc5HNXFRnV-37">
          <mxGeometry x="34.5" y="60" width="50" height="40" as="geometry" />
        </mxCell>
        <mxCell id="wZr598679HZc5HNXFRnV-34" value="API servers" style="rounded=1;whiteSpace=wrap;html=1;" vertex="1" parent="wZr598679HZc5HNXFRnV-37">
          <mxGeometry x="57" y="20" width="50" height="40" as="geometry" />
        </mxCell>
        <mxCell id="wZr598679HZc5HNXFRnV-40" value="Metadata DB" style="shape=cylinder3;whiteSpace=wrap;html=1;boundedLbl=1;backgroundOutline=1;size=15;" vertex="1" parent="1">
          <mxGeometry x="430" y="760" width="47.5" height="60" as="geometry" />
        </mxCell>
        <mxCell id="wZr598679HZc5HNXFRnV-41" value="Metadata DB" style="shape=cylinder3;whiteSpace=wrap;html=1;boundedLbl=1;backgroundOutline=1;size=15;" vertex="1" parent="1">
          <mxGeometry x="440" y="770" width="47.5" height="60" as="geometry" />
        </mxCell>
        <mxCell id="wZr598679HZc5HNXFRnV-42" value="Metadata DB" style="shape=cylinder3;whiteSpace=wrap;html=1;boundedLbl=1;backgroundOutline=1;size=15;" vertex="1" parent="1">
          <mxGeometry x="450" y="780" width="47.5" height="60" as="geometry" />
        </mxCell>
        <mxCell id="wZr598679HZc5HNXFRnV-45" style="edgeStyle=orthogonalEdgeStyle;rounded=0;orthogonalLoop=1;jettySize=auto;html=1;entryX=0.855;entryY=0;entryDx=0;entryDy=4.35;entryPerimeter=0;" edge="1" parent="1" source="wZr598679HZc5HNXFRnV-35" target="wZr598679HZc5HNXFRnV-40">
          <mxGeometry relative="1" as="geometry" />
        </mxCell>
        <mxCell id="wZr598679HZc5HNXFRnV-46" value="metadata Cache" style="shape=parallelogram;perimeter=parallelogramPerimeter;whiteSpace=wrap;html=1;fixedSize=1;" vertex="1" parent="1">
          <mxGeometry x="220" y="780" width="80" height="30" as="geometry" />
        </mxCell>
        <mxCell id="wZr598679HZc5HNXFRnV-47" value="metadata Cache" style="shape=parallelogram;perimeter=parallelogramPerimeter;whiteSpace=wrap;html=1;fixedSize=1;" vertex="1" parent="1">
          <mxGeometry x="230" y="790" width="80" height="30" as="geometry" />
        </mxCell>
        <mxCell id="wZr598679HZc5HNXFRnV-49" value="metadata Cache" style="shape=parallelogram;perimeter=parallelogramPerimeter;whiteSpace=wrap;html=1;fixedSize=1;" vertex="1" parent="1">
          <mxGeometry x="250" y="795" width="80" height="30" as="geometry" />
        </mxCell>
        <mxCell id="wZr598679HZc5HNXFRnV-50" style="edgeStyle=orthogonalEdgeStyle;rounded=0;orthogonalLoop=1;jettySize=auto;html=1;entryX=0.5;entryY=0;entryDx=0;entryDy=0;" edge="1" parent="1" source="wZr598679HZc5HNXFRnV-35" target="wZr598679HZc5HNXFRnV-46">
          <mxGeometry relative="1" as="geometry" />
        </mxCell>
        <mxCell id="wZr598679HZc5HNXFRnV-52" style="edgeStyle=orthogonalEdgeStyle;rounded=0;orthogonalLoop=1;jettySize=auto;html=1;entryX=0;entryY=0.5;entryDx=0;entryDy=0;" edge="1" parent="1" source="wZr598679HZc5HNXFRnV-51" target="wZr598679HZc5HNXFRnV-58">
          <mxGeometry relative="1" as="geometry">
            <mxPoint x="480" y="930" as="targetPoint" />
          </mxGeometry>
        </mxCell>
        <mxCell id="wZr598679HZc5HNXFRnV-82" value="3b.1" style="edgeLabel;html=1;align=center;verticalAlign=middle;resizable=0;points=[];" vertex="1" connectable="0" parent="wZr598679HZc5HNXFRnV-52">
          <mxGeometry x="-0.0545" y="-4" relative="1" as="geometry">
            <mxPoint as="offset" />
          </mxGeometry>
        </mxCell>
        <mxCell id="wZr598679HZc5HNXFRnV-51" value="Upload completion Q" style="shape=process;whiteSpace=wrap;html=1;backgroundOutline=1;" vertex="1" parent="1">
          <mxGeometry x="190" y="930" width="150" height="30" as="geometry" />
        </mxCell>
        <mxCell id="wZr598679HZc5HNXFRnV-58" value="Completion Worker" style="rounded=1;whiteSpace=wrap;html=1;" vertex="1" parent="1">
          <mxGeometry x="450" y="925" width="70" height="40" as="geometry" />
        </mxCell>
        <mxCell id="wZr598679HZc5HNXFRnV-59" value="Completion Worker" style="rounded=1;whiteSpace=wrap;html=1;" vertex="1" parent="1">
          <mxGeometry x="460" y="935" width="70" height="40" as="geometry" />
        </mxCell>
        <mxCell id="wZr598679HZc5HNXFRnV-60" value="Completion Worker" style="rounded=1;whiteSpace=wrap;html=1;" vertex="1" parent="1">
          <mxGeometry x="470" y="945" width="70" height="40" as="geometry" />
        </mxCell>
        <mxCell id="wZr598679HZc5HNXFRnV-61" style="edgeStyle=orthogonalEdgeStyle;rounded=0;orthogonalLoop=1;jettySize=auto;html=1;entryX=1;entryY=0;entryDx=0;entryDy=22.5;entryPerimeter=0;" edge="1" parent="1" source="wZr598679HZc5HNXFRnV-60" target="wZr598679HZc5HNXFRnV-42">
          <mxGeometry relative="1" as="geometry">
            <Array as="points">
              <mxPoint x="570" y="965" />
              <mxPoint x="570" y="803" />
              <mxPoint x="518" y="803" />
            </Array>
          </mxGeometry>
        </mxCell>
        <mxCell id="wZr598679HZc5HNXFRnV-83" value="3b.1.a" style="edgeLabel;html=1;align=center;verticalAlign=middle;resizable=0;points=[];" vertex="1" connectable="0" parent="wZr598679HZc5HNXFRnV-61">
          <mxGeometry x="-0.0019" y="-1" relative="1" as="geometry">
            <mxPoint as="offset" />
          </mxGeometry>
        </mxCell>
        <mxCell id="wZr598679HZc5HNXFRnV-62" style="edgeStyle=orthogonalEdgeStyle;rounded=0;orthogonalLoop=1;jettySize=auto;html=1;entryX=0.6;entryY=0.9;entryDx=0;entryDy=0;entryPerimeter=0;" edge="1" parent="1" source="wZr598679HZc5HNXFRnV-60" target="wZr598679HZc5HNXFRnV-49">
          <mxGeometry relative="1" as="geometry">
            <Array as="points">
              <mxPoint x="505" y="890" />
              <mxPoint x="298" y="890" />
            </Array>
          </mxGeometry>
        </mxCell>
        <mxCell id="wZr598679HZc5HNXFRnV-84" value="3b.1.b" style="edgeLabel;html=1;align=center;verticalAlign=middle;resizable=0;points=[];" vertex="1" connectable="0" parent="wZr598679HZc5HNXFRnV-62">
          <mxGeometry x="-0.0603" relative="1" as="geometry">
            <mxPoint as="offset" />
          </mxGeometry>
        </mxCell>
        <mxCell id="wZr598679HZc5HNXFRnV-71" style="edgeStyle=orthogonalEdgeStyle;rounded=0;orthogonalLoop=1;jettySize=auto;html=1;entryX=0.871;entryY=0.025;entryDx=0;entryDy=0;entryPerimeter=0;" edge="1" parent="1" source="wZr598679HZc5HNXFRnV-20" target="wZr598679HZc5HNXFRnV-68">
          <mxGeometry relative="1" as="geometry" />
        </mxCell>
        <mxCell id="wZr598679HZc5HNXFRnV-79" value="2" style="edgeLabel;html=1;align=center;verticalAlign=middle;resizable=0;points=[];" vertex="1" connectable="0" parent="wZr598679HZc5HNXFRnV-71">
          <mxGeometry x="0.2251" relative="1" as="geometry">
            <mxPoint as="offset" />
          </mxGeometry>
        </mxCell>
        <mxCell id="wZr598679HZc5HNXFRnV-72" value="" style="group" vertex="1" connectable="0" parent="1">
          <mxGeometry y="910" width="95" height="60" as="geometry" />
        </mxCell>
        <mxCell id="wZr598679HZc5HNXFRnV-68" value="Transcoding servers" style="rounded=1;whiteSpace=wrap;html=1;" vertex="1" parent="wZr598679HZc5HNXFRnV-72">
          <mxGeometry width="70" height="40" as="geometry" />
        </mxCell>
        <mxCell id="wZr598679HZc5HNXFRnV-69" value="Transcoding servers" style="rounded=1;whiteSpace=wrap;html=1;" vertex="1" parent="wZr598679HZc5HNXFRnV-72">
          <mxGeometry x="10" y="10" width="70" height="40" as="geometry" />
        </mxCell>
        <mxCell id="wZr598679HZc5HNXFRnV-73" style="edgeStyle=orthogonalEdgeStyle;rounded=0;orthogonalLoop=1;jettySize=auto;html=1;" edge="1" parent="wZr598679HZc5HNXFRnV-72" source="wZr598679HZc5HNXFRnV-70">
          <mxGeometry relative="1" as="geometry">
            <mxPoint x="180" y="40" as="targetPoint" />
          </mxGeometry>
        </mxCell>
        <mxCell id="wZr598679HZc5HNXFRnV-80" value="3b" style="edgeLabel;html=1;align=center;verticalAlign=middle;resizable=0;points=[];" vertex="1" connectable="0" parent="wZr598679HZc5HNXFRnV-73">
          <mxGeometry x="-0.3918" y="3" relative="1" as="geometry">
            <mxPoint as="offset" />
          </mxGeometry>
        </mxCell>
        <mxCell id="wZr598679HZc5HNXFRnV-70" value="Transcoding servers" style="rounded=1;whiteSpace=wrap;html=1;" vertex="1" parent="wZr598679HZc5HNXFRnV-72">
          <mxGeometry x="25" y="20" width="70" height="40" as="geometry" />
        </mxCell>
        <mxCell id="wZr598679HZc5HNXFRnV-77" style="edgeStyle=orthogonalEdgeStyle;rounded=0;orthogonalLoop=1;jettySize=auto;html=1;" edge="1" parent="1" source="wZr598679HZc5HNXFRnV-150" target="wZr598679HZc5HNXFRnV-76">
          <mxGeometry relative="1" as="geometry" />
        </mxCell>
        <mxCell id="wZr598679HZc5HNXFRnV-74" value="Transcoded&amp;nbsp;&lt;br&gt;Storage" style="shape=cylinder3;whiteSpace=wrap;html=1;boundedLbl=1;backgroundOutline=1;size=15;" vertex="1" parent="1">
          <mxGeometry x="-110" y="790" width="60" height="80" as="geometry" />
        </mxCell>
        <mxCell id="wZr598679HZc5HNXFRnV-75" value="3a" style="edgeStyle=orthogonalEdgeStyle;rounded=0;orthogonalLoop=1;jettySize=auto;html=1;entryX=0.5;entryY=1;entryDx=0;entryDy=0;entryPerimeter=0;" edge="1" parent="1" source="wZr598679HZc5HNXFRnV-69" target="wZr598679HZc5HNXFRnV-74">
          <mxGeometry x="-0.25" relative="1" as="geometry">
            <Array as="points">
              <mxPoint x="-80" y="940" />
            </Array>
            <mxPoint as="offset" />
          </mxGeometry>
        </mxCell>
        <mxCell id="wZr598679HZc5HNXFRnV-76" value="CDN" style="rounded=1;whiteSpace=wrap;html=1;" vertex="1" parent="1">
          <mxGeometry x="-144" y="480" width="120" height="60" as="geometry" />
        </mxCell>
        <mxCell id="wZr598679HZc5HNXFRnV-86" value="Streaming can start immediately. Doesn&#39;t have to upload whole video first" style="text;html=1;align=center;verticalAlign=middle;whiteSpace=wrap;rounded=0;" vertex="1" parent="1">
          <mxGeometry x="-80" y="380" width="90" height="80" as="geometry" />
        </mxCell>
        <mxCell id="wZr598679HZc5HNXFRnV-87" value="" style="group" vertex="1" connectable="0" parent="1">
          <mxGeometry x="-400" y="330" width="215" height="95" as="geometry" />
        </mxCell>
        <mxCell id="wZr598679HZc5HNXFRnV-88" value="" style="rounded=0;whiteSpace=wrap;html=1;" vertex="1" parent="wZr598679HZc5HNXFRnV-87">
          <mxGeometry x="15" y="5" width="200" height="90" as="geometry" />
        </mxCell>
        <mxCell id="wZr598679HZc5HNXFRnV-89" value="" style="image;points=[];aspect=fixed;html=1;align=center;shadow=0;dashed=0;image=img/lib/allied_telesis/computer_and_terminals/Personal_Computer.svg;" vertex="1" parent="wZr598679HZc5HNXFRnV-87">
          <mxGeometry x="30" y="30" width="29.51" height="40" as="geometry" />
        </mxCell>
        <mxCell id="wZr598679HZc5HNXFRnV-90" value="" style="verticalLabelPosition=bottom;html=1;verticalAlign=top;align=center;strokeColor=none;fillColor=#00BEF2;shape=mxgraph.azure.mobile;pointerEvents=1;" vertex="1" parent="wZr598679HZc5HNXFRnV-87">
          <mxGeometry x="90" y="25" width="30" height="45" as="geometry" />
        </mxCell>
        <mxCell id="wZr598679HZc5HNXFRnV-91" value="" style="outlineConnect=0;dashed=0;verticalLabelPosition=bottom;verticalAlign=top;align=center;html=1;shape=mxgraph.aws3.fire_tv;fillColor=#5294CF;gradientColor=none;" vertex="1" parent="wZr598679HZc5HNXFRnV-87">
          <mxGeometry x="150" y="30" width="50" height="40" as="geometry" />
        </mxCell>
        <mxCell id="wZr598679HZc5HNXFRnV-92" value="&lt;b&gt;User Streaming Flow&lt;/b&gt;" style="text;html=1;align=center;verticalAlign=middle;whiteSpace=wrap;rounded=0;" vertex="1" parent="wZr598679HZc5HNXFRnV-87">
          <mxGeometry width="130" height="30" as="geometry" />
        </mxCell>
        <mxCell id="wZr598679HZc5HNXFRnV-93" style="edgeStyle=orthogonalEdgeStyle;rounded=0;orthogonalLoop=1;jettySize=auto;html=1;entryX=0.5;entryY=0;entryDx=0;entryDy=0;" edge="1" parent="1" source="wZr598679HZc5HNXFRnV-88" target="wZr598679HZc5HNXFRnV-76">
          <mxGeometry relative="1" as="geometry" />
        </mxCell>
        <mxCell id="wZr598679HZc5HNXFRnV-94" value="There are different protocols depends on type of video encoding and quality" style="text;html=1;align=center;verticalAlign=middle;whiteSpace=wrap;rounded=0;" vertex="1" parent="1">
          <mxGeometry x="-337.5" y="430" width="90" height="80" as="geometry" />
        </mxCell>
        <mxCell id="wZr598679HZc5HNXFRnV-95" value="" style="shape=flexArrow;endArrow=classic;html=1;rounded=0;" edge="1" parent="1">
          <mxGeometry width="50" height="50" relative="1" as="geometry">
            <mxPoint x="50" y="980" as="sourcePoint" />
            <mxPoint x="50" y="1060" as="targetPoint" />
          </mxGeometry>
        </mxCell>
        <mxCell id="wZr598679HZc5HNXFRnV-100" style="edgeStyle=orthogonalEdgeStyle;rounded=0;orthogonalLoop=1;jettySize=auto;html=1;entryX=0;entryY=0.5;entryDx=0;entryDy=0;" edge="1" parent="1" source="wZr598679HZc5HNXFRnV-96" target="wZr598679HZc5HNXFRnV-99">
          <mxGeometry relative="1" as="geometry" />
        </mxCell>
        <mxCell id="wZr598679HZc5HNXFRnV-101" style="edgeStyle=orthogonalEdgeStyle;rounded=0;orthogonalLoop=1;jettySize=auto;html=1;entryX=0;entryY=0.5;entryDx=0;entryDy=0;" edge="1" parent="1" source="wZr598679HZc5HNXFRnV-96" target="wZr598679HZc5HNXFRnV-98">
          <mxGeometry relative="1" as="geometry" />
        </mxCell>
        <mxCell id="wZr598679HZc5HNXFRnV-102" style="edgeStyle=orthogonalEdgeStyle;rounded=0;orthogonalLoop=1;jettySize=auto;html=1;entryX=0;entryY=0.5;entryDx=0;entryDy=0;" edge="1" parent="1" source="wZr598679HZc5HNXFRnV-96" target="wZr598679HZc5HNXFRnV-97">
          <mxGeometry relative="1" as="geometry" />
        </mxCell>
        <mxCell id="wZr598679HZc5HNXFRnV-96" value="Original Video" style="rounded=1;whiteSpace=wrap;html=1;" vertex="1" parent="1">
          <mxGeometry x="-180" y="1270" width="70" height="40" as="geometry" />
        </mxCell>
        <mxCell id="wZr598679HZc5HNXFRnV-97" value="Metadata" style="rounded=1;whiteSpace=wrap;html=1;" vertex="1" parent="1">
          <mxGeometry x="-50" y="1436" width="70" height="40" as="geometry" />
        </mxCell>
        <mxCell id="wZr598679HZc5HNXFRnV-113" style="edgeStyle=orthogonalEdgeStyle;rounded=0;orthogonalLoop=1;jettySize=auto;html=1;entryX=0;entryY=0.5;entryDx=0;entryDy=0;" edge="1" parent="1" source="wZr598679HZc5HNXFRnV-98" target="wZr598679HZc5HNXFRnV-112">
          <mxGeometry relative="1" as="geometry" />
        </mxCell>
        <mxCell id="wZr598679HZc5HNXFRnV-98" value="Audio" style="rounded=1;whiteSpace=wrap;html=1;" vertex="1" parent="1">
          <mxGeometry x="-50" y="1356" width="70" height="40" as="geometry" />
        </mxCell>
        <mxCell id="wZr598679HZc5HNXFRnV-104" value="" style="edgeStyle=orthogonalEdgeStyle;rounded=0;orthogonalLoop=1;jettySize=auto;html=1;" edge="1" parent="1" source="wZr598679HZc5HNXFRnV-99" target="wZr598679HZc5HNXFRnV-103">
          <mxGeometry relative="1" as="geometry" />
        </mxCell>
        <mxCell id="wZr598679HZc5HNXFRnV-99" value="Video" style="rounded=1;whiteSpace=wrap;html=1;" vertex="1" parent="1">
          <mxGeometry x="-50" y="1210" width="70" height="40" as="geometry" />
        </mxCell>
        <mxCell id="wZr598679HZc5HNXFRnV-115" style="edgeStyle=orthogonalEdgeStyle;rounded=0;orthogonalLoop=1;jettySize=auto;html=1;entryX=0.5;entryY=0;entryDx=0;entryDy=0;" edge="1" parent="1" source="wZr598679HZc5HNXFRnV-103" target="wZr598679HZc5HNXFRnV-114">
          <mxGeometry relative="1" as="geometry" />
        </mxCell>
        <mxCell id="wZr598679HZc5HNXFRnV-103" value="" style="whiteSpace=wrap;html=1;rounded=1;" vertex="1" parent="1">
          <mxGeometry x="125" y="1120" width="85" height="220" as="geometry" />
        </mxCell>
        <mxCell id="wZr598679HZc5HNXFRnV-105" value="Inspection" style="rounded=1;whiteSpace=wrap;html=1;" vertex="1" parent="1">
          <mxGeometry x="140" y="1140" width="57.5" height="20" as="geometry" />
        </mxCell>
        <mxCell id="wZr598679HZc5HNXFRnV-120" value="" style="edgeStyle=orthogonalEdgeStyle;rounded=0;orthogonalLoop=1;jettySize=auto;html=1;" edge="1" parent="1" source="wZr598679HZc5HNXFRnV-106" target="wZr598679HZc5HNXFRnV-119">
          <mxGeometry relative="1" as="geometry" />
        </mxCell>
        <mxCell id="wZr598679HZc5HNXFRnV-106" value="Transcoding" style="rounded=1;whiteSpace=wrap;html=1;" vertex="1" parent="1">
          <mxGeometry x="141" y="1180" width="57.5" height="20" as="geometry" />
        </mxCell>
        <mxCell id="wZr598679HZc5HNXFRnV-107" value="Thumbnail" style="rounded=1;whiteSpace=wrap;html=1;" vertex="1" parent="1">
          <mxGeometry x="140" y="1220" width="57.5" height="20" as="geometry" />
        </mxCell>
        <mxCell id="wZr598679HZc5HNXFRnV-108" value="Watermark" style="rounded=1;whiteSpace=wrap;html=1;" vertex="1" parent="1">
          <mxGeometry x="138.5" y="1310" width="57.5" height="20" as="geometry" />
        </mxCell>
        <mxCell id="wZr598679HZc5HNXFRnV-109" value=".&lt;br&gt;.&lt;br&gt;.&lt;div&gt;&lt;br/&gt;&lt;/div&gt;" style="text;html=1;align=center;verticalAlign=middle;whiteSpace=wrap;rounded=0;" vertex="1" parent="1">
          <mxGeometry x="149.38" y="1250" width="23.75" height="60" as="geometry" />
        </mxCell>
        <mxCell id="wZr598679HZc5HNXFRnV-110" value="&lt;div&gt;Tasks in parallel&lt;/div&gt;" style="text;html=1;align=center;verticalAlign=middle;whiteSpace=wrap;rounded=0;" vertex="1" parent="1">
          <mxGeometry x="125" y="1090" width="84.37" height="20" as="geometry" />
        </mxCell>
        <mxCell id="wZr598679HZc5HNXFRnV-116" value="" style="edgeStyle=orthogonalEdgeStyle;rounded=0;orthogonalLoop=1;jettySize=auto;html=1;" edge="1" parent="1" source="wZr598679HZc5HNXFRnV-112" target="wZr598679HZc5HNXFRnV-114">
          <mxGeometry relative="1" as="geometry" />
        </mxCell>
        <mxCell id="wZr598679HZc5HNXFRnV-112" value="Encoding" style="rounded=1;whiteSpace=wrap;html=1;" vertex="1" parent="1">
          <mxGeometry x="125" y="1356" width="70" height="40" as="geometry" />
        </mxCell>
        <mxCell id="wZr598679HZc5HNXFRnV-114" value="Assemble" style="rounded=1;whiteSpace=wrap;html=1;" vertex="1" parent="1">
          <mxGeometry x="280" y="1356" width="70" height="40" as="geometry" />
        </mxCell>
        <mxCell id="wZr598679HZc5HNXFRnV-119" value="360.mp4&lt;br&gt;480.mp4&lt;br&gt;.&lt;br&gt;4k.mp4" style="whiteSpace=wrap;html=1;rounded=1;" vertex="1" parent="1">
          <mxGeometry x="260" y="1140" width="70" height="65" as="geometry" />
        </mxCell>
        <mxCell id="wZr598679HZc5HNXFRnV-122" value="" style="shape=flexArrow;endArrow=classic;html=1;rounded=0;" edge="1" parent="1" source="wZr598679HZc5HNXFRnV-119">
          <mxGeometry width="50" height="50" relative="1" as="geometry">
            <mxPoint x="430" y="1200" as="sourcePoint" />
            <mxPoint x="480" y="1230" as="targetPoint" />
          </mxGeometry>
        </mxCell>
        <mxCell id="wZr598679HZc5HNXFRnV-125" value="" style="edgeStyle=orthogonalEdgeStyle;rounded=0;orthogonalLoop=1;jettySize=auto;html=1;" edge="1" parent="1" source="wZr598679HZc5HNXFRnV-123" target="wZr598679HZc5HNXFRnV-124">
          <mxGeometry relative="1" as="geometry" />
        </mxCell>
        <mxCell id="wZr598679HZc5HNXFRnV-136" style="edgeStyle=orthogonalEdgeStyle;rounded=0;orthogonalLoop=1;jettySize=auto;html=1;entryX=0;entryY=0.5;entryDx=0;entryDy=0;" edge="1" parent="1" source="wZr598679HZc5HNXFRnV-123" target="wZr598679HZc5HNXFRnV-134">
          <mxGeometry relative="1" as="geometry">
            <Array as="points">
              <mxPoint x="575" y="1200" />
            </Array>
          </mxGeometry>
        </mxCell>
        <mxCell id="wZr598679HZc5HNXFRnV-123" value="preprocessor" style="rounded=1;whiteSpace=wrap;html=1;" vertex="1" parent="1">
          <mxGeometry x="530" y="1280" width="90" height="40" as="geometry" />
        </mxCell>
        <mxCell id="wZr598679HZc5HNXFRnV-131" value="" style="edgeStyle=orthogonalEdgeStyle;rounded=0;orthogonalLoop=1;jettySize=auto;html=1;" edge="1" parent="1" source="wZr598679HZc5HNXFRnV-124" target="wZr598679HZc5HNXFRnV-128">
          <mxGeometry relative="1" as="geometry" />
        </mxCell>
        <mxCell id="wZr598679HZc5HNXFRnV-124" value="DAG Scheduler" style="whiteSpace=wrap;html=1;rounded=1;" vertex="1" parent="1">
          <mxGeometry x="685" y="1280" width="95" height="40" as="geometry" />
        </mxCell>
        <mxCell id="wZr598679HZc5HNXFRnV-132" value="" style="edgeStyle=orthogonalEdgeStyle;rounded=0;orthogonalLoop=1;jettySize=auto;html=1;" edge="1" parent="1" source="wZr598679HZc5HNXFRnV-128" target="wZr598679HZc5HNXFRnV-129">
          <mxGeometry relative="1" as="geometry" />
        </mxCell>
        <mxCell id="wZr598679HZc5HNXFRnV-128" value="Resource manager" style="whiteSpace=wrap;html=1;rounded=1;" vertex="1" parent="1">
          <mxGeometry x="840" y="1280" width="95" height="40" as="geometry" />
        </mxCell>
        <mxCell id="wZr598679HZc5HNXFRnV-133" value="" style="edgeStyle=orthogonalEdgeStyle;rounded=0;orthogonalLoop=1;jettySize=auto;html=1;" edge="1" parent="1" source="wZr598679HZc5HNXFRnV-129" target="wZr598679HZc5HNXFRnV-130">
          <mxGeometry relative="1" as="geometry" />
        </mxCell>
        <mxCell id="wZr598679HZc5HNXFRnV-135" value="" style="edgeStyle=orthogonalEdgeStyle;rounded=0;orthogonalLoop=1;jettySize=auto;html=1;" edge="1" parent="1" source="wZr598679HZc5HNXFRnV-129" target="wZr598679HZc5HNXFRnV-134">
          <mxGeometry relative="1" as="geometry" />
        </mxCell>
        <mxCell id="wZr598679HZc5HNXFRnV-129" value="Task workers" style="whiteSpace=wrap;html=1;rounded=1;" vertex="1" parent="1">
          <mxGeometry x="980" y="1280" width="95" height="40" as="geometry" />
        </mxCell>
        <mxCell id="wZr598679HZc5HNXFRnV-130" value="Encoded Video" style="whiteSpace=wrap;html=1;rounded=1;" vertex="1" parent="1">
          <mxGeometry x="980" y="1380" width="95" height="40" as="geometry" />
        </mxCell>
        <mxCell id="wZr598679HZc5HNXFRnV-134" value="Temporary&lt;br&gt;storage" style="whiteSpace=wrap;html=1;rounded=1;" vertex="1" parent="1">
          <mxGeometry x="980" y="1180" width="95" height="40" as="geometry" />
        </mxCell>
        <mxCell id="wZr598679HZc5HNXFRnV-137" value="&lt;b&gt;Video Splitting&lt;/b&gt; (group of pictures, few seconds length videos)&lt;br&gt;&lt;b&gt;Cache Data&lt;/b&gt;:&amp;nbsp;&lt;span style=&quot;background-color: initial;&quot;&gt;If video encoding fails, the&lt;/span&gt;&lt;p style=&quot;margin: 0px; font-variant-numeric: normal; font-variant-east-asian: normal; font-variant-alternates: normal; font-size-adjust: none; font-kerning: auto; font-optical-sizing: auto; font-feature-settings: normal; font-variation-settings: normal; font-variant-position: normal; font-stretch: normal; line-height: normal;&quot; class=&quot;p1&quot;&gt;system could use persisted data for retry operations&lt;br&gt;&lt;b&gt;create DAG&lt;/b&gt; generation graph&lt;/p&gt;&lt;div&gt;&lt;br&gt;&lt;/div&gt;" style="text;html=1;align=left;verticalAlign=middle;whiteSpace=wrap;rounded=0;" vertex="1" parent="1">
          <mxGeometry x="480" y="1324" width="140" height="152" as="geometry" />
        </mxCell>
        <mxCell id="wZr598679HZc5HNXFRnV-138" value="&lt;div&gt;&lt;p style=&quot;margin: 0px; font-variant-numeric: normal; font-variant-east-asian: normal; font-variant-alternates: normal; font-size-adjust: none; font-kerning: auto; font-optical-sizing: auto; font-feature-settings: normal; font-variation-settings: normal; font-variant-position: normal; font-stretch: normal; line-height: normal;&quot; class=&quot;p1&quot;&gt;The DAG scheduler splits a DAG graph into stages of tasks and puts them in the task queue&lt;/p&gt;&lt;p style=&quot;margin: 0px; font-variant-numeric: normal; font-variant-east-asian: normal; font-variant-alternates: normal; font-size-adjust: none; font-kerning: auto; font-optical-sizing: auto; font-feature-settings: normal; font-variation-settings: normal; font-variant-position: normal; font-stretch: normal; line-height: normal;&quot; class=&quot;p1&quot;&gt;in the resource manager&lt;/p&gt;&lt;/div&gt;" style="text;html=1;align=left;verticalAlign=middle;whiteSpace=wrap;rounded=0;" vertex="1" parent="1">
          <mxGeometry x="670" y="1330" width="130" height="100" as="geometry" />
        </mxCell>
        <mxCell id="wZr598679HZc5HNXFRnV-140" value="&lt;p style=&quot;margin: 0px; font-variant-numeric: normal; font-variant-east-asian: normal; font-variant-alternates: normal; font-size-adjust: none; font-kerning: auto; font-optical-sizing: auto; font-feature-settings: normal; font-variation-settings: normal; font-variant-position: normal; font-stretch: normal; line-height: normal;&quot; class=&quot;p1&quot;&gt;&lt;span class=&quot;Apple-converted-space&quot;&gt;&amp;nbsp;&lt;/span&gt;Resource manager is responsible for managing the efficiency of resource allocation&lt;br&gt;&lt;br&gt;&lt;/p&gt;&lt;p style=&quot;margin: 0px; font-variant-numeric: normal; font-variant-east-asian: normal; font-variant-alternates: normal; font-size-adjust: none; font-kerning: auto; font-optical-sizing: auto; font-feature-settings: normal; font-variation-settings: normal; font-variant-position: normal; font-stretch: normal; line-height: normal;&quot; class=&quot;p1&quot;&gt;&lt;b&gt;Task queue&lt;/b&gt;: It is a priority queue that contains tasks to be executed.&lt;/p&gt;&lt;p style=&quot;margin: 0px; font-variant-numeric: normal; font-variant-east-asian: normal; font-variant-alternates: normal; font-size-adjust: none; font-kerning: auto; font-optical-sizing: auto; font-feature-settings: normal; font-variation-settings: normal; font-variant-position: normal; font-stretch: normal; line-height: normal;&quot; class=&quot;p1&quot;&gt;• &lt;b&gt;Worker queue&lt;/b&gt;: It is a priority queue that contains worker utilization info.&lt;/p&gt;&lt;p style=&quot;margin: 0px; font-variant-numeric: normal; font-variant-east-asian: normal; font-variant-alternates: normal; font-size-adjust: none; font-kerning: auto; font-optical-sizing: auto; font-feature-settings: normal; font-variation-settings: normal; font-variant-position: normal; font-stretch: normal; line-height: normal;&quot; class=&quot;p1&quot;&gt;• &lt;b&gt;Running queue&lt;/b&gt;: It contains info about the currently running tasks and workers running&lt;/p&gt;&lt;p style=&quot;margin: 0px; font-variant-numeric: normal; font-variant-east-asian: normal; font-variant-alternates: normal; font-size-adjust: none; font-kerning: auto; font-optical-sizing: auto; font-feature-settings: normal; font-variation-settings: normal; font-variant-position: normal; font-stretch: normal; line-height: normal;&quot; class=&quot;p1&quot;&gt;the tasks.&lt;/p&gt;&lt;p style=&quot;margin: 0px; font-variant-numeric: normal; font-variant-east-asian: normal; font-variant-alternates: normal; font-size-adjust: none; font-kerning: auto; font-optical-sizing: auto; font-feature-settings: normal; font-variation-settings: normal; font-variant-position: normal; font-stretch: normal; line-height: normal;&quot; class=&quot;p1&quot;&gt;• &lt;b&gt;Task scheduler&lt;/b&gt;: It picks the optimal task/worker, and instructs the chosen task worker to&lt;/p&gt;&lt;p style=&quot;margin: 0px; font-variant-numeric: normal; font-variant-east-asian: normal; font-variant-alternates: normal; font-size-adjust: none; font-kerning: auto; font-optical-sizing: auto; font-feature-settings: normal; font-variation-settings: normal; font-variant-position: normal; font-stretch: normal; line-height: normal;&quot; class=&quot;p1&quot;&gt;execute the job.&lt;/p&gt;" style="text;html=1;align=left;verticalAlign=middle;whiteSpace=wrap;rounded=0;" vertex="1" parent="1">
          <mxGeometry x="822.5" y="1480" width="130" height="100" as="geometry" />
        </mxCell>
        <mxCell id="wZr598679HZc5HNXFRnV-141" value="&lt;p style=&quot;margin: 0px; font-variant-numeric: normal; font-variant-east-asian: normal; font-variant-alternates: normal; font-size-adjust: none; font-kerning: auto; font-optical-sizing: auto; font-feature-settings: normal; font-variation-settings: normal; font-variant-position: normal; font-stretch: normal; line-height: normal;&quot; class=&quot;p1&quot;&gt;Data in temporary storage&lt;/p&gt;&lt;p style=&quot;margin: 0px; font-variant-numeric: normal; font-variant-east-asian: normal; font-variant-alternates: normal; font-size-adjust: none; font-kerning: auto; font-optical-sizing: auto; font-feature-settings: normal; font-variation-settings: normal; font-variant-position: normal; font-stretch: normal; line-height: normal;&quot; class=&quot;p1&quot;&gt;is freed up once the corresponding video processing is complete&lt;/p&gt;" style="text;html=1;align=left;verticalAlign=middle;whiteSpace=wrap;rounded=0;" vertex="1" parent="1">
          <mxGeometry x="970" y="1080" width="130" height="100" as="geometry" />
        </mxCell>
        <mxCell id="wZr598679HZc5HNXFRnV-142" value="" style="shape=flexArrow;endArrow=classic;html=1;rounded=0;" edge="1" parent="1">
          <mxGeometry width="50" height="50" relative="1" as="geometry">
            <mxPoint x="508.75" y="250" as="sourcePoint" />
            <mxPoint x="398.75" y="320" as="targetPoint" />
            <Array as="points">
              <mxPoint x="398.75" y="320" />
            </Array>
          </mxGeometry>
        </mxCell>
        <mxCell id="wZr598679HZc5HNXFRnV-144" value="&lt;div&gt;&lt;b&gt;Transcoding&lt;/b&gt;&lt;/div&gt;" style="text;html=1;align=center;verticalAlign=middle;whiteSpace=wrap;rounded=0;" vertex="1" parent="1">
          <mxGeometry x="-164.37" y="1080" width="84.37" height="20" as="geometry" />
        </mxCell>
        <mxCell id="wZr598679HZc5HNXFRnV-145" value="&lt;div&gt;&lt;b&gt;Transcoding archticture&lt;/b&gt;&lt;/div&gt;" style="text;html=1;align=center;verticalAlign=middle;whiteSpace=wrap;rounded=0;" vertex="1" parent="1">
          <mxGeometry x="487.5" y="1180" width="84.37" height="20" as="geometry" />
        </mxCell>
        <mxCell id="wZr598679HZc5HNXFRnV-146" value="" style="shape=image;verticalLabelPosition=bottom;labelBackgroundColor=default;verticalAlign=top;aspect=fixed;imageAspect=0;image=data:image/png,iVBORw0KGgoAAAANSUhEUgAABnQAAADOCAYAAAAHfux3AAAMTmlDQ1BJQ0MgUHJvZmlsZQAASImVVwdYU8kWnltSIQQIREBK6E0QkRJASggt9I4gKiEJEEqMCUHFji6u4FoRESwrugqi2AERG+qqK4tidy2LBYWVdXFd7MqbEECXfeV7831z57//nPnnnHNn7r0DAL2TL5XmopoA5EnyZbHB/qzJySksUjegAAOgCVDgyRfIpZzo6HAAy3D79/L6JkCU7TUHpdY/+/9r0RKK5AIAkGiI04VyQR7EhwHAWwRSWT4ARCnkzWflS5W4DGIdGXQQ4holzlThFiVOV+ErgzbxsVyInwBAVufzZZkAaPRBnlUgyIQ6dBgtcJIIxRKI/SD2ycubIYR4EcQ20AbOSVfqs9O/0sn8m2b6iCafnzmCVbEMFnKAWC7N5c/5P9Pxv0termJ4DmtY1bNkIbHKmGHenuTMCFNidYjfStIjoyDWBgDFxcJBeyVmZilCElT2qI1AzoU5A0yIJ8lz43hDfKyQHxAGsSHEGZLcyPAhm6IMcZDSBuYPrRDn8+Ih1oO4RiQPjBuyOSWbETs8780MGZczxHfzZYM+KPU/K3ISOCp9TDtLxBvSxxwLs+KTIKZCHFAgToyEWAPiSHlOXNiQTWphFjdy2EamiFXGYgGxTCQJ9lfpY+UZsqDYIfvdefLh2LFTWWJe5BC+mp8VH6LKFfZEwB/0H8aC9YkknIRhHZF8cvhwLEJRQKAqdpwskiTEqXhcT5rvH6sai9tJc6OH7HF/UW6wkjeDOF5eEDc8tiAfLk6VPl4szY+OV/mJV2bzQ6NV/uD7QTjgggDAAgpY08EMkA3E7b2NvfBO1RME+EAGMoEIOAwxwyOSBnsk8BoHCsHvEImAfGSc/2CvCBRA/tMoVsmJRzjV1QFkDPUpVXLAU4jzQBjIhfeKQSXJiAeJ4AlkxP/wiA+rAMaQC6uy/9/zw+wXhgOZ8CFGMTwjiz5sSQwkBhBDiEFEW9wA98G98HB49YPVGWfjHsNxfLEnPCV0EB4RbhA6CXemi4tko7yMAJ1QP2goP+lf5we3gpquuD/uDdWhMs7EDYAD7gLn4eC+cGZXyHKH/FZmhTVK+28RfPWEhuwoThSUMobiR7EZPVLDTsN1REWZ66/zo/I1fSTf3JGe0fNzv8q+ELZhoy2xb7FD2HnsNHYRa8EaAQs7iTVhbdhxJR5ZcU8GV9zwbLGD/uRAndFr5suTVWZS7lTn1OP0UdWXL5qdr9yM3BnSOTJxZlY+iwO/GCIWTyJwHMdydnJ2AUD5/VG93l7FDH5XEGbbF27JrwB4nxwYGDj2hQs9CcABd/hKOPqFs2HDT4saABeOChSyAhWHKy8E+Oagw92nD4yBObCB8TgDN+AF/EAgCAVRIB4kg2nQ+yy4zmVgFpgHFoNiUApWg/WgEmwF20EN2AsOgkbQAk6DH8ElcAXcAHfh6ukCz0EfeA0+IAhCQmgIA9FHTBBLxB5xRtiIDxKIhCOxSDKShmQiEkSBzEOWIKXIWqQS2YbUIgeQo8hp5CLSgdxBHiI9yJ/IexRD1VEd1Ai1QsejbJSDhqHx6FQ0E52JFqJL0ZVoBVqN7kEb0NPoJfQG2ok+R/sxgKlhTMwUc8DYGBeLwlKwDEyGLcBKsHKsGqvHmuFzvoZ1Yr3YO5yIM3AW7gBXcAiegAvwmfgCfAVeidfgDfhZ/Br+EO/DPxNoBEOCPcGTwCNMJmQSZhGKCeWEnYQjhHNwL3URXhOJRCbRmugO92IyMZs4l7iCuJm4j3iK2EF8TOwnkUj6JHuSNymKxCflk4pJG0l7SCdJV0ldpLdkNbIJ2ZkcRE4hS8hF5HLybvIJ8lXyM/IHiibFkuJJiaIIKXMoqyg7KM2Uy5QuygeqFtWa6k2Np2ZTF1MrqPXUc9R71Fdqampmah5qMWpitUVqFWr71S6oPVR7p66tbqfOVU9VV6ivVN+lfkr9jvorGo1mRfOjpdDyaStptbQztAe0txoMDUcNnoZQY6FGlUaDxlWNF3QK3ZLOoU+jF9LL6Yfol+m9mhRNK02uJl9zgWaV5lHNW5r9WgytCVpRWnlaK7R2a13U6tYmaVtpB2oLtZdqb9c+o/2YgTHMGVyGgLGEsYNxjtGlQ9Sx1uHpZOuU6uzVadfp09XWddFN1J2tW6V7XLeTiTGtmDxmLnMV8yDzJvP9GKMxnDGiMcvH1I+5OuaN3lg9Pz2RXonePr0beu/1WfqB+jn6a/Qb9e8b4AZ2BjEGswy2GJwz6B2rM9ZrrGBsydiDY38xRA3tDGMN5xpuN2wz7DcyNgo2khptNDpj1GvMNPYzzjYuMz5h3GPCMPExEZuUmZw0+Y2ly+KwclkVrLOsPlND0xBThek203bTD2bWZglmRWb7zO6bU83Z5hnmZeat5n0WJhYRFvMs6ix+saRYsi2zLDdYnrd8Y2VtlWS1zKrRqttaz5pnXWhdZ33PhmbjazPTptrmui3Rlm2bY7vZ9oodaudql2VXZXfZHrV3sxfbb7bvGEcY5zFOMq563C0HdQeOQ4FDncNDR6ZjuGORY6Pji/EW41PGrxl/fvxnJ1enXKcdTncnaE8InVA0oXnCn852zgLnKufrE2kTgyYunNg08aWLvYvIZYvLbVeGa4TrMtdW109u7m4yt3q3HncL9zT3Te632DrsaPYK9gUPgoe/x0KPFo93nm6e+Z4HPf/wcvDK8drt1T3JepJo0o5Jj73NvPne27w7fVg+aT7f+3T6mvryfat9H/mZ+wn9dvo949hysjl7OC/8nfxl/kf833A9ufO5pwKwgOCAkoD2QO3AhMDKwAdBZkGZQXVBfcGuwXODT4UQQsJC1oTc4hnxBLxaXl+oe+j80LNh6mFxYZVhj8LtwmXhzRFoRGjEuoh7kZaRksjGKBDFi1oXdT/aOnpm9LEYYkx0TFXM09gJsfNiz8cx4qbH7Y57He8fvyr+boJNgiKhNZGemJpYm/gmKSBpbVLn5PGT50++lGyQLE5uSiGlJKbsTOmfEjhl/ZSuVNfU4tSbU62nzp56cZrBtNxpx6fTp/OnH0ojpCWl7U77yI/iV/P703npm9L7BFzBBsFzoZ+wTNgj8hatFT3L8M5Ym9Gd6Z25LrMnyzerPKtXzBVXil9mh2RvzX6TE5WzK2cgNyl3Xx45Ly3vqERbkiM5O8N4xuwZHVJ7abG0c6bnzPUz+2Rhsp1yRD5V3pSvA3/02xQ2im8UDwt8CqoK3s5KnHVottZsyey2OXZzls95VhhU+MNcfK5gbus803mL5z2cz5m/bQGyIH1B60LzhUsXdi0KXlSzmLo4Z/HPRU5Fa4v+WpK0pHmp0dJFSx9/E/xNXbFGsaz41jKvZVu/xb8Vf9u+fOLyjcs/lwhLfip1Ki0v/bhCsOKn7yZ8V/HdwMqMle2r3FZtWU1cLVl9c43vmpq1WmsL1z5eF7GuoYxVVlL21/rp6y+Wu5Rv3UDdoNjQWRFe0bTRYuPqjR8rsypvVPlX7dtkuGn5pjebhZuvbvHbUr/VaGvp1vffi7+/vS14W0O1VXX5duL2gu1PdyTuOP8D+4fanQY7S3d+2iXZ1VkTW3O21r22drfh7lV1aJ2irmdP6p4rewP2NtU71G/bx9xXuh/sV+z/7UDagZsHww62HmIfqj9seXjTEcaRkgakYU5DX2NWY2dTclPH0dCjrc1ezUeOOR7b1WLaUnVc9/iqE9QTS08MnCw82X9Keqr3dObpx63TW++emXzm+tmYs+3nws5d+DHoxzPnOedPXvC+0HLR8+LRn9g/NV5yu9TQ5tp25GfXn4+0u7U3XHa/3HTF40pzx6SOE1d9r56+FnDtx+u865duRN7ouJlw8/at1Fudt4W3u+/k3nn5S8EvH+4uuke4V3Jf8375A8MH1b/a/rqv063z+MOAh22P4h7dfSx4/PyJ/MnHrqVPaU/Ln5k8q+127m7pCeq58tuU37qeS59/6C3+Xev3TS9sXhz+w++Ptr7JfV0vZS8H/lzxSv/Vrr9c/mrtj+5/8Drv9Yc3JW/139a8Y787/z7p/bMPsz6SPlZ8sv3U/Dns872BvIEBKV/GH/wVwIDyaJMBwJ+7AKAlA8CA50bqFNX5cLAgqjPtIAL/CavOkIPFDYB6+E8f0wv/bm4BsH8HAFZQn54KQDQNgHgPgE6cOFKHz3KD505lIcKzwfe8T+l56eDfFNWZ9Cu/R7dAqeoCRrf/AmQwgxrLJhDQAAAAimVYSWZNTQAqAAAACAAEARoABQAAAAEAAAA+ARsABQAAAAEAAABGASgAAwAAAAEAAgAAh2kABAAAAAEAAABOAAAAAAAAAJAAAAABAAAAkAAAAAEAA5KGAAcAAAASAAAAeKACAAQAAAABAAAGdKADAAQAAAABAAAAzgAAAABBU0NJSQAAAFNjcmVlbnNob3RLj71QAAAACXBIWXMAABYlAAAWJQFJUiTwAAAB12lUWHRYTUw6Y29tLmFkb2JlLnhtcAAAAAAAPHg6eG1wbWV0YSB4bWxuczp4PSJhZG9iZTpuczptZXRhLyIgeDp4bXB0az0iWE1QIENvcmUgNi4wLjAiPgogICA8cmRmOlJERiB4bWxuczpyZGY9Imh0dHA6Ly93d3cudzMub3JnLzE5OTkvMDIvMjItcmRmLXN5bnRheC1ucyMiPgogICAgICA8cmRmOkRlc2NyaXB0aW9uIHJkZjphYm91dD0iIgogICAgICAgICAgICB4bWxuczpleGlmPSJodHRwOi8vbnMuYWRvYmUuY29tL2V4aWYvMS4wLyI+CiAgICAgICAgIDxleGlmOlBpeGVsWURpbWVuc2lvbj4yMDY8L2V4aWY6UGl4ZWxZRGltZW5zaW9uPgogICAgICAgICA8ZXhpZjpQaXhlbFhEaW1lbnNpb24+MTY1MjwvZXhpZjpQaXhlbFhEaW1lbnNpb24+CiAgICAgICAgIDxleGlmOlVzZXJDb21tZW50PlNjcmVlbnNob3Q8L2V4aWY6VXNlckNvbW1lbnQ+CiAgICAgIDwvcmRmOkRlc2NyaXB0aW9uPgogICA8L3JkZjpSREY+CjwveDp4bXBtZXRhPgrgIZ9nAAAAHGlET1QAAAACAAAAAAAAAGcAAAAoAAAAZwAAAGcAAGN3+9sHmwAAQABJREFUeAHs3QecJUW5/vHGdL2KigRFMihZgqCAIFFBBCUnJQgioGJABREjiAQxJ8yACIISDAiCBIkioCJBgpIkKEEFQfTe/71X/+dbyzueXWZndp0zKzvz1H56uk931Vtv/brmTHc9+1bN8Y9e6pJCIARCIARCIARCIARCIARCIARCIARCIARCIARCIARCIARCIAQeswTmeCwJOtGWHrP9JI6FQAiEQAiEQAiEQAiEQAiEQAiEQAiEQAiEQAiEQAiEQAj8CwTmmGOOf6HUo4tE0Hk0k5wJgRAIgRAIgRAIgRAIgRAIgRAIgRAIgRAIgRAIgRAIgRAIgYEQiKAzEIwxEgIhEAIhEAIhEAIhEAIhEAIhEAIhEAIhEAIhEAIhEAIhEALjRyCCzvixjeUQCIEQCIEQCIEQCIEQCIEQCIEQCIEQCIEQCIEQCIEQCIEQGAiBCDoDwRgjIRACIRACIRACIRACIRACIRACIRACIRACIRACIRACIRACITB+BCLojB/bWA6BEAiBEAiBEAiBEAiBEAiBEAiBEAiBEAiBEAiBEAiBEAiBgRCIoDMQjDESAiEQAiEQAiEQAiEQAiEQAiEQAiEQAiEQAiEQAiEQAiEQAuNHIILO+LGN5RAIgRAIgRAIgRAIgRAIgRAIgRAIgRAIgRAIgRAIgRAIgRAYCIEIOgPBGCMhEAIhEAIhEAIhEAIhEAIhEAIhEAIhEAIhEAIhEAIhEAIhMH4EIuiMH9tYDoEQCIEQCIEQCIEQCIEQCIEQCIEQCIEQCIEQCIEQCIEQCIGBEIigMxCMMRICIRACIRACIRACIRACIRACIRACIRACIRACIRACIRACIRAC40cggs74sY3lEAiBEAiBEAiBEAiBEAiBEAiBEAiBEAiBEAiBEAiBEAiBEBgIgQg6A8EYIyEQAiEQAiEQAiEQAiEQAiEQAiEQAiEQAiEQAiEQAiEQAiEwfgQi6Iwf21gOgRAIgRAIgRAIgRAIgRAIgRAIgRAIgRAIgRAIgRAIgRAIgYEQiKAzEIwxEgIhEAIhEAIhEAIhEAIhEAIhEAIhEAIhEAIhEAIhEAIhEALjRyCCzvixjeUQCIEQCIEQCIEQCIEQCIEQCIEQCIEQCIEQCIEQCIEQCIEQGAiBCDoDwRgjIRACIRACIRACIRACIRACIRACIRACIRACIRACIRACIRACITB+BCLojB/bWA6BEAiBEAiBEAiBEAiBEAiBEAiBEAiBEAiBEAiBEAiBEAiBgRCIoDMQjDESAiEQAiEQAiEQAiEQAiEQAiEQAiEQAiEQAiEQAiEQAiEQAuNHIILO+LGN5RAIgRAIgRAIgRAIgRAIgRAIgRAIgRAIgRAIgRAIgRAIgRAYCIEIOgPBGCMhEAIhEAIhEAIhEAIhEAIhEAIhEAIhEAIhEAIhEAIhEAIhMH4EIuiMH9tYDoEQCIEQCIEQCIEQCIEQCIEQCIEQCIEQCIEQCIEQCIEQCIGBEIigMxCMMRICIRACIRACIRACIRACIRACIRACIRACIRACIRACIRACIRAC40cggs74sY3lEAiBEAiBEAiBEAiBEAiBEAiBEAiBEAiBEAiBEAiBEAiBEBgIgQg6A8EYIyEQAiEQAiEQAiEQAiEQAiEQAiEQAiEQAiEQAiEQAiEQAiEwfgQi6Iwf21gOgRAIgRAIgRAIgRAIgRAIgRAIgRAIgRAIgRAIgRAIgRAIgYEQiKAzEIwxEgIhEAIhEAIhEAIhEAIhEAIhEAIhEAIhEAIhEAIhEAIhEALjRyCCzvixjeUQCIEQCIEQCIEQCIEQCIEQCIEQCIEQCIEQCIEQCIEQCIEQGAiBCDoDwRgjIRACIRACIRACIRACIRACIRACIRACIRACIRACIRACIRACITB+BCLojB/bWA6BEAiBEAiBEAiBEAiBEAiBEAiBEAiBEAiBEAiBEAiBEAiBgRCIoDMQjDESAiEQAiEQAiEQAiEQAiEQAiEQAiEQAiEQAiEQAiEQAiEQAuNHIILO+LGN5RAIgRAIgRAIgRAIgRAIgRAIgRAIgRAIgRAIgRAIgRAIgRAYCIEIOgPBGCMhEAIhEAIhEAIhEAIhEAIhEAIhEAIhEAIhEAIhEAIhEAIhMH4EIuiMH9tYDoEQCIEQCIEQCIEQCIEQCIEQCIEQCIEQCIEQCIEQCIEQCIGBEIigMxCMMRICIRACIRACIRACIRACIRACIRACIRACIRACIRACIRACIRAC40cggs74sY3lEAiBEAiBEAiBEAiBEAiBEAiBEAiBEAiBEAiBEAiBEAiBEBgIgQg6A8EYIyEQAiEQAiEQAiEQAiEw+xD4xz/+0XkRsP/v//7v7k9/+lP3hz/8obv33nu7v/zlL93//d//df/xH//RPe1pT+ue8YxndPPNN1/3nOc8pzXwcY973FBDy44T/cdDGR45cE2ql4/6bF/2/v73vzcbfLjpppu6hx56qFtyySW75z73uY9Y6bo//vGP7Rp/F1100W755ZcfulYH2vPAAw90//Vf/9Uttthi7fRIvlU5e/m0/9e//nV3xx13tPJLLLFE4+B6+V95p/1ceao+e+2Sr9opj1R5pnya+meVKfuVt39fJZxju645/7//+7+t/Tjcd9997d4+/PDD7b7K674+85nPbPf2Wc96Vvf0pz+9+dnvI3v8ePzjH9+q8rnqckIfwYr9e+65p/vzn//c+pJrT37yk7t55pmnY3uuueZq9ZUd1yuxV+nBBx/sbr311u7mm28e6puulU986U/s6pvqsc0555wtr7Y/4QlPaFmn5dhfPschEAIhEAIhEAIhEAIhMDsSqHeEsfo+R+9h/J9P42O1NsbyjyFXxtiSFA+BEAiBEAiBEAiBEAiBwRCoZ2QvAAa6Dcjff//9Tbz4+c9/3v3sZz/r7H/72982MWDuuefuFllkkSaqrL766t16663XLbDAAp3zT3rSk5oNnpWYwF4d13l1qbcG42twvs45/8QnPrE18H/+53+aEHHuued2n/vc57rrrruu22effbo3velNza6yF110Uff5z3++u/zyy7uddtqpO+igg9rgf73UEIGIMb/85S9bvXvttVe7zjd5Kl+rcJgf8v3mN7/pPvrRj3YnnHBC9/rXv7574xvf2C299NJDZYujPZGCTe2oNjrnmL/sFRftdF451xyXT86VXdeIEva2usYuW/auK+uaY+Jb1U9k+f3vf9/dcsst3bXXXttdccUV3dVXX93dfvvtTXBx74hhyy67bGvXaqut1q2yyipN4CGKsF91/r//9/+abXWpu87/9a9/bXWw717YcCe0yTPvvPN2K620Usc20e35z39+t/DCC3dPecpThqj3t1OZX/3qV91XvvKV7gtf+ELzQXtsuLmufp+Vk5Zaaqnuec97Xrfyyit3+ueKK67YBCT5/vM//7PxKU4EHjaSQiAEQiAEQiAEQiAEQmB2J+DZfBApgs4gKMZGCIRACIRACIRACIRACIwTAYPhf/vb39oAvUH73/3ud93JJ5/cff3rX++uueaaNoguUkNkSwkJRJYaRHftgx/8YLfZZpu1aB15SlQwWG7wXKoXDHt5agBenspfTWTb+cpnMP5HP/pR96lPfaoN8L/tbW9rgspTn/rUVvbHP/5xG/AnPG2zzTbdAQcc0KI/lFf2rLPO6o488sgmLuy5557dvvvu2/xXb/lVdQ+3Z+P666/vDjnkkO6UU05pdROUStDRRgz5Tfwom7WvtrDDpzpfddU9IKoQGXy2SfYElGqrc+w5z4575rja6lxdL1GMQHfeeed13/ve95r45R6rS0QOEUYZGzvaYlN244037vbee+8mjpTo4nzl5Yt6lSMWXXjhhU3wcq8kkTJlr53o/cDAxu+Xv/zl3W677datueaaQ2JLiSzqkAf3L33pS91nP/vZ9lkEjv7HhnZKfOCXc1hVHYSd7bbbrttll11aRFdxqnLKOrapKykEQiAEQiAEQiAEQiAEZlcCnp8HkSLoDIJibIRACIRACIRACIRACITAOBKogXCD70cffXTbbrzxxjYgL8phjTXW6BZaaKEWhSPSwyD7pZde2l155ZUt+sIUWm95y1uamCLKw6C8QXbJYLmBdKleMtTnnEF4+frz1Ge+GGT32QA+Ucagvrrf+ta3dm9+85uHokSIFa6JOhGhc/DBBzfbxAq+/PCHP2zXRRmJ7tljjz3aef6UT83BEX6Y7o1w9d3vfreJHLvuumu3+OKLNx/7RQ4+85ddx9phujcCinz9Ypg82lf5Slgon+ydkzCTrz4751h5SV55pDrn2Lmjjjqq++IXv9gErfnnn797yUte0sQakTKiVtgVxUSUMqXc6aef3h1//PFNxHPviWAvfelLW6QLm+qtNqlXFM6ZZ57ZnXrqqa1PPPvZz+422WSTbqONNmqiF+GIH+oQEfSDH/yg1WE6PxFBRLitttqqW6w3FV61ve6dfihCh8Ao+maHHXZokUSij8oXfYlPypiaT78kLt15550tEkhE1mtf+9pm27Rv/Vyx6mfajOZHCIRACIRACIRACIRACMxmBOo5eqxuR9AZK8GUD4EQCIEQCIEQCIEQCIFxJNA/mH3OOed0n/zkJ9uAuKmxtt9++27VVVdta+XUdFUG/W3WNhERQygwDZrpud75zne2QXyD7Qbw2SaoVCJuSMQN17x0GIy3r2OfS5Covegggo5pt9QlOoaoU4Pz1mm5++6724C+ab2s60M8YUud3//+91tZA/zEnHe84x2tDuKKOggaIyU2brjhhu7www9vEToEAnZE6ChbfrKh3dUm56tdtZenzjsuDo5Fl5Q9xzZtrPxsSPwpts7Vpm5Jfj5Yx0bbTUdHzCLkbLHFFm3KM1OdiSZyf8pndokiInhE2YjUMkWb6Kvdd9+99QVcJb65jxXRddJJJzWxxlRnpqQzpZqoHmvyKKMO9u2tefTTn/60O/HEE9s0eKbwI8QRdvQdbZa0S5SY+37ccce16dqIaqZRkwcD7ZS02Wd1uM9nnHFGE5i0WwTQhz70oTYVW0U6VTm8lUsKgRAIgRAIgRAIgRAIgdmZQL0rjLUNEXTGSjDlQyAEQiAEQiAEQiAEQmCcCNSAuEFtookpzURm+FxTVYnoMPhtwLyEgnpZMM2WgXYRIKIvrCtjCq0FF1ywRaLITzAgEhj8r8Fz5dn0uY410TGfDPorK8lDeCEwiMIpQUdEUIlMyiirjOMSG5x74IEHutNOO61FHREf+Peud72riVJ8s8k3UlI/Qeczn/lM9+1vf7uJD294wxu65ZZbrpUlIkjaqG42+eK8zxJxo0SEfp7y2LTFni/qw4AQwk5FwwzHi+1qtzLF4eGHH+5+8YtftKiiyy67rIkar3vd67r11luvm2eeeYbuhTrUy4by+NnuuuuuJoh84hOf6ExzZuq1rbfeemitJHn5JTLna1/7WpsKj5iDrzq0l52659Vm5/Ah6ois0n+uuuqqJgCpY/311x8SdLTNOj9EQ/2Sff5Ye4egwyZ7fJf4xDbBkRB0zDHHdIQmotKBBx7YxCx+YSSvVO3mZ1IIhEAIhEAIhEAIhEAIzK4ERnunmdF2RdCZUVLJFwIhEAIhEAIhEAIhEAKzmIDBcJuHfwvXH3bYYd13vvOdNpUYwWLzzTdvokIJDdyT10C6AXF7U5GZxuy2227rXvGKV3S79qYiE61TdgkD1m6RTN+2eG+aMtNiifz4zW9+05nCzYC79U5EvFR0jXr6hRnTpokeMgWX+ohHojnku/XWW1vEB4FJZNG6667b/P7lL3/ZRAOChmm4RPK88IUvbBEqInms4bJYb5ovIsBISVv5+pGPfKQJBCJQiCPWiCH0mAaO7bnnnrut1aIdhDACTwkH6hA5oh0ELlON4TTffPM1QaWmEMMUb/zuueeezvpApkETXSMyxZpFRIgSMeRzXOJG3R914f7hD3+4ReIQwExrJhpGkl9e5W38LJuuSb/61a+6D3zgA+2asu6v6dS0SxnRLwQW09BprygeUTYEIG3Q5qqDPcfOFxftI7gce+yxLZro1a9+dbfffvu1/iC/xAdr6HzjG99o7f/0pz/d2FWEDpv85k8JX+ogMBLf+CeazBR91l4SoVP5lVFe20frA1O8yc8QCIEQCIEQCIEQCIEQeGwS8Fw7iBRBZxAUYyMEQiAEQiAEQiAEQiAExomAwXvCiQgdgolICKIKwURERkWJGPSWt8SDGrA3KC6C4v77729iAdGGWOG8/D/72c/a9GiiTkT9uFYCiynbDLxbg2eFFVbo1lprrW7ttddux0QePpUoYAotg/MEpH333bdNeWZQ34sL0eNzn/tcq4socGAvGoNAIvpDGSIQf/lETGBXPe9///tb5IromJGSctaJYZdIsuOOO3brrLNOE1ys1UIssh4McYbo8oIXvKC1xZ4AgoM6iVimeyMOWZOGAGI6MNdtokRw1ibiBNumCiOWqXvTTTftCFHugbzyVTl7yTmCkeicI488soktyhEzTJ9XkS3ysuG+sGevbB3jzmfc5VtyySWbGEdQko+fF1xwQfOLqEX8Mw2eqdbq3isnyW/jo2vO29tMvWaNHJE++sahhx7ahC79znURWa5b20kfESUlMqoEsLKtHveYbXv+EZqIcETFXXbZpXvPe94zNM2cdrLPJzZ8TgqBEAiBEAiBEAiBEAiB2ZWAZ9pBpAg6g6AYGyEQAiEQAiEQAiEQAiEwTgQMaBNVLFxv4XnTmhFnXvWqV7WF5EXUGMQvAac/kqEGxGvgniggGRw3oC6ZTotwYRosAodrpsMiLBBS2FO/aA1ii0gUg+8El4oEYUtkiynhCDrECRFENX3W+eef38QL4pF1f9773ve2a+eee26L/iBuiN4hkpgOjoBEeCL+1PRdzdnp/NB2opA1dAg6BAWRHqJyXLMWTSVr+TjP/q69aKWNNtqo+aJubT/ooIPaOjyL9SKDiGZbbrllK0pUI1KU6IGHuj7+8Y+3iBfr4BCLMPGyVqKI+okfJUy4ZjozAon1ZkTRiNIhpi200ELNB/fNVveNA8rVPStRpO61867bKhGNTGnmnsi35557tunWROfoB3yS1KNc9RUMHNs7L/rohBNO6L785S83Iep973tfE8wwdV30k2umdRN9hQPhh/1+f6quVmnvh3tgDSARPSLCRFQRAvVz/mojZtpW4lGVzT4EQiAEQiAEQiAEQiAEZjcC0z4b/6v+R9D5V8mlXAiEQAiEQAiEQAiEQAjMAgIe/A1qG2AnfBAtiAFEnPV6a6FsttlmbZoy04sREwyG9w+IOy4Rgq0auHdcNg2mX3vtta28Kb9M3WUKLNOsETJEvxjUP+WUU9oUbCJKRLK4Xv7VGjqiQUx5ZnDeoLw6LrroohahI/Lnta99bYtq4YfrhBRRJqKIRMjssccebVov1yT5RktEE1E1xBVTfykjikmUzU477dTWfZHHGj38FC2kLlO6EZ+IVMrIc/rpp3dHHHFEExysN0PUIV64xif58HQv+Cy/OkSXECNcw7xEiBJPlMNKIl6deOKJjRHRjLDx4he/eGi6NnnKH3YwUje7ztd1ddV9tFcXP/UDaxOJHjKt2VJLLdXW2Nliiy2aHZE9BLsSbcpm2XW+/DXlnjaKDrv55ptbv9hrr71atJN8BB0cStBxbEo71yR+lz39uNpQDIhBBEPrJhEWCXGVtK/aU+eyD4EQCIEQCIEQCIEQCIHZkUC9C4zV9wg6YyWY8iEQAiEQAiEQAiEQAiEwzgRqINxAPHHE4PlZZ53VomoIAgbyX/SiF7UpuyxML6qlIndE3ogsMaj+8MMPNwHAoHkJBqJmiCimzlLGGisEmSWWWKINxmuaQXWRJEcddVT3hS98oQkc1m4RVcIW/wglokEIOkSSvffeu0W+KC8SR2SRuogfplKr6B2Ckam3RHaYeqvWUvHC0y80sDO9pP4SdKz3QkQwvdjOO+/cxIUSEdgjUMjz1a9+tQklBKY3velNbb0d10X6HHzwwY3z+uuv38Ql05TxRz2S+3Daaac1kcNUbqYZIwppk7rrZa38x48wUwIMX9WvnGgWbERHYVntVpf7SnhR3nm22XCNPeeIPZI2Sq6516JeiGrnnHNOmzbOGj0ELj6xUb6wYZP6j9WpPm01ZZ77c/HFF7fIMHwWWGCBJhzVGjrH9KKBtAVb/Yh//JcqakmdfGOTX9be0W8W60VDmbZtjTXWaPnVWyKQE9pU7WsZ8iMEQiAEQiAEQiAEQiAEZjMC9cw9Vrcj6IyVYMqHQAiEQAiEQAiEQAiEwDgSKFHAILhBbQII0YFI8oMf/KCtd2OgnGhDEBAlQuQRwUPY2XDDDdt6MvPMM08bsJdXqhcK6+SIjBBpYZ0VA//WjTEgbyBdMrhOOPjJT37SojHOO++8JvoQX0TCsFVTrhF02LAROKRpBR3TdpV4Ma2goxwxhs1qezMywg9+iiI67LDDupNOOqmJI/vss0/3spe9rLPWjzYTCdgjVFx99dVNmCJQEMDe/va3tygnfEW2EK2++c1vdnPPPXfzBRf+KCuP6BLT39kWXXTR7mMf+1i3zDLLNOFiWp+VU7+9ZK9+Aon1kLAWdUUMmXbdGba0je+EKHW7t85PK3jg6BwbhJTbb7+9+X7JJZc0Ice9Wq8X0SWP1O9nHfOt/GSv+gohDhP3eN11123tLUGHEEiYIehgKUqKAFaCHf9t7KpblA+fRJnpT+oWOUR8Eh1W7S0/lOnn15zPjxAIgRAIgRAIgRAIgRCYzQjU8+1Y3Y6gM1aCKR8CIRACIRACIRACIRAC40TAYHcNZjs2uO1FgLhz3333tUF7US2iZwgaV155ZXfbbbe1KazkI2Ys1ot+MOXWJpts0oQdAgybNvZK0Kl1TETrEClcq4F+zZPf+jgiMESUiEg59NBDh9ZLKUGH2CQ6hygzqwUda9GI9hGZY6o0wkIJAgQq7SHKEG2IEAQVQhcxwdR1rttEP2mj9lrHZ7/99mttwYCoYro1goxoKRFN73znO5v4oy6CRLH1uV7cnPfZRiCxdgxf+zkSY5S1Kacu/p7fW4PIej133nnnUOSL67a6R8Q7AhZRRTl5MTDNnanlRCFZ9wgHqfxyXO3uP88HdfNXe01Txwf+iiwivhCaCIGia/DQ30QaVaQSe+xI7Mhv7RyCmP4rrbrqqq2/rNcTmyoaST6JX8r1t7NdyI8QCIEQCIEQCIEQCIEQmM0I9D9/j8X1CDpjoZeyIRACIRACIRACIRACITCOBAxoGxAXLSEyw0uAQfYSB3w2pdqDDz7Y3XPPPU2AIMzcf//9TeQRCSIigg2RILvssku3wQYbdPPOO++Q8PDLX/6yRduwSQDYYYcdurnmmqsNvrOvrL3rBuKt92JtFjasl7L66qu3gXiCDpHCdGLEg39HhA6BiX/vfve7u1133bWJDhjy3yZyhViAoWnriDqSKeKwIR7IT8g58sgjm4BBoBBBY70gSaQSYaPWftl///1bhAkRpe6XfFUnm1LV7TPhjWBkHR2CBvslhLCBtc1UZT4fffTRLb/pzditxFZNa+b+EuNEuxCG3Ks999yz++lPf9qitNyTddZZZ0gg6bdT9uyrDcVJvksvvbRNL2eatI022qitMUTQkQg6WBJ89BUc+M4O/6r9rjl2Xp7FekIjgWnjjTduItGznvWsdk3ZKlM2WkX5EQIhEAIhEAIhEAIhEAKzMYHpPX/PbJMi6MwsseQPgRAIgRAIgRAIgRAIgVlIwEA4QafWITGA75wBd1tNtVURKK5ZZF6kzlVXXdXWPbEGCuFHlM6uPaGDCGNQXdlrr722TblGBCDCbL311k0QYJutqsvguvVirB1jyjR+mHJMxAaxyRRaRAqRQv8OQYeQ9JGPfKRNlUZwElmz4IILNgGk2oKB6BGCznHHHdcEKaz22muv5jMmrslHbCH4EBis+UMoITSYysz0Y6effnq33HLLtWuiY/DByotavayVIGFfQgUbopisoUMAI2x88pOf7NZaa602XV6Vlb/8dv9Mr6duST1sagveRDtTthHkXvOa1zQ///SnPzWhyho1q622Wru3xJiyzw4b5a+9z2xL/Czx0JR5plIj/u24447du971ru7Zz352y2PKNRE6NtP8YSLqSernUf32Gc94RotmIpDxC7uafk/9UvlSx+yUyNMy5EcIhEAIhEAIhEAIhEAIzGYE+p/Dx+J6BJ2x0EvZEAiBEAiBEAiBEAiBEBhHAv0D3KZVI6h4ESBUzDfffEMigagRgk8JAIQaZZ1TzmC86b3mn3/+FsVh0N/AunyiPnbbbbcWZWPdGYIOYaNSDaar949//GMTdAgc6rRuiigLgo5pykzFZQ0dwoKol1k15RofS9AxjZqp17bffvvOOi+EgH4uhC+CzSmnnNJECG0SycJfIop2yn9+b5ozAtXll1/exKGDDjqotfPCCy9sPAlmRCNtxVK5Ko8d/up2njBiX6LE7373uxZJRBhTF0Fn0003bZFR8uFf9tg0RRw/SxQx5R77pjjTXuv9uLeEtG233Xao7CGHHNJEN9PsWUMHk4r6Ub4El/LTuRKStMExwUtEEvFJ1I/p5XbtiYLEGyyvueaaJnB94xvfaGKO6yuuuGLzAWdJPr7b9F3RXdqtvmpvHcvvWHJNqj7YPuRHCIRACIRACIRACIRACMyGBOrZdqyuR9AZK8GUD4EQCIEQCIEQCIEQCIFxJmBgXQSEgfU555yzRUmItjBAboCeoOLYS0INzve/MJgOjXhgWjaD8da4MchPaLA+yu67797EF4P+W265ZYvQUb4/6scg+913392EkIMPPriJCf1TrtW6MwQiwsK/Q9A57LDDuhNOOKFNCSeShHggYVKCARHr4Ycf7r7zne+0KBliicikN7zhDd1f//rXJmzJT5gylRixZOmll+6OOuqoJpqwL3KHoPH2t7+9TRmmDrxKiCBAOC5hrF8kce0vf/lLd8EFF3Tvfe97m6Dm3rgv1i6qVIKH/AScEuxcr/Y4NjWc6c74Q5iypo/7pk8QWUQtEWXcY+ITIbD6BtuSzzafbeW3Noj+Ec10TE+8c96933zzzYf6SL+gs9JKK3Wf+MQnOnuJn/yu+nBwrsQd9kpg6q9XPnVjoGxxbUbzIwRCIARCIARCIARCIARmQwL1TDxW1yPojJVgyodACIRACIRACIRACITAOBEwsE2AMEBvQN1aK84RHwzQG5yXDHh7QTBQLr9Bc1Oo1aD4z372sybi3HHHHd3rXve6dmzKLNetsUIIMKBOiCGEiPxQjwF159lm89Zbb20RHyJ+TJd1xBFHdMsvv3zLZ2ovES2mcHvrW9/aIkJmVYQOX0XoEHS+9a1vde94xzsanyWWWGJITChG8oocwZNIpo377bdfWzsIS+2V15RlhDCCCSHLNGumCSPmnHfeed0aa6zR2mmKMfmLV90P+34xAr+yTUjjL5t8WHfddZs4ZPo6gl0/83rxq7Jl12d2TN3GJ32BYCPCij/qu+yyyzpROvZsE/L4rW/0izZsSsqxq6yNwGUqPWIW4W+VVVbpRCqtsMIKTYjRZoKONhCPCDn6husEJdfZxFjSNx2X/Xay96PqrXx8kLS92i9PUgiEQAiEQAiEQAiEQAjMrgTquXas/kfQGSvBlA+BEAiBEAiBEAiBEAiBcSRgINt29dVXt0gSggkBgKjzile8YqhmURwG6Q2We1lQxoC6c6JMDj300CZk7LHHHm3aNdOESQbqX//613e33HJLt8suuzSRQkRK2WCHTbYIQ0QIkULWlBFZIqrEAPzZZ5/dBB0ROgQV4oJBfckaLMQe5XfaaadWrtZNMchvOrjPf/7z3V133dXaSBCq+puBUX7wzVoyBCYRNEQpIhWB4clPfnIrXSzUR9giPFiXZtVVV20iRQlTRDHCgnZfccUVbaoxosa73/3ubplllml+iurZYYcdWlue9axnNfuibrS3XtTscbH1iyd13fR57H7gAx/o7r///nYP8LcWTuVXlt8EvZq2jW/FxrR37q2oGDwxrzV03DNtFb1DkJHXNaKdaB5iW/moAY7LN59xuOmmm9r9Pvnkk9v6PkRE94YPfJT/+uuvb4ISYemFL3xhu89LLrkkE63fyIelMtpTddj73N+/nOvvv67ZnK9yzXB+hEAIhEAIhEAIhEAIhMBsRmBQz7MRdGazGx93QyAEQiAEQiAEQiAEJg8BA94G8k1LZS0coggxReTEOuus09a+ednLXtYGywk6Bv5r4Fw5A/pXXXVV99GPfrSz9svqq6/exBxlRIIQC6688spur732apEWojccm7aLEKI8m1Kt+yIaQ137779/E3XmnnvuNjBP0CEeXHfddS06RzQIgcOAvIiWfkHnQx/6UPOTr4SDU089tQkH1mhRP9GAEKANBvhtIyX5TJEmgum0005r08mZDm2zzTbrRCLhyAZf5DXdmsgbosp2223XxDFr0BA9tLcEBALTSSed1H3sYx9rvBdZZJHujDPO6JZaaqnGcb311mvRLjhKVU499bl/304+8kO7CUuf+tSnWvvdY9PdEV1e8IIXNFs4i6Yp37VDwsY195RYgy/fTJm38847Dwl5ylkDiAh3zjnndMQn7VXPc5/73JbPPeA327ZqP6FPX7P9+c9/7vQZwh/RBkP5tNP9JubwY+WVV259gKCjPepnWz774VJdm5bZcHlzLgRCIARCIARCIARCIARmVwLTex6e2fZE0JlZYskfAiEQAiEQAiEQAiEQArOIgEFuYoGNAGB6tKOPPrr78Y9/3AbIDaCLQrEIvTVxiCsG+x988MEW7WKw/Sc/+UmLjFlooYXaYL7IGlOHGcgnCoj4EdlB+Jlnnnm6tdZaq03b9fKXv7yba665Wt3EJNEkhJDbb7+9e/GLX9ymCBNNYuCeEEAw+MxnPtPWhCHIEHRKHLj44ovbQP8ll1zSvfrVr27CixeaEnREyhBYRAnttttu3T777NPsul6Cw0jI8SHomHKNj4QE4pTpxzbccMOhKCLTqBFBrAkjkgg/U9ARKwgnhIqKKMGecMZ3a90oi489hsQN061J7o228mNGRIxqC/4///nPmz9EGW190Yte1G2wwQZN1LEGkEgatl0TBXTnnXe26drct/PPP7+78cYbm/gmWmv77bdv06LxofyxXpA2i7Ix9Zr7hY38hCNTtWm7JC9RTb8hXOlvRD1C4Lbbbtut1xOwCIEl6GhvCTrWG9IPratE8GJzUC+txSv7EAiBEAiBEAiBEAiBEJhdCQzq2TiCzuzaA+J3CIRACIRACIRACITApCBALCEYEBpM9WUQ3xRlhIZ77rmnRcGYCkyEhqm0JEKEa6Yhu/fee7vFFlusDchvuummTYQwKE+wICgQcgg61nQRpUIUYodoU2vpEHEM7v/xj39sERqiQNZee+3OtG3sGPSvNXTUSZAxJVwJERdddFGL0CEuiUAx/ZtEpCAOXHDBBW3aLm2zTgsxSd3EJb6X4NAKDfMDI/Va3+WUU05pNvilLaaPW3jhhVsp/HDTHqLDVltt1YQNYhdxosQjZfnlHJHJlGZEINexNp2bsvPOO28Ts+R3f9wnYop8zo2W5HEPRMNYrwcHUUHsEkcWX3zxJoqwjaW1f1zX1ttuu63dZ/4QWl760pc23whARBs+uC/80W7T3Z1++ulN3BGZRIwj6OBc90l+ghGx6+abb27ijbV39Bv9gfiDS4lxJegQc2zPf/7z233EnA/SoF5cR2OZ6yEQAiEQAiEQAiEQAiHwWCYwqOfiCDqP5bsc30IgBEIgBEIgBEIgBCY9AWKFTfISYPor06SJiCGyEG6swUIYIOQYcDfVmegag/XWuLHmDpFEZE6tKWPAnwBx6aWXtmgag/yEAeIG+yJeiEHyEXgWWGCBJpSI7Nh4443bYL/ykjpF8FgHhxBAICLoPO1pT2vChjV0XCNcWN/mgx/84JAoQNQgmoggOf7447u77767CSmmB5NPfYSZkRJhQaTKIYcc0qYvEyHEZ+sOqVPUCYb8IUKJgtlkk006YoX2Ej3YsJdw9plveJvG7T3veU8TtGqKNlErhBZ2lbOVoFN2RvK5rqmLkHLrrbe2aCpRTNi7pyKt7rvvvmaX6OK+aoP7Snwj5ph6b80112zTqfXbrD5T7SIGEe0IWupwLNqI2OMan4lB7BNucNFG9q0v1C/eabd+wbYIHdOtiRzjj2n3CDslwg3qxbXaln0IhEAIhEAIhEAIhEAIzI4EBvVcHEFndrz78TkEQiAEQiAEQiAEQmDSECAqGHAvIaZEA3uL1otqEbFhgF4EjYF8Yg7xZrXVVmubY2KARHyRx4C7AXlRM6ZHM53XHnvs0dbPIeRY14Zg5MVDxAVhxVRdph2riA5TdBncF40hL0GGoLP55pu3SByiijqs40Kwuf7669v0Zup56lOf2vwhJKhDG0SQmBaMSMDmvvvu22200UajCjrWvlGv6dZM37brrru2eohUZ511VidCiEAiion4sV5PuNImkUoSH3AmrEglWOD00EMPtegWIhFhSPSRCCVCWYkm8ivvc72o+Twjwo788tpjxU/3lah2xRVXNC7uvzpE7vBbZM0KK6zQLdaLXiLA9NfDlnusf7jn/W2SzzXrIRHysCYkEY0wJJwRY9Zff/2hyCb9js1KZcOez8q7t/qLSKgDDjigRf/UlGvFo8pnHwIhEAIhEAIhEAIhEAKTkcCgnosj6EzG3pM2h0AIhEAIhEAIhEAIzBYEDKTbDPQbiK+ptDhf50roIcgYRCe2uGYjAkgG9dkpIabsEiAIB3vttVcTg6wnYxONU2XlEfkjse+8cwSDGrTnm03iYwkM6vHiUm1Qjg/O8Yktx8qWf2ywbdO2suX8jCTCRPnFhqROdRNnSgBRp3Pqr+vOlX/4SbXODUGHUPa2t72tCR7s8FmkSrWBrzZl61ozMsIPPtiUY0dZfpdfGLGFl2vqKx/lkbTZsWvFiwjkXjjvHJvKY+qcMhJbUvngWF8idsnHDi5s8aXsu1btrDaUaKgMu/xJCoEQCIEQCIEQCIEQCIEQGNxUxBF00ptCIARCIARCIARCIARC4DFKwEC+QXMD6VINoPcP/jtv8Nw1g+zK1AC7a1JdV64G2cu2tVUIOsQO06TttttuLQqHLedKxPGZ3RJCDN6XjfLHZ0m+ym9fQgMfS2QhEMgnVXmfCRf8dc7nutYyjvBD3cqyL/rHZ3Xb85md8kMe532Wx2d5tKnqJeRIGHzrW9/q9t9//26nnXZq6+eIjuG/VPmVL8Gj2sX2aEke+YfLO71r1VbXyw9tl9wviU3tqnbLq5xUPpd990XCvc7Jo01S9RnH/b7Ka1Ne3uKrHuWTQiAEQiAEQiAEQiAEQiAEphDw3DyIFEFnEBRjIwRCIARCIARCIARCIATGiYABdBEPJTYYLLfVC4HBdAPxkrw2qQbUfa4B+bqmrOvKmg5tzz33bJEohB3TiZlWrZJ8hAGJYKEsO1V/7Su/z/yTR1l7g/3Ol5/lf+2VdVx7/vqsXsflf8swzA912Kpc+WxfPtS+/GW//3p9ZqfaIDLJOjyf+cxn2lRuhx12WLfVVlu1CCZly9+qv4S3YVwc8VQ/3367/YXU4X6Vn/Lxs/K7LtmLviFqlSCjjLzT8pG37qk8UtlTlySPsv1tq7qct1VZx5V/2mvNWH6EQAiEQAiEQAiEQAiEwCQl4Pl4ECmCziAoxkYIhEAIhEAIhEAIhEAIjCMBA/418K6aGkDvr7JeEKa9VucN0PcPsstnI1jsvvvube0Wgo4IHWu1GPw3OG+A317eEhEIBcSZfpt8qXyulf06b19igX3/ddcq8dE1+35xoK4Pt5dfKl/7yzpfdbnOZ3t56prjunbPPfc0FiJ0br/99u7ss8/uzjzzzLb+zuGHH97WmHnKU54yJGRU3f022C3xpFUywg/lSjwZzqeyX21gquoq3nyXKm/dH+f0ncrvs7z9tuqcfZUvn8of+zqueyJ/nS8/+s/123I+KQRCIARCIARCIARCIAQmM4F6nh4rgwkr6HiB8GI03IsmaIMCONYbkPIhEAIhEAIhEAKTl0D/wGgNsNYAqc95Xpm8faO/5dUPaoC8/1r1k9q7Jr/Plb8G8Ku/ue64Pl933XXdLrvs0j3wwANt6rWK0BERVBEexAmp7Cpbz9nOl6BQdl2Tqo7hfKrr9tVGx1K1p8pNOTvyz8pbZftzl9/aoU38nTa/z/y99tpru+9///vdjTfe2N17773dTTfd1PzZe++9u9e+9rVtHR3li2vVo7xtWpGrrk9vr0yl8tO+38e6PlJeZaTyw2fH1d5+G3XN9bpHdb2uTWvPdefk51slNuq8c3Wtv3zlzX5yEqg+U78b9btTfaX6oL6UNHkJ1PeIfuF7q/7uIFJ9pvpS+srk7Sdarq/Y9IOR+kp/H5rcxCZv631nVPI3yH+Oqr5Tzy8+19+jypv95COgH1R/0Tds9TdnkDTYHUSakIJO3QS/rOaQrgfHuhmu+2IfFMRB3IjYCIEQCIEQCIEQmFwE+h8YHds8m9QLRV4uJld/mBWtrT7WX5foDRE6b3zjG5ugY+o168TMNddcnSiUeq7WL/ufpauf9tuaKMdXXnlld+CBB3bnnntuW59miSWW6FZfffW2vtDSSy89FCmVd4mJcsfTjvEm4LvHd4aBV6m+SyrqsK7nd2q878Rj237/3xt/m/QZ52w15aPjDNI/tu/jrPCuv69YP07/qHG/6h/pK7PiTjz26/D3pVJFu5cI2P8s239c+bOffAT0Dd8d+oPvkuorRcK1sT6rjLV8+TIhBR1f5DZf6vUQUA12M/xC+1+D+YUtKtmHQAiEQAiEQAjMagL1gOh5xHoXkucTD3n1UppnlVl9VyZ2fTX1Vv3HJi8lDz/8cHfDDTd0X/3qV7v77ruv22KLLbrNNtusiTlPetKThgQd/XLa5+qJSuu3v/1td/TRR3c//elP29Rz6667brfWWmt1JeYYPMKiBo0mKoe0KwQGTaD+vvku8v1Tgk5+lwZNeva3p694TrJJ1VfyXDT739tBt0Bf8Z2ir9Tf5npmGXRdsTd7E9AvPMN5z/J3R3+xOZ8UAp5LakPD3x2fK9XxWPvLWMuXPxNS0AHZF7p5r5/xjGd0FjMVqVPQ7PtvUsHIPgRCIARCIARCIARmBQHPIl4g6n8VOibqeBl98pOfPHStBJ5Z4VPqmPgEpn0G1u/qpbZEChQ8J9fgWf8zs/yVnJ/ICSv/CUw7HUv1H8ZKGMMoKQRCYHQCNdDqO6S+Uwym1bHftfo9G91ackxkAvU3SV+pftHfb1zv/1s0kVmkbdMnUN8d+kL1Fft6zpn27/f0LeXKRCdQfcXfHP2jvmPSVyb6nZ/59vU/q/gO8R6uv1TSZ2xjTYOwwYcJKehomF9aN8P/LDRA4oXLF7yb4ZobY58UAiEQAiEQAiEQAv8OAvVCYXBYqv8p5vnEQ2S9mP47fEudE5NA9S0vEvqbVIMe+ptnZnvPz5Xqedm+/0Wmzle+ibT/29/+1hhgUb+f/nOYdwsMnE8KgRCYcQIPPfRQi/pTov/vm98vv1v1/TLjFpNzIhLwXOQ/4z7taU9r4zb6Sgl/rlXU6KAGwyYiw8nSJt8d/iPKnHPO2f5O+w7RV+qZpsb70lcmS4+Yfjs92+oX1oWsZzrjwzV4X98x6SvTZziZrugj+ou/N/W87/vFpi9J/vPlWNKg+tqEFHT8sXcDSsQRqfOOd7yju+KKK9qDgZtSv8BjuQkpGwIhEAIhEAIhEAL/CgEPcrYSdepBkS3TOn39618fGnD/V+ynTAhMj4Bn5EpeWrzIei6W9MPqm46leumoz+3kBP+BUT+H4mLwSDJQVC95ExxFmhcCYybgXdxUjkQdv1v1rs5w/W45ru8ax0mTl4A+YbBMPzHgWn970lcmb5+YXst9Zxh01U/0l/SV6ZHKec9snt089+orUvWX+ttT+9CavAT0Ce9Fm266aXfAAQcMRejU+SIz1r4y1vJDfvQce8yEqQzKFQ+KBdwxFW2bbbZpC5uWIgvgoOormNmHQAiEQAiEQAiEwIwSqP9JWA91nktsL3zhC9vaHZ5hvIDU9Rm1m3whMCME9DWDIMQcfayiUnyuvshOv3Dh/GRJ9cKPTf0O+p107BoufoeTQiAERiYg4mL55Zfv7rrrrvb743uk3teVFKFDLK3fr5Gt5epEJuD71d+g6gv9fcU1g/f1P6QnMoe0bXQC9Te4+kp9p+gz/jbb9JX6+z26xeSYqAT0Bf1luL5S/6HJOHH6ykTtATPeLqKf9JrXvKatLVp9wveKPuS9Sap+0z78Cz/K7r9QdKoiEzJCRwvrjz/ofjkt7vrjH/+4W3PNNbsNN9xwqpfTqYjkQwiEQAiEQAiEQAiMM4F6TqmBC58vvPDC7uyzz26CzmWXXdZePDzHJIXAoAjoZ/USUYJFvZQ8/PDDbbCsPledlb8+szEZUvHxO4iBdnuR87JnUEDK7+dk6Alp41gJEHSWWWaZ7k9/+lP3yle+sltxxRXb747fqfo+ye/SWClPjPK///3vuy984QtN5Ntpp526RRZZZOj7N31lYtzjQbXi2muv7U466aS2ZvYee+zRpulju/4++7s97fPLoOqOndmLwPnnn99dcMEF3aKLLtrtuOOO7VnX90n6yux1H2eFt6eeemp35ZVXdv7+HH300UPPKL5L9Jf6OzTW/9A1qO+mCSvogG3zcAj6xhtv3PlF3nfffbsPf/jD7fygIM6KjpU6QiAEQiAEQiAEJg4Bzyb9g8OeWY444ojuAx/4QLfKKqt0BJ08p0yc+/1YaUk9G9sTLIg39aysP3pBmbbf1cuL83Wtzj1W2jUeflQb7avt/pNYCV7FYjzqjs0QmEgECDqmEn3ggQe6I488stt+++2Hvmv8fpmS7SlPecrQ98tEanvaMnMEfvnLX3YvetGLWn8444wzutVWW21o3MbfLN/BT33qU4cG1WbOenJPJALf/va3u5133rl7znOe06La55133qG/1Z5nPOdYM6X+lk+ktqctM0fgkEMOaWPA/nP/6aefPvTsy0pF5tRabjNnObknGoFddtmlO/7447vXvva13VFHHTUUke+Z398g70z13jSWtg/qHWJCCjq+tG1A+wX1crrJJpt055xzTrfffvt1hx56aLs+KIhjuZEpGwIhEAIhEAIhMPkIeAax1TMLAocffnj3vve9rwk6l19+eYOSZ5XJ1zfGs8UGOPQpe31PtIm9z56bq0/yoY6rj/pcm3P9yWfXJM/ef/jDH7rf/OY3bVBu8cUX7+aaa672PG6QxaDubbfd1v3lL3/pll122W7uuedufvTbm5Hj8rk/b78fdVy+ln/yF4f+c5W/ruMhVaROCTnKVt395eUdrq6Rzrsm9dc95czYfpa9/j2L0/pbtZTfPmtb//88NBXfgw8+2AZA3MfqJ1U2+xAYjQBBZ7nlluvuuOOO7phjjmn/Q1qfq77kO8Pvl/7Z3xdHs5vrE4/AVVdd1a2++urt78ill17aIpa10neSvlH/ESH9ZOLd+5lt0cknn9y+S57+9Kd3N910UzfnnHO27xTfK/V32vdK+srMkp14+Q877LDugx/8YBOLf/KTnwyNEesr9YxX3zETr/Vp0cwQ2HXXXZugQ9gh6PQ/7+srnlOm9yw9M/UMwob6JqSg0xr2yEulG+BL/OUvf3l33nnndfvvv3/nFzpf7DPT3ZI3BEIgBEIgBEJg0ATqYc4zieeVj3zkI03QWXXVVbsrrrgizyqDBh57jYD+Vs/BNfBRA6v6oVR9s15kqox8UuVzLG9F93ghvu+++7rTTjut23vvvdv/yvc/I9dee+022ELMETF/8MEHd1dffXV37LHHtih6oo462LI5Vkf/C/a0PhsEJkiVr9OWKd+9gLlWeR2LCGDbVuXl659OTdukfp+UtUnFoj7Lp06fXeu/3j9goGzxU79jW/nSX0f51l+Hc/151FOf6xp7zpfd+g9u6ihb/fv+/NYy8b+alSe6XXPNNW1bYIEFug022KAxKl+1JSkERiNA0FlqqaW63/3ud93Xv/71zkBJ9T99tn4/HNuSJi8BETqegfQPA68vfvGLh/oKKr6rpPp+bR/yY1ISEKHz6le/unvmM5/Z/gNJPUcUjPSVIpG9GZoIOsRi3yv+zugf9r5rbPn7k36CgOeT4447ru39B5TqK/VMPai+wu4gUgSdQVCMjRAIgRAIgRAIgRCYSQL1MOfh0ItFBJ2ZBJjsM02g+lwV1PcsGux/sdZgvzy26peue5GxGHWVNwBLxKk8T37yk1t5du+9997uO9/5ThN0DOL6j1Trrrtum+f+j3/8Y1snSrT8Lbfc0n35y18eEnT8DrCnrqqn/FCfzWd+yFfXatCmPhNrTMkjVRl5HBNs+F3iDqHDtf72P/TQQ628/OqR1x4HdZeY4Vwlx2XXOZ/5Uz7Vvq7VdXs+4FfJuUrKVWLfZ3zkKb8d22pRef5qj+t85Xe1t/KyyR7Bxv9ulr+SdhuANwXW1772te6b3/xmK2/6CXPPq19Svv9eVfnsQ2BaAhF0piWSz9MjEEFnemRyfloCEXSmJZLP0yMQQWd6ZHJ+WgIRdKYlMhOfvWQMKtULkJcZdhOhMyiysRMCIRACIRACITAIAvWs4jnF80oEnUFQjY2RCOhn+l31PXkJAQb0Syioa/ql4xq4r8H7eraugX35+jdROGeeeWb3ute9rnvuc5/bffazn+3WWGONFvVBLPnxj3/cItFMyWbBUVEfz372s4cEJbb6bVf9fFE3waFEm/JJGcne9RJ95Jen/Ku2OUfoKHFGWecqksVneSs/O+pk13EJJOqyydd/Tn1V3nGJZY6Vd6380j73oIQY5yX55PfZ5rPUb8Nn9865Ou+cpC21foCy/Oy3xSdtqnnj+cCv+uyYoPOpT32qTYu31157dVtuuWWrrxiXr1NqzM8QGJ5ABJ3hueTsowlE0Hk0k5wZnkAEneG55OyjCUTQeTSTnBmeQASd4bnM0FkvIoNKXkKkehmKoDMosrETAiEQAiEQAiEwCAL1rFIDsRF0BkE1NkYiUAP/8uh/JRQ4ttVzc9moPuqzQXypxAmCATGhyromz/3339/WrRTRYd0METprrbVWiwQhXlhf54YbbmhRICuttFJnIeMSYPjHviSvz3y0l6oufqq78pRP6ieMVH5lCBWSKJg6X+1mp2wq6zq7lVyX2Hdc5Zyrcs5XOXXJK1/Z8xkrqUSf8oONKl/2WsbeD58rX9mtPLVXBwZVZ5W1Z7eEr/7zjqu8smwo75x6nBOdw2dT4pWg84Y3vKHbZpttWhvY0MakEJgRAhF0ZoRS8iAQQSf9YEYJRNCZUVLJF0EnfWBGCUTQmVFSw+Srl5ZhLs30KS8lUr0kRdCZaYQpEAIhEAIhEAIhMI4E6lnF84/nlQg64wg7pocIVH/T/wzk+2xQvwboS3wgsvQnfdQmKaucMgQAIohj162hc8YZZ3R77rlnt8IKK3Qf+tCH2ho6c801Vytb9Vd9yjsumy1T74d8dc5x1Vc+u6asvXpdd40v5SdbInF8ruga1+WrMspLVUe/fVzk41/Z7a9POZ+r7fLKh2Edu1ZtdKweqcoQURwrZy8pa6s2175d7P3wmU2Jv2XLef44Z1/TxMnrnFQCjmPlyjf5XbMRnpy33glBxxoF1kTabrvtmh31VMRS2WUvKQSGIxBBZzgqOTccgQg6w1HJueEIRNAZjkrODUcggs5wVHJuOAIRdIajMoPnvBwMKnkpkeplKILOoMjGTgiEQAiEQAiEwCAI1LOK5x/PKxF0BkE1NjqYQAEAACM3SURBVEYjUP3NYL4+qO8ZvCco1KC+wfo///nPbRHzO++8s0XV1BRlhJkFFligW2SRRbpnPetZbfC/bCkvAud73/te9+Y3v7lbeumluyOOOKJbc801u6c97WlN6Ljjjju6Sy65pNnfaKONuoUWWqhFz7BR7wJ8+tvf/tbW2bnuuus6a+8QDkzNZl2eRRddtPl86aWXdg8//HA7t8wyy7TpwrTl7rvvblFC1odZeeWVu/nnn7/5ZZq3m2++uQkdIna0wbRwz3nOc9q6Oeq3FQ9t/8UvftGZRu4lL3lJt8QSS3S///3vu5tuuqlzzXlCERv8siizKcv4ZC0hbZVP1BJfnve853WLLbZYN88887RyxBP14aZ9JY4obwH52267rbvrrrvaWjfqmW+++bqFF1648SeyuGfEl7JDSOLftdde25htvPHGzSc2nL/99tsbB2sMYcmXxRdfvE3Nps18YQOniy66qMP3/PPP7+acc84myq2yyiqt3Mte9rJWrynd3LekEBiJQASdkejkWj+BCDr9NHI8EoEIOiPRybV+AhF0+mnkeCQCEXRGojPKNS8Rg0pejKQIOoMiGjshEAIhEAIhEAKDJFDPKp5/IugMkmxsjUSgnrf1v+p7+h9hwP5Pf/pTd+ONN3aXXXZZm/7G9GgEDOvfGMAnwCy77LKd6dJMpfbCF76wnS9Rgnjx3e9+t0V0EEBEeLz4xS9uggmRyBo673//+5vNo446qttkk02aYMBngoaIFcIDIYWYcMEFF3S//e1vm39LLrlkq3P99ddvYtKnP/3pJnh4ATPFG9HD4LGy1vAhVtjz44orrmgiz8UXX9w9+OCDTWAi9qy99tpNrHFs+jfCFXGDLXVbA+jXv/519573vKe1+dxzz21+EZqINoShVVddtSNybLjhhk3wIMRceOGFrbwBSmIKAYWwJR9xiJhEkNHmEtO0XYQT5vgTVJSveghHL3jBC5od6xKVGKMcO4QdQgyfMbAGDgFOmy+//PJmi8hEXMKS35tvvnm3/PLLt2nWiDNEqpNOOqnbb7/9WjfSJ0q0IVatttpq3Ve+8pUmLPE7KQRGIxBBZzRCuV4EIugUiexHIxBBZzRCuV4EIugUiexHIxBBZzRCI1yvF8wRsszwpRok8RLCbiJ0ZhhdMoZACIRACIRACMwCAvWsUoPqidCZBdBTRYsGgUG/s9VgvWdmg/kEl29+85vdT37yk5aXEEEwqPwiZ+QjHhBW3v3udzehg7AhEXRE6LzxjW9sooE1dNZZZ50mIhCLzjnnnO7QQw9tUSBf/epXu1e84hVNPClxg3hk7RbTfRFXiCy19ow6//KXv7QpwF75yld2P//5z9vnHXbYodt5552bSCO6hQCz0047tcic5z//+c3fq6++ukX9iE6R2NEO7SdSmCLO+4LPNjywOPLII7tf/epXnToINYQW1/jLLxEtommcO+CAA5o4QvQhoqijxBoikWgd4hKRyXo02BrstmaNfISrH/7wh933v//9FmWDucgmQoq2i5xik0jz0pe+tNttt926FVdcsYk58kqinz75yU+2/f777998J2a5b0Qqyf0k0LFVdtwjkUOioc4888wWWeX6Pffc0+69iKAFF1ywe9GLXtTEHlFNdV+a0fwIgekQiKAzHTA5/SgCEXQehSQnpkMggs50wOT0owhE0HkUkpyYDoEIOtMBMyOn60VkRvKOlqcGSbxcsRtBZzRiuR4CIRACIRACITArCdSziucUzysRdGYl/clZV/U5rScQ2GqQX/SM6cg+//nPdwZKTGtW66YQGwghBAVCj8iPU045pUH8wAc+0AQKg/36MgHg1FNP7d72trd1xJRDDjmkRcGYtouAIurFujpXXXVV941vfKMJOsQCZUXmsEtEIZ4QaWyigdRPODnttNOaj64TSUS9EGNe9apXNdGInSuvvLJ7zWte06Z1IzoQhbwLEJn46feNeHL88ce3thKBtthii+7tb397m4YMJ4PQhBCiE59MdyaJBOKTaBnMCDcijYgg2vGMZzyj1cefV7/61S0Sh335PvjBD3aEJVE6fCGi4MJnggsh5zOf+UyLpiHU8GerrbYaukeEqhNOOKH71re+1fwjWrlHxBUiFKFGZJDIpbPPPrudd3/5vOWWW7Yp37QdZ/foox/9aGuD6fH22GOPzrR1kva753xxL7RLHqIWAQv3EsZagfwIgREIRNAZAU4uTUUggs5UOPJhBAIRdEaAk0tTEYigMxWOfBiBQASdEeCMdsnLzKBSvbBG0BkU0dgJgRAIgRAIgRAYJIF6VvH8E0FnkGRja3oE9LP+fudYFIwIEHuRMV/+8pfb8e67794iQETeGNw3pZfyojZ++tOfdp/4xCfalGCm7CLerLDCCi1iQ4SHKBNRKAQCokGtoaPseeed1733ve/trr/++iaoWOeFCEIsIvYQEUTBiGAh1FibptZq8bvCfolConlMF0YckV80C5GKEKP+W265pU0rRoAh2FjzhyChTeq75pprhsQpkTPELFOaaSvRQju/8IUvNAHF+jgHHnhgZ90f06WxgYcp0kQd7bPPPi3qhRAjcsZUcsQjtvit7SeeeGKbDo3I9IY3vGFomjj3iy/WG8LHWjVvetOb2tRsymu/e0UYsh7OGWec0aY9Y5N/prQzjZq2FcMf/ehHLeLmoIMOamKWdY/qHvKboKW9fNLmt771rW3KOPdaXTZijunbtB3jbbfdtt1j/hKQBvnuxmbSxCQQQWdi3tfxaFUEnfGgOjFtRtCZmPd1PFoVQWc8qE5MmxF0xnBfB/lS4CVE8sLCbiJ0xnBjUjQEQiAEQiAEQmDgBOpZxXOK55VE6AwccQxOQ0Bf0+/0N5tBeclAv7VVrH1z1llntYgMgsh6663XhI0SJUSASCI8DPYTE0yZJvKEsEIMMK2aKdcIFiXolOAwnKBj3RmCgXVmRJ6IiCEwifwRwWJ6sZoCTd38Jkb4fVHP/PPP36JHRMOIduEjIYb/d999d4vcIQxZt0Y7CD72kmii4447rvvSl77UhArr/aiTgCKfqBrtJKAst9xybT0gwpUp0nC0EVkIUO94xzvaVG+mgiN+aHNNQycfgQhfU9ARz/j0+te/vtWlTYSVj3/84+2ayBtRNQQoqfi7f9pHsCLG8IuQpK0LL7xwe+c5v7fukCnXCDvWNyIS8RlTqe6/e3HMMce0aB5iD5+JcyJvql+UoGMqNveTaCbip9rOn6QQGI1ABJ3RCOV6EYigUySyH41ABJ3RCOV6EYigUySyH41ABJ3RCI1wfZAvBV40JC9I7EbQGQF8LoVACIRACIRACMxyAvWs4jnF80oEnVl+CyZdhUQKg/X6Xj132xMMRJoQdYggBvWXXXbZFjlT66TIp7xEfLHOjugPwoUp1ESVEDBE0BAuRJgsvfTSLUJnNEGHYCBChbCirIgeooQ1ZohEkt8RG18NEBN/Dj/88CYwiC4RhUNoIZZcfvnl3a677to9+OCDLVpGtNGSSy7Zypc4hAEx5qSTTmqihmO/g5tuumlrh/ZaQ4dwQtgxTRrBxdRrxY8t9ZlG7X3ve1+bjq6EGmJW/Y7Lx54p1UxBR0whwshLhDLdGqHHFHD8xE6ET7WdGKR8Rc+IPDJdHQHKmjYGK9wvog1fsTM13vbbb9/8ItjUvcPPsU3blXW/99prr2677bZrAlr5HUGndb38GCOBCDpjBDiJikfQmUQ3e4xNjaAzRoCTqHgEnUl0s8fY1Ag6YwDoRWVQqV5EIugMimjshEAIhEAIhEAIDJJAPat4/omgM0iysTU9AvqZpO/pd/bOEQoIE5UIEDbTkolWITjYHnrooSb4EF9M6SVCZNVVV20iBWGBoEDQIVyI6JgRQcd/ujJdWEXD2JsejXhCICo/6/eEj3y+9NJLW2SOY1O+iWqRn/hhDZ0dd9yxtcnaL6JdiEPyEjTk0XYDzdbHseaM9X0IOqJUSjgh6JhyjEBkujFiDNGIL+WXac5uuOGGNo2c6Jh999231bfYYosN5cFSOv3007uDDz641cUnjEwTR0zbf//9W3QUPwlgiy++eCuvXH99/CY+mbJONJV8IqVM9UZ8u+SSS9q0dQQdwpAIHmvgaLOk/TjYrKMjukrUjbzWHTL9XbUtgk5Dlh9jJBBBZ4wAJ1HxCDqT6GaPsakRdMYIcBIVj6AziW72GJsaQWcMAL08DCp52ZG8rLCbCJ1BkY2dEAiBEAiBEAiBQRCoZxXPKZ5XEqEzCKqxMRoB/U10hj3hwr4iSIgThB0RJH/4wx/a1GqOCQiiXYg1oniuu+66JmLIu/rqq7dpvQg77ChH6BHxMaOCDpHk7LPPbuv3XHvttU08sc6O6JX6PbH3e8JH+xtvvLHbtReFoy0EHVOulQBEcNphhx1a3re85S1N7Jl33nmnErK0m0B18sknNwHEsd/BV73qVY2LthBorOlD0CF2ED9qPR+cyx9r+RByiFH77bdfixYi6PDZpi57awsRdExL1y/o3Hrrra38hRde2FjLW1E5jt2nqk+dPhNv5BEJxEeCGp8JOoQYU64Rc0ylZko75ST2JGVF6JjaToSOKCcM3QtJvgg6DUV+jJFABJ0xApxExSPoTKKbPcamRtAZI8BJVDyCziS62WNsagSdMQD0sjOoVC8rXl7YjaAzKLKxEwIhEAIhEAIhMAgC9aziOcXzSgSdQVCNjRkhoL/ZavotfdGxNWVEfhBETCNmLRqfDfiLvhHJIZrGoD9Rwlo2a6yxRptWzXotbIg2EYkyM2voiFIhAply7eabb27CAjFCXWxW4rM1ZOx/85vfNFHEMdGGGFFr3/CdAEPs2Xvvvds169FUe+21uV/QIVgdeuihnTVwtFUego7oHYKOKd2ITOqoCB6iCFELB6ISMeWd73xny/u85z1vSCjjo0TQEeVz//33N9+JXtpuCjXtFXWELfEJ60rKE2v45PtCu/jPT9OpYY2/z2wQYvhuXR/r9JjSTnll63uH3wbECDqicvhvyjXtk8cWQafuQPZjIRBBZyz0JlfZCDqT636PpbURdMZCb3KVjaAzue73WFobQWcM9LxkDCrVy4oXIHYj6AyKbOyEQAiEQAiEQAgMgkA9q3hO8bwSQWcQVGNjJAIECAP7NknfI5CUwEHAMX3XD37wgxbdQlTQT5dffvluueWWa+u7WKtlrrnm6i666KLu/e9/f4sMsf4LYYegcO+993bf+9732nRoSy211Khr6GywwQZtXRrThxFPRP9YX0akSwkr1Sa/Jzb+/uxnP+v22GOPJm6ILjHFGjHENHE///nPm2CinaYSE61jKrNqdwkiBppNO6ZeAhVBx3RvIn0kU66JflHXrr1ooAMOOGCqCB088bv99tubICLChogiL0EHu/r9tidaqePPf/5zy0PQEYX0u9/9rvHCn6AkqoZAowwbxCY+lciDgfM2wkzdJ/64L9pjyjXTuFk/iGAjVRnH/Nb2ioQiim299datfdX+CDpIJY2VQASdsRKcPOUj6Eyeez3WlkbQGSvByVM+gs7kuddjbWkEnTEQ9NIyqOSFRfLCw24EnUGRjZ0QCIEQCIEQCIFBEKhnFc8pnlci6AyCamyMRkBfI2gQNwgjkr74i1/8oq0Xc+aZZzYBYKuttuq23HLLtkaL6/LWVF8EiGOOOaZNH/ayl72sO/zww9saLvKYcu273/1ui5ohanz0ox9ta8KItjF923nnnddEBJE/xx9/fLfRRhu1KcEuu+yy7nOf+1xbm2ezzTZrNkWvqJOvfk9sjvkvCojA4rp1coYTdPhda8MQdKqtyrNloLnW0CGyaAdBh0CCkygXa+gQdHbbbbcmMolWYtfGBmHElGuEHGKKCB15l1hiiXa96pSXUCZCh0Ajz5577tkidIhJ73rXu1qb1l577cbOnkBD1FLWMb4lSjmnHfx0zlY+W3/oiiuuaNO4id7B3jU+V3n2rHVE9BGVQxTbZpttIui0XpIfgyQQQWeQNCe2rQg6E/v+DrJ1EXQGSXNi24qgM7Hv7yBbF0FnDDS9mAwqeWGRvLywG0FneLL/mIJp+Iv9Zx/JOHX+KferTMwxuNvXX/MMHk/ti0K9/9M4g2WTLQRCIARCIARmPYF6VvGc4nklgs6svweTuUZiADGCeGGQ/7TTTus+9rGPtenDNt100zaN15JLLtkG+A3+lxCgr95www0tCoQgs+6663bvfve7W6SOyA7r7IhEET0zo2voKGfasWOPPbYJRaKBRAotssgirX51+z2pdwWCiLyf/OQnm/hkWjVROCJ0+GpQcKeddmpRRqJdHD/nOc9pt1u72bOZcs2gENHGOkEEnY033rjZ8ftpHRrXRM54ySPWiHYhIlXCUFSRa0Qpe+vjEHSwkko4w9jAQgk6NeWadYFE7pxwwgnd/PPP38oT09SlPRWZw1aJUfznIyaO6xoRiqBz5ZVXNjGLoGXKNan4KccufwhJBJ23v/3t3fbbb98EpGpfInQatvwYI4EIOmMEOImKR9CZRDd7jE2NoDNGgJOoeASdSXSzx9jUCDpjAFgvGWMwMVS0Bkki6AwhedTB33t6R+//6vWEjxlMvYwEnSn5/ZxyNEfvRfLxvRdDgs5MWJt+pc0O64/878fhhJlH1CN1T0ly947bRy/PPUfn6L38d1NecKdfWa6EQAiEQAiEwL+HQD2reP6JoPPvuQeTtVZ9rvodsYGYQYQh6BBkrEdDCCCClGhASHBs/Zezzz67O+KII7pf//rXLfrmwAMP7FZeeeUmBoh0YctUXwQdQuVLXvKSFokiQofgQAC68cYbu29+85stQkckjigVUTef//zn2zo81pQhxFhPhmChfr8nhAhr5Ij8Offcc7uFFlqoRejwWfSMfDVFmvyiYKynY62ZStpegs5JJ53URBu+iZ4RHURgkqdf0BEBZHoyvpZAwz5Bx3o+hBzTnIl02fWRKdeqPnt+iU7CCmNr2xCbTLmmLtOfaZP1eAhqRKoXvOAFbUo1UTrajb/trrvu6kzvJqoKY/9xTfu0CV9Cl3V/RC6xY4o8Pqun2s7v73znO9373ve+1iZr6Gy77bZD09yp54tf/GL3qU99qrP+EF+JTMQe7X7iE5/Y37wch8B0CUTQmS6aXJiGQASdaYDk43QJRNCZLppcmIZABJ1pgOTjdAlE0JkumtEveMEYVPISInnhYDcROlOTRXqKoFOyzEjsp7Asuab3Ktgr7eeUMoSU3tKy3eN6H8cu6JQwRJB5pN7efkqN/2zDPz0i3vTEnNZ3esctYwk6T+gJUHJW7n+Wz1EIhEAIhEAI/LsJ1LOK5xTPK4nQ+XffkclRv/5Wmz5IBLDujPVi9MFf/epX3Utf+tIm6IiUIW7Y5LnjjjuaaGGNHPmt32KtF0LQKqus0gb7iRWm8iImLLPMMp31dQg6omeIPYQIwggR5Otf/3qLiHnmM5/Zommuueaadu64445ra9CwIQLIdGklPPHPQA4x4u677251VIQOsaUEHVEy2mnKMWKMyBef+xMRh5BinRxRM3wlphBQsCGOuEYc2XnnnZsYI1qGHdzkwYA4RYASySPSxXRqppuTqk78tP3ggw9u4hX/ROjUdGjEsa9+9astaoZosskmm3SmvXMP5JH4e9tttzUhy1Rx7oe6CEiELYnPBB2iFpGGMNcvQpXvBB1T47kXNeVaRTlpm/SVr3yl2SIIEaAIOgQo19lxT+p7rBXIjxAYhkAEnWGg5NSwBCLoDIslJ4chEEFnGCg5NSyBCDrDYsnJYQhE0BkGyoyeqheeGc0/Ur56uYigM31KveGj3r+SSoggw6V+QYSwYqsylV8cTE+Iaf/q3MzvW0TOtFaaIONl+BGtpheZ0zxq7+NTvJlyhZjziF/2vXJzzNETdFqETgSdmb8bKRECIRACITDeBOpZxfNPBJ3xph37RUB/69/0QwICMcU0Z8QYosUGG2zQoj8M9hM4CBK33npry3fPPfc0gYaQYVo0kSVEG+XuvffeZsOaMgSdgw46qLMeDCHggQceaFEvokJMsWYdng033LBFkPDDFGgXX3xxiwohjhCJlF144YWbD0QXflofxjRl1vIxtRnRhhihDgLLVVdd1QQY4s5b3vKWJujMN998DYFzhAi/c3/729+aMCQKhdhkqjJrAhGwiBZEK4KO+rzk8bumPytBhzBSgg7hR7vlfe5zn9vqU4+8+InQIRrhQIQhkhBr+OS6iBvTrlnHiN311luvW3PNNRtrPmu/6d3Uo+0rrbRSW9dnjTXWaBEz6rKOD0GHLW0XWUOQ4YPk3mONkynXCDrur7wV5SQfW4Q7Ip/oKXXY3O/VV1+9+V3Cl/xJITA9AhF0pkcm56clEEFnWiL5PD0CEXSmRybnpyUQQWdaIvk8PQIRdKZHZgbOe8EYVKpBEi8j7CZCZ1qyWPcWhP276Rt6E6+NyL6mLZte/E1PMOlNb9b7P57TVjJTn5s807MzXETNlJ7h5yNHzd8SdJztnzxOnimCzhSfIujM1I1I5hAIgRAIgVlCoJ5VPKd4XkmEzizBPqkr0c+kGtwnJBBGDMwTC4gpJ598ctsTHYgM8phey3RmImmsq2Ng33RshByiyIG9acSsPeP6H/7whzblmugQ04ERQdZZZ512jWBDJDnggAOaOPSNb3yjW3/99dtaMXVj1MsP4tLNN9/cpngjbvg9EeWz4IILtundRKSIUiE4ES1E4RBi+EPQEbmibaJ3TN1G0PE7x07t5dVeAojol0984hNNYMIDIwJMCTps8JsPxY/P+Ig22m+//bpLL7201eeFUIRO/++4ek1VR+AybV1NuYar+8Imf9jgE2GGyGQ6PNzUo24CkIgl07GJ4CGIEXsINGxccsklrR3W0CF0YWMNHb6UP+qrCJ0PfehD7d7iZMo1PKufaBc2OBDqnCfS+a4i4OGUFAKjEYigMxqhXC8CEXSKRPajEYigMxqhXC8CEXSKRPajEYigMxqhEa570RlU6n9hYTeCzrRkse4JOv/4n96eMCINH6UzJNRYQOeRnC370A/nCTFjE3SYFlHzjybqDBl/RMLxmc/VR6bEFvn4917UzpSzvf2UhrT1fJ4wx+N708CN0ad/upGjEAiBEAiBEBgogXpW8ZxioDSCzkDxxtgwBKzDYtC/X5AwsK8vEm0ICiJnRMcQXgyuEVgWW2yxFpWx6qqrtinWFl988bZ+junFRO0QA7beeusWSXPfffd1P/jBD5rIs+yyy3bvete7utVWW60JBYQJ0S6HH354K6/Pe0a3Tg7hwu8BgYMft/WmFvvRj37UfLn++uubz9bpMR2cqJVat0YziUcEF2IEEYeYse+++3YGkp3fbrvt2hozJVRU+wkrfD322GObeEWUIZCIwilx5Gtf+1oTiLRP9E2JRpjJpz7TwBFG7Ak1ooUWXXTRdgfk8zvOnjV5TE9HHNlmm21alM7cc8/dbBBlbPJiaJ2g83vTp9l+//vftzwVHSNqiaAjcsn9c1+1XVLHl770pe6mm25q6xiZKk7kUq3B4z6rw2drHRHlRGjJRyASzeNarZEjGuiss85q/cG0cMSk97znPW1KuKqzVZwfITAdAhF0pgMmpx9FIILOo5DkxHQIRNCZDpicfhSBCDqPQpIT0yEQQWc6YGbktJeLQaUaJPHixm4EnanJ/qOJIISQEnGwfzR/+sgjGknvqMSRqc9W3E7P5JjTlDVvHj/FTrP3aKN/70UU/b2n3BBvyDpTNvJU73Mvu8/W83nq4x7fPaGX6Z/+j9m9GAiBEAiBEAiBgRGoZxXPKRF0BoY1hkYgUOKCaA99rqYPI0oQE1x33oC+PPqmvWsG+F2vTR6JoCBSQzmp7IgYkbfKEjTYU65EJPWLAlKeqFBJHuVEDam3bIlQkdRF7CGiECusR7P55pu3KKDyl3jEZkWR9LdXnqqDPf5gQEwqP+SvTX7+80k5PjlWxjXt4KNr6tNu+aU6Z++89krKsIFJ2VWfz8ra2NcOfinLhvPK8tM5qe5TfVZOm+QrYUa5sl++O1ds5S072qCuujfq0E5JHep2nW02kkJgJAIRdEaik2v9BCLo9NPI8UgEIuiMRCfX+glE0OmnkeORCETQGYnOKNe8RAwq1QtNvbhE0JmaLNIEEZKOf6Mlr4v/FEaIJP/8NEUIahZHMzOD16e8GPaGFHovlr16p+oXU+r5v57zf++9UP6954bhg94rctv3hh56+95LdE/ZeerjntA9aSq/Z7D6ZAuBEAiBEAiBWUCgnlU8/3heSYTOLICeKtqAvMF5/c7AvL1NfyQE1IB99UuD/1KJCSVCuG4wny39V7ka3K9r7JXw4Nh5IkDVpazrxAfrtJhqzVRjpvUS5WIKN2Xkt0nq4Iv1br74xS92K664YvfmN7+5Re64Jp8y5ZO9VH64JtmrVxliBl+IGxV1UvXKWzbkdSwfezafa2NHnqpDWYlPfC6WrlcZ+dVdXOQvpq7Vdft+DsoTXJSrtinrvPLq4I8y2impn51KxYpvylV9lafOsSWPTSpGZSf7EBiJQASdkejkWj+BCDr9NHI8EoEIOiPRybV+AhF0+mnkeCQCEXRGojPKtWlffkbJPuJlLyiSFxF2I+g8GtcUQWeKHPPoq1OfKfmm7YksQ5enHP0vWWho6rOhizN1INJnjl6cDWmmbb37xrsm6FSd7ZzoHNuU6dmU+nvvWCmlfVbmSb1zj69yM+VJModACIRACITA+BOoZxXPKZ5XIuiMP/PJXoN+pt9V38OjX3Sp52bnq1/WIL9zjp2vzTRpImSmtSmvVPmqPp/ZUE8JHI6le+65p/v+97/fWVeHEHHooYd2pnjrFzrkI1bc1puO7b3vfW+bXsxUaLvvvnsTduSV2CxRosQRoked40fls+/3qUQQefhtXzZ8Joqw71g518seW/JWvrqurY5tjqus/FLZsK8yzvcLQMq4XrxcK1vyum6rJG+V51OlyuecTZ4q178vn6o90/rVz7hsZx8CwxGIoDMclZwbjkAEneGo5NxwBCLoDEcl54YjEEFnOCo5NxyBCDrDUZnBc14cBpXqhcTLBrsRdIYnO0XUmfLy10+/jutK/76mVuu9NvbeQAkrImR6L5i9Kogp/2pqIs4cJBkvnf4HYO+ltnfviDPqnDpSp/e/C720Wm+nCTtKTxF1mg+9/E/onZ+Dc0khEAIhEAIh8BgkUM8qnlM8r0TQeQzepAnmkn7W3+8M0vefq+Y6ZyCfCFKpBvT117IhQsSaMpWcr/5cQsG0goDrUtkpYYc4dPbZZ3dHHnlkW4vGGjM77rhjt/zyyw9NOSbPDTfc0NZ+Oe6445oYITpnyy23bGu7qJPv5avjSnyr847rWrWl/Ko2yCs5X9d8dr7yVBvYcuxa2XVcn/uvVZmyIY9U5cof5+TFj8hUdTgv9efzud9u2a48ytaxvBK7kvqVleSxVV2uie7Btb8vyFv1OU4KgZEIRNAZiU6u9ROIoNNPI8cjEYigMxKdXOsnEEGnn0aORyIQQWckOqNcq5eJUbLN0OV6aakXkgg6w2Nrgk57h5sizMg1RZjpvdQ9UqR3pXdEJql971qvYP2T83+97Lb8VeqRwjOxY+Ef1sfpbSUP9V4xm6hjTRzHfGiCkhfPR16Ap9Tb87D3Atp7C+3l6LWh9476+Mf1pvRo6/786z7NhPvJGgIhEAIhEAIzRaCeVTz/eF6JoDNT+JJ5DAT0N8lAvaQP1nO4fll9sgbx61rlM9Df33/r+nBl1dWfV339IgZhgR9sXH/99d2JJ57Yffe73+2IN+uss0633HLLNUFHGeeuu+667oorrmiCxPrrr995+Vp55ZWHphdTXwk7bJev7Du2508xKF/qer/QUWz6fa5zZcdntnxWbzFwvlK1n23HlaffRuVRpq6zq4zII8dVVh6fy3fn67prlcpO1eOz5LOtyqujPpct+Vwvnx3LI8lTttuJ/AiBEQhE0BkBTi5NRSCCzlQ48mEEAhF0RoCTS1MRiKAzFY58GIHA7Cbo/H8AAAD//4HrdJUAAEAASURBVOzdB6BnRXU/8Hl1C7uUXWDZpb0FKQsoVcUWEaPGoDHFxJqExLS/JTGVxKhgbGCJxpaYWCAx0RhN1KhRSKiKBXulWAAFlr69vPo/n/m987g8t7/n8nb3zu599/7mzpw5c6adM9+ZuV1j4coMcdPJSldXV83V6OhoQfdJT3pSufTSS8s555xTXvva11a/GZLtB5CNsTIaqY/Fv1K6SwmRjcWf0fhZK0WXX13xLNRoffKLX3f927mLODqC0NSq0miU2XDwMBTpepZWd1w9NT13XEb6Y6OR3nDp6g4uFPPYSCQdPMZzLffwHAl+urv7w0ssgVrXSqCVQCuBVgKtBGaWBFJXoafQVy644ILy0pe+tJx66qnlmmuuaXWVmVVcLTc/JQmo+5z2sGbNmnLttdeWT3ziE+WSSy4pt9xyS1m5cmVZu3ZtfT937tyy9957lyVLlpQzzzyznHXWWeWEE04o8+bNq+2lp4fe17pWAq0EZpIE1q1bV44++uhy6623losuuqj8xm/8xsT4pt2PMNzCec5xcSbx3/Ky8yTwta99repA9KKrr766POIRj5ioK7jI8aI75gFat2dL4IMf/GB51rOeVfbbb79yww03lAULFrR1Zc+uEpvN/ate9apy7rnnloc//OG1XzHO6Evc9TWudvzZrPj2qBf0k/e9731VT7nwwgtrvVBXjDnu01VXpkvX6QqGpjYLP43FO52spIBS6C2gM7mgdFz3ASGlq6dCNWNjHcimA+hEnMBCADogkej26pVgDp/u+MeNjUSM+D8V6CQBneFxQKeTDlCnA+50eIhkArwZHhosPdEBd/cEBzXRAHlqfkZqY+sqfRGrNzjD31S4krvWtRJoJdBKoJVAK4Hpl0DqKvQf+koL6Ey/jFuKu4YE1H+TutoEowmI89WvfrVcfvnl9f6jH/2othFADsATmHPyySeXfffdd8LYyri7Ro5bLlsJ7DkSaAGdPaesp5rTFtCZqgT3nPgtoLPnlPVUc9oCOlOV4J4TvwV0plDWLaAzBeFtZ1SwjZ0tZWwYQhKxY+/LmF06cXcBQcKohod0dvDwCUPbThjhK3gTUIuoXI3Xedzxv4hBPYMnaXNBt/KGv3ga4x+g0whQJwx/oJQFOr3dPaUnLuDT6OhwGR4cKbP7ZwfY0+7QIcbWtRJoJdBKoJXAzJNAC+jMvDJpOdr5EgDmcO4uu2x6ey3Kub9L0Icv0MfFdnBlW8r7/WO2v1oJtBJ4ICXQAjoPpPR3rbRbQGfXKq8HktsW0Hkgpb9rpd0COrtWeT2Q3LaAzhSk3wI6UxDedka126aMDpVAPiImdCbAkK4wnrv6wkoOEKSDm3RAlHHaNQ6fCgBFENECXKnxY5vM2AS6s53MTNBHG2gUfI3zVMGcunuoJ+Ck2OYWbxwJNzg0Uvr6euBN4/tvOjuOAE527HRFnObb8STaWyuBVgKtBFoJtBKYMRLIyWf6j8nqdofOjCmalpGdKIHBwcEK4ABouLQHtIkEazxrLwn05BFNwB/+w8PDNWy+34nst0m1EmglsBUJtIDOVgTUvp6QQAvoTIiifdiKBFpAZysCal9PSKAFdCZE0T5sRQItoLMVAW3pdRpwWwqzre9ykiSNwfbItftLroIzY4NlbHRjbIIJBGS0pwyO2IPTG4ZxHFfWG0Z1/AegOE2NA90AWuzuqceghX/H9OYbIbvC8K5hduxPPezNjpsK6ARNu2viGg2gaSTgmVE7cyoH/gQfwXc3HuKyDydCBD8d/jDSVXcNdbjeMY7aWK0EWgm0Emgl0ErgpyeB1FVaQOenJ+OW8syXADAGmENnz+f+/v7KOLAHaKONpJ2Qu3O0H3HS+Z1tKv3aeyuBVgIPvARaQOeBL4NdhYMW0NlVSuqB57MFdB74MthVOGgBnV2lpB54PltAZwplkIbaFEhMRE2DrgV0JkRyvwfAy1DAI0N2xNhdE2DJYNjEI+PHrtnmEvhOB0AROFxCI/Cfujtn3K/jL9B4QIF3wAF00OjsBOr8cuRaZ2fOxP6gStkunb5IuC/uvZ7Dd1ZcvWjEkWsjJgf6xncb1Rjtn1YCrQRaCbQSaCUwsySQukoL6Myscmm52bkSSP3fPb+j00eHC5cAj+cMp93kcWsJ6PjNP8MI37pWAq0EZoYEWkBnZpTDrsBFC+jsCqU0M3hsAZ2ZUQ67AhctoLMrlNLM4LEFdKZQDtNphOUkSQvobLpAhsPoXRHYx/LBsXLnqrFyx90ryopVa8v6jcMlTjOre11GrZYMQAVgY/0jiKUD3nTAnftAHb726oyDMPG0w87qyvFUnObm+z3+1SfgU8A7vcHN3Fm9ZdE+c8shC/YuB+7dV/aJhZxzYiKgdzT28owOVgo9vf2xy6fD1w7z00ZsJdBKoJVAK4FWAj8lCaSuQv+hr7RHrv2UBN2SndESUPddufMmmU2AJu/aiedmu0nbIf0ybntvJdBKYOZIoAV0Zk5ZzHROWkBnppfQzOGvBXRmTlnMdE5aQGeml9DM4a8FdKZQFmmUTYHERNQ07FpAZ0IkEw/AmfVhEH9/3Vj57PLh8tUfri/XXX9jufvu1WXDxtE4eq27DMdOHUeddTnmIuCR0TCiO7tnxkGd+ttOHYCJMLE3poInE8ns2AMa9QIORZpxjFucCxfpOIotjt0Y2xA7cQbLAfN6y+J9Z5Xjly4qpxy1fzl2yZxy4Kyu0j8yVPrHNpbZsbIzTloPHjqHsG0PM3LadAliNf3a51YCrQRaCbQSaCUwVQlM6Coxpo7FWHf++ReUl730peXUU08t11xzTbvbYKoCbuPvEhKwK8flaDVXVPzKdz06N561k9FoH+yE7glAZ1xPHA8rRtXX4n3rWgm0EphZEmgBnZlVHjOZmxbQmcmlM7N4awGdmVUeM5mbFtCZyaUzs3hrAZ0plEcL6Gyf8Do7WBiwQJYwZSeQiM7xZNWyDb9q2laD2BFq3QGHdJV7YhfOFTcPlvdds6p865Y15c7ld5Xe7t4ye87cwGf64vi1sQB1UA2wZjQooINGPEwcflaNZl+ucdCZaxp2w6AZO4PkbbRz4FsIJSgHoNMzuqH0j67vADZdsZNozV1lYQA7py07pDzpoYeUhx8xrywIAKgvvgu0V0/sLIrvAlVAJ2imrLprHkgErEVgnqUXYeLnCD/ZCOd3520c7VHDdvxnyl/tJScDdyZPmW62103xkGGmwtdk+tNBcyr87A5xmzJsPm8qb5Plv6kwrV8rgVYCU5OA4ZXT3lx26LzsZS8rp55ySvniF79YjzfthNj630rKsNa6VgK7sAQ6bSF264wv7hkNoMfioqprjLcT2au/6YzhV11tAI3fHd/2byuBPU4CbJ6ftuuk0bGdpCVJNuJ9Lm3Tjh9A56hjji233npbueiii4oJk6aeCdDltOtN2RX30d30U5PWpkPMLF/8Ts7npvy2hevJ8VIW4k5OY1vobSlM0p5uus00f9qAzs7IQzM/U33O3atTpbOpfG/Kb0fSQSfrRPN5U7S29n5TcTbn1wI6m5NM6z9ZArsDoDNd7XWybHbk9/a04ybfm4rXfD+Zly29mxx2un63gM4UJJkFNgUSE1FzUNkdd+iMOesslObYtxJ/OwpzB0qJ59CwR0MZHoqjx4RiEHeNxKrG4ZHSP6uvrBkeK6u6e8p37ukqH/zSveVDX7ynbOw9IICSgE82rImzyteF4Rx0+gOoCQN6ZDjAjLH+uGLVZNDsjhWScaJ5GesOmkF7tLsv+IiwdafOOBIyUQo78BCATFe3vMVqTasxA0rp6umNFOI7OQHU9I2sH+eju/T39ZZ1G9eVOV2ry5MfelB59mOPKEvnlTJ/bKgs6O8r3YNDgdsErd7eMhIAj9WdPaFw9PoIkO/sVOMhJgl6fWunO46aGyvrBodL3+zw8zu+w0PUsyO+k9zvb6jsQN6mMYp6nQqeup4XP85v7cnxJZznbBPN39vb5tB3nr2PFftQMZq9IZ+k7S6Md8I005eu99uSpnDS4fJjyENDsfsqaHqn7NxdM9WRQ/KOxzRWyWtbZLAt+cpydZdeHlfT9E863pPhrFmzqtw8k1+THzyiwb/5Pmnz95xyz3yIk8+ZXntvJdBKYMsSAOYYq32zrg7Y8ef1F7yunPvyl5dTTj6lXP25z3V2I9SXnUmxzVHsNlbujFm8zTHQ+rcSaCXQSqCVwMyRgBMOuBg66okHnV8/8bejz4WtUPXIzjjTbZdcOLtGxaZq5wjE9qwe7jVM550wYb6NW6YRKuK60OXWrltbjjn2hHLLbcunDOjgmc7pSjuDzur3xC6/muq2/5msw6aei0K+y3TpwdJp6swZLuOlrpy/kxO0+K1fHwsUw6ZBJ+OiRyffVoeWdMRDi/M7L7JJ+lujmXnMOx5Ttuilnp+2X6aHbsbZWhrb+n46AR35SP7yWV3hyDrzuK28CZf0Mg666cjKb5dnYSfXlYyf8Zpxko57hlNXZs+ePcGr8K7trSvqCZr5fbqk447HbZUFGlkf5CHpeuZPvplG5kcc710bNmyo77c1vaSxqXsL6GxKKq3fpiQwnYCOeqzdcFmv1fH0m1y3vePSP3/zyzjo5Hv+zTB+e29ujL9wGVb7y9+ekx9xOH7c5LEg0/UOTe8zTTS4vHv2Ln+Lm+08+Uh6k9MXL/vcTCP5RZeTL3zq0zKMeC500eSf6Wee83eHyk/KLP23994COtsrsUZ4hTZdLgtYJUD3SU96Urn00kvLOeecU1772tdOVNjpSm9n0tk0oBONjNI9DuhEcw9QxO9owPqbkENvb09ZHW369pGecul195b/DEDny7f2lbVDc0pZvaIsim/RdJe1ZXBoddkY4MmwhhS7XGb37BXfpukpvfE71NegOhxATigTAegMx7Fs0a2Mq/X3KTQ7Jg950GiD87ikhPZYgEZMhJ7RodI9Yn9RpNM3v6wZivT79ipdw6vLaYf1lGc/enF5/PELygERqze+BdQXoE2dJ4t8j8SFeh/gKYQyODRYBh0rF/7DAfasWh9yuaeUWSGKA/eNDjdS7AvZxVd44op7ECLfmeTUax1i1vHsSPmp/37ns7D80t9vHSPneVudsBl348aNteNFU8fKX3o64+RFB80v00qetpYeesmvsOKh4c6YoCgmza3R2pnv8UwO+CefuXPn1kGKDDJPeBdmOhw6mSbZpMyk53fKX5kIm+GF877pxPGef/LrPTkLzzXfN/2SXtKogds/rQRaCWxRAgCdkWhvdoga4xwv+rrXXVABnVMD0Pnc5z+v0cWbHH8a/YbgDepC1JG4BXUaUmkfWwm0EmglsAdKgB0V2WYJVreFccGxhnX8ET7GGy71O+MPm6mLMRn/UR0NWhnH6FRjCBZkADo1Pl+AjvTHaXSOXDtuWgGdnNyip9I/a9rj+ipd1sSxd3Rg7zNfqcsK410zXv0RfzIM3R0NVzrv0EpwI2mkf+rXyRN/LnVltMT1Pvlqpjd5MjzTbd7Tpki+0OaHDj+/M91mvMnPwpCjOE1e+Gd8+WnSTH/ppX0hTOZnchrb+3u6AR28NWWT+Uy+5N+EI3/5SZl6L68ZN8uZbJsuw0hHGHTSpayUN7qu9Mv6IGz6e5f0U6biosvflem5J0+Z3qbu8pfx8708cc285rst3TN9YfCXvDbjyD+eyVS66nPG8y7z34yzo88toLOjktvz4k0noJN1P+s1aTbbvfbld7YPdX5yvc93eUdjcrh8l+kJw6/pr3373Wzj0hdH+06+MlymwX8yj+g3XYbll2Gb+Ug+mnE8CyM9fORibGH95p9pJ7ibvItn/kyYOXPm/ET/JL6La/ZdSa/JWw20g39aQGcHBSfadBUCWlnBVGZ09zxApwOIAHhin0To46EghH6xPnba3DbcXf7jM9eWD3/mxnLr+vmxA2ZO2aesL0//uRPKwOK+0t9LIaSIR2OJK6bj40C1AENCQY/NOyHcUG7iObqPuIdiEQH7w1/Y+6s44bG9LghEl1djVRwqnnCi6TIkRiIfa2NhzVdv6imXfOG6smJ0v9hsM1gOm7OiPPXE+eXZjzuuHDIreAlAp79bhxHAU+R7iE0R3wbq751dhiKNlcOjZX2ANN9ZPli+eP3Kcv2PV5SVayKloLV4r1Ie8+Cl5VFHzytL5oWyFGn2BOgzk1y2FR0Yl7+bdx3e5M632eEJm8pW0tlaHsXJtqXDpaSJm+mK733SzbD8tUU8bYuhkuEzvng6ey558K6Zbn05g/4kz2Rh0MEvGXDbKu+tZScH55STe5ZH9n35zu8sA7JsDp7k6B0+PU+mocy8598ciPEnfF4Zf2t8t+9bCbQS6EggNpFG+xkfOWPcff3rXldeHjt0OoDO57yMgN5H31HHx/FxVv83IUSjZvwbJzPh3T60Emgl0EqglcCeKYHx8eK+zBsgNjdIdN7l2853U4UOnT+OvK4XQhHAQruOXsn+6MSrY1E8NneJdkao+0ap+76hM/Uj1+iclZ1xvTr1XHp36qrNyZ58XyNN+iM8h6ZweU0KVt+j7+JMUjXjNMPTk73LiWxpJM/ip04tTtJI/Tl/b4ln8ZJvz8mT57SV0q8pB+8nO+mlzJp5T/rJR9Ou804e3U26oZF8T6a/I7+nE9DBV7omj1lG5NO0yTK/GSfvmUe/k05TXhku36d8hFHe4jTTyXDKybvc8USmmZa78syySBppo+XvZtqbepaGOOgkLXxl3cCr95P52xQtfknD8+Q43mV6KZ8Mk/G8l7b3U3UtoDNVCe458acT0CE19TnreP42zmmzTkNR77XRpmvWee3O72yHwgmfV9J2b/plOPcmPWGyLTfjZrtLfoTL99pitkf+GYaffOCNfzOt5u+M7724efktXIb1O/OR+c6+TRxuU+HRT3/37CeFz7w33zdlKcyOuhbQ2VHJRTwFMl0uC1klRnd3BXQic1Xh7rZ6qireMWkcDX8oJoZCra0rdvtjF010KdHzxK6B7v6yPJYF/8vFXykfvOy6sqrsW/p6+ss+w/eUc57/pLLskL3LnPHd3pRxIE1PzBK59waJnjr2BrASdyptBXTCf3YNC3rBx446xEOZrrtoIjfBbwVxumIXjTzFW9fKSOK6FaW8/j2fKTevWRg+veWArtvLk5b1lec/7eHl0AB0+uP4tNK1MYCcwZjkio4i8j0ayM5YfCcIjevjI0LX/GB5+eKNG8q3lpdy68rRsjGQnjmRTu+KW8ujj9i3/NYTDiunHxHyiOg9vXibSt4i+k/BqefqeNbzTCLrv3t2zvnOXZvgL54wGb4ZZvKzsFx27jpkz+7e6ZhdHMU/023yINy2dLb404lzyVum5Z3nHABqoBn0B38pV3zKh9/4lZeU/XSwjG46dJUFJWKyEy55wA8+8CYO1ywrZcfle2HSGBEPncxD5ifLSpzWtRJoJbBtEqiLnsebcG2K8ef1duicG0euxTd0rv5cZ4dOh5oxrTEKRVv0m9OKo9ep42VnB2/1bv+0Emgl0EqglcAeKgH62X3Oc/N3vmn6hS0Q3sYTep5fSLAfx5fvjdMYj1PVx3iu6Yz7VQpo5O9OOoKuj4muY44+Kr6hc+uUj1yjczZ1U79Tj5WivDfzn7puh5vgL8bafJ/3DJO/8y5OTkDxIxsubZAMlzSbYYTjn++aPGZ6+U5YC+X8drxW0uW/OZdhklYtt+CxmU6G2RyN9BfOrgp3unzGc0cfbXTzN5nzM8HGbvAs3nTYAdMJ6GTZsU/lY3vqSsq1KQvy2py/d5leM1zWFXdy4pJm0uLXfJfv+WcYd/7CkbnnTdl84kx2SQ+NvPjtSF0hwyxntOQ5yz/pod1MpxleWOGSp8m8bs/vFtDZHmnt2WGnE9DRBprtR133W1totgESz3CeMxw/NJq/+fnNeebyN5qZJv+Mq11levy1rUwv6QnLCet9tr/Jv9NfWM/eJ42M5x0nTe/x591kJ15eybffXOZJH0Ze+rCk5X0zXnNno3TERU8c4ZIvz3jKNNCZimsBnSlILwt4CiQmomaBZuHveYBOIK6hUkczj501/kYjiAawPoCNO+PXhZ/+Uvn3y75X1vcvCkAnjlVbdWN59Z89rRy3ZJ8ANWJFSMSFl1ZAJxTz7mhAdqoAjvyrR8WEfzT3aJlxPFn499RdPZ2OaKIgtuuB+RCNEaATtEoc+1Y7igBhRgKUAupsiL5gVYT6YXwL6K//7oryvZVxwFrXnLLvyI8D0Okqf/qsx5SDg6Xe6CDGYu//+rHhMhiAzkhXX9kQgM49q0fLDT+6O8CcFeVrP15bblwzp9w1NL+sHY2VVrGCZnak23vvreXQ7nvLL508vzzt4YeUZYcuLLOCZgXFtis/P73A2YGZaNcZZmeZnZn6n22gynC8E/Q+nWfvMlz6b+6ebSk7eL/FTUWOsoxm+jfbs3D5u8nD5tJKnpM3vzO+OGhsC53N0f9p+ievyTv5cOSTcsh3U+Uj60HKQj2QjrtLWbm4LJdMM3nxW/yM2wR0vEs6mUaWTcZzR5t/psWvda0EWglsWQIAnWg8tNvx/g2gE9/QOffcCuh89vPNHTox+HV04Uo0em5a70QCAB1X61oJtBJoJdBKYA+XQB1cmjK4b6y4vy//0M/rX288d8YjFpkxxokNY3bpxHN3XO6VmkgTY1f4hR7JGZvyGNEapBOsbKiAztHltltvmXZAh96a+i5dlN5KL+XnN9fUYatH/JEX4Tjv/ebynnFTx60v40/quvwzbL6TNkcX55J+/RF/xGUXiOeSRt5NXnE5WVV/bOFP5hPvmVfpNfOyhej3e4WHPKKumb8mLekJx+HbJZ9NIEj4qbqfFqBDNmSPZ3z6LU/ykfLDe+aBf9P5Lf95eee5GS7LP98lLWml7Nz9dnGbqiuZRso808m46jzazRXrldhm/sg3PsWRV2n7nWW9mWj38xbehQd0kkbek2f5STlkeIQynPfCTodrAZ3pkOKeQeNVr3pVta8e/vCHl6uvvrrWQXVSXWzW7W2pm+KlSxrZ1tHKditMtjn++kp37S7DC5Npeuc536GdbYmfdy7tX1jzgJwwaCYd7T39so0nn8JnOH7oaJPuzTCeXZmueMmfZy75SXrep0u/pOm39y40ycI7fVi+y3yj4Z18ZL5SpvyzzxQu00SjGd+7HXUtoLOjkot4WSBTIDERtVmJ0N3TAJ1YK1EBne4AR+ysqepVKOVrx3rLHfHrwtih84Erbi5rZx1a+nq7y+wV15YL/vyssuygfcr8OExtdpy/3Bs7cyqQ0x2dTsTtodDXSaNoZDEOA3NGA2gxJJsyFnYqrjO0B6eRblcAMWU4PmwT6Rbf6Ynv6IxE498Y4MyK2LFz/cax8tK3B6CzanHswpld5g/dXJ6wbLT8xXMfWwGdrujohnp6y4Y4Vu3eobFyy8oN5ablq8oPbl1fvnHDPeW6W1eXlWVe2dC/f+xa2ju+oxM7ePqjoxxaXxaG5PruvqGccsD6OMJtaXnCaUeUvYMtgNZMcTozHZtOMDs8dT4HCHVeJ8jPJSyno3Nl+2h2lFvLG5rZmSYdcdI/O1iDTPKVHat3rma8LaUnLB6F94xPd0aO9LjMw5boPBDv8IlHZZEDbnPg4Z95mCp/ygMtskCXyzS9y/rgvSvDUwBSfuK7yJh88Z+Ov9/iWTGI9uRBP/OT6WXc9t5KoJXAliXgKFQ7UX04WlvjXpeAzqmnlqvHAZ1o4Tq8cWLunfZ8vxEpaISqPB6mvbUSaCXQSqCVwJ4pAeNAXECd8XHFmNG5NiWR8Xd1+BAvx5qw8+Kn76nGCFUBmwroVMiGXRnjUDxbLGj86qaDRlTjVfyq6XmmUSJth86xRx9dltcdOhcWEyY57qV+irvUVz1vzmW8fE9Pbeq0frtyd3nlb9z28ezKdOiuHHsjaSTdvAuPXjp0U59OOu7C0ZO51JXzPT806Mzipj2U9k3q8H7nJJ04m3PoCpu0Mk7mx3tpbM1l3vBrgi3tBnSSl6STwI3fKUPh+UtfmtPhphPQwWfTKYPk07uUl/xnGWdZ5G/hXcLmc9Jo0vYsDrouckKLn8vvjI9W0su0813y7Ld4aHjOupXy907crTnhc/IUrYyjfNFNvrZGJ/OBhjjiNx1amW/PXMq3+Sy+azpcC+hMhxT3DBrTCeio39pDtmHtgcu27znDeM42pg1nm9YOs50IwzXpZXx+6GZ4/toeP+0o00we0JGOeOJkW0va+Vs8flzSd0fflbw2aeA93+Mh84VG+rsnT56bcaSX+Rcnn925zE/THw1p8ct5wCZdPHiXcSqhKf5pAZ0pCFDhT5dT0JzCRXfPBHSicTkuLdpIBVwC3FgTAM/tsVPlwku+Xt532Y/LvT2HxHdlesq+6wPQ+ZMnluMP2rvs0xUfogpQI7qI0h1Hl/UHMNKtod0P0LFfJUJEI/JxzPhUTaRFdd9xZ0WX5lypBKDTA9Ax2RW7a0rs0pHWUKS1MsCd78cOnT9/0yXlhlWHhN/cMn/klnLmsrHy4mc8uhzWz9Ao5e7QM25fs7F8787B8tXv3Vu+/J0fl5uXr4kdO3uVkd45ES8U8p6+0jt3XumfH35h/Nx796qyX//cMnL3jeWUJSPlmWccVp5w4sFl/8jYrGmsnzsupftiqtfZOWfHpsOzZX/lypXlzjvvLHmWp/cm5PfZZ5+y7777lnnzIs/j2+R1ntle7qP+k0/ZOUtT56mD56eN3XPPPeW2226rq7v23nvvsnTp0homaWc7zDg/Sf3+PtJAO/kSn9/tt99e7rjjjjJ//vyyePHimp/7x3xgf+FZGRgErXT7zne+U/baa69y6KGHlrlz59aBKlciTCen5MOR1/r16+uZ1mvXri0//vGPa11Q7ocddlg1uIRtAjfiTC6fLFc0V61aVb7//e/X8kBj4cKFlY7y4JQpJ9+pJFSP9k8rgVYCW5FA6CcxxkXj6oSL2wVx5NrL7dAJQOfzn4sdOuFiGO+Mi0ZYCx7co93GXy8MvnHXB7SgDpG0rpVAK4FWAnuuBAwKcU0MEH76UT3uLxZjT9hV9V08+9fZaRMTMqErbhyKUw6cmhC2UnfYirH+L3TxmJiO8aY3bEqnUeeChK6JXUERN9Jy3DVgJ0eldevXlWVHAXSmvkNHJuit9E5AApukOWFNF6Wj0sXXrFlT7r333npnH4nnPZ3ctf/++1edGJ3UYVMHRteFDl0530tf2qlzr1ixourK9O/0p2ejT/9ms7DB0ELbxSXfePWMv+uuu67mJcPUgJv4g1/fr2FzuTy7pI9ecxJuE9EnvKQjPHriyiM/z+5sFrbkzTffXPN7wAEH1PTwm/Ige+mRx3S46QR08CN/yh2PKWd5y9/ek/3q1atrXWE/yZMw5KIc2XLqijhkknJK+wndpJ10pY0G+mSDrrooHTYif3HUjWZdQZ+/uC5OeuqX396xzX74wx9WPmuALfxBD331RF1UT3KRHv7lEc2tueRHXlzyoH3dddddRRuQH3nH64EHHljrftLm7+K0J8/TUV9aQGdrpda+TwlMJ6Cj3WSbabYL/tqpNu7STrPdaoMuc3DaoXu2iaSlbXDaEL+kzU97QV/frO2hrd3pV4TzHj3zfJPn+sTPPt4z+sJrs+J/85vfrL/5N50wyUO2b32hvmS//fabGDuF4YTPK/3S3x3/KTt344o+UVj0zO3pn8gBv2hx0haGTMSTT/OB5gW90zeLO5n/GnkH/rSAzg4ILaM0Cz79dvSeFUCho7s7AToUdefkU5Ijc9TmehQafwCOb+iEGjK+Qycad2ynqTtsQhNfFyDM7fH7vZ/+ZnnflXeUe3qOqDtrlozdUF7zh48qD1k0rywIsnNC8BUEUgD1q80xWRSAjkkjKXoLYGEIaGsU/6kCOpVvvAe97tgh1DeyMXbFRIcZB8CFGo2T+u2e1QHo/CB23fzBKz9UfrD+sDLct0/Zp/uucuYJveX5v3p6WRxBV24cKTetGimf+sIt5bNfDxBgdXRcsxfEbp7usn7DugCphsq8OaNlv/ljZeH+c8qiQw4oc/adXz7x6evKylXyP1SWLR4rT3vkknLWyQeXQ4Pm3JD1THI6MECKDk/nShm95ZZbyre+9a3yuZgI/OxnP1sNAx0+NzAwUB796EeXxz3uceWhD31o/Z0GxtbyJS1OR5kdqt86XAPVN77xjXLhhReWj370o+WZz3xm+cu//MuyaNGi2uGK69Imc+ASd0tOWAaEPFFEde5Aqle/+tWF8nbaaaeVF77whTUvW6Kzs98ZZDkD7ZVXXlme85znVKX2pS99aTnrrLOqckt+2yqHbeVfumSsPFPWX/jCF8rf/M3fVFDpqU99ann+859fli1bVkmSLyXcvVkHxEVLnVLW8qEeUYKuueaa8vGPf7weBUUJkY9mXlJB31ae23CtBFoJgGA6YGxtTzG6XnBBADovj2/onHpK+dzn4xs61RlzDbTj93HfOFX0PtcVfWzsru0si7jPu31qJdBKoJVAK4E9TwKh3oXLQeL+Y0dKg41sUZ7LGOR3T5zKEB51onjlmg3l9jjhYP1oTBIt2K/ss3csgot3Fvv1Bck42KAD6hjHIm4J263jOoAOG7ED6IROv9YOnaPiyLWpf0NHGnROk+7sA/oqe8Fkj4v9YFHbj370o/Ltb3+7XHXVVeXLX/5yXeRExzXZtXTp0rrQ6Rd+4RfKwMBAXXhlEho9LvV5tOnKnDT50+HJin1FN77sssuq3QWMYZcJf8wxx5THPvax5fTTTy/HHXdcOeSQQyYmwPCNDtAHLbJnS7HfXvOa15T//d//rZNsNdHN/BH36Njx9IhHPKLaRPT7k046qU4Yop36OXlsyWW5Z57wzhaodSHyjtevfvWrVS85/PDDy6/92q8VRxaxA1I2bAXP+XtL6W3Lu+kGdNQN+WHvyJ/faYexhUwK3nTTTdWWZbvJr8lCDoA1EPWDrNlSJg0tbluwYEEtP/JLu4us0eeXgBA/5aGuqIfqyhe/+MW6UI4fnpQd2/xhD3tYTefggw+u9iIes66YCM6yZA9/5jOfKW9605vK//3f/21VpOr0Qx7ykFoXfZ9RfTz++ONrXVd26Cq7pL85gvKVjgxvvPHG2q7UV7ai9sapJ+bdnvCEJ5STTz652sHyQk6ZTpNW0tyRewvo7IjU9sw40wnoaDcJvHrWHtRpIM61115bvvSlL9Vj3a6//vqyfPny2r8bdx70oAfVNmFcODUW7h100EG1D9APaBv6KZe26ELTlf0y8MV36Cy0lYY+BRgDVBVe2zMmPOYxj6njwhFHHFHnCMVPmuhzfuNXf/RHf/RH5Xvf+14d45ptE0/aLWduyNye/vCEE04oT3ziE8uRRx5Zx1LzkNn3ZXhxpCVe5oWfcPyBUe95z3vKu9/97iqfpzzlKXXnrjk+ThhhXRy+jMHGPs/vfe97yzve8Y6ah2c/+9nlD//wD+sYWwNP8U8L6ExBgM0KNAUyNWoWvsqA7u4G6FDSO1COwXUTgE4AIZpfqBaxQycawshw6e/rKWsCHLl9pAPovP8z95RVs44pQxvXl8O6vlde/YJHlhMP2qvsFxNDs0NmPWMxuGtENYmgFjQ76XaAnGhhVemPJKqM7xvmaxFs9x/xN7rCIOiJmaq+AFX68QHQMZElT5Hm2q7+cnPs0Hnh+R8tN48dVVYMz45v5txVHveQWeX3n3FS6dowWi676vvl0q/cUm5bOycMkb3LxpHZwWMom92xGmZkddm7d005eMFYefyjBkLJiWPbYqXZt29aW972nsvK2Kw4hi6yuHThUHnq6QeVXzjl0DIQi0pmGqCjXhtAdGx2x/z7v/97BTvsCtHhZYdKkdSR5sDj2Y6RZzzjGeXXf/3XC8VRZ7sl1+xU0ZW2Nqaj5wBIb3nLW8oll1xSQQwABqQ9FWbhXZz0t8eJJw+UbobO+973vqr4vuhFL6qD1vbQ2hlh8Wu1AaPguc99bpUvIOrxj398HVSVw3Q5ZZGDpGe0s3wMzIC1z8ek8K/8yq+Uc845pxqUjEbKvXDZT6ovykp58nMxItQv8U0wM7D+9V//tSoJDBlOXsVzR2Nr9Wi68t3SaSWwO0jAsNYZVTu50Y4uuOD82t5ODaP76kmATi6AjmgxJk6SQIzbY3EZo1vXSqCVQCuBVgKtBEKb26IQRmLMiWmjqvMZf0Zi4V5vLJqLEaasXbe23Hnv6vLx//tcuebbPywnnfqw8vDTTiqHHzK/7BVozqwgbb29hQUAnq6w3brrGCRJv91jQioejErr1m0oxxx1TJ2Muuiii6Z05BrKld/QY+mdbJTUY01smexmE/3P//xPtR/ou+mEddGd6bwuE2s///M/X/V0k+tWT3PSoA+zQTKOeCbULXCiE5v8zxXSwtGdORPw4oh/1FFH1UVdv/zLv1wn1pu6Mt6SJ6uVTUqxH+jqW3L4Zv+hTw83UfjiF7+45oP9hXfO+y25lCN6nPBpR3iHpwtjwd473/nO8shHPrLyZ7Iw5U4eKZstpbM976YT0Gnmh5zwqozYS04xYLcCBXxTQ/m5mnYVGWQ9kWcyAAIC60yWKmdOOGmphxmHv4WWH/vYx6rtaqIXfe8TqJEWmyzTBcr94i/+Yi1HoKA0hXdlubibhGVrq+tbc/KtrnAmjk2YvuAFLyg/93M/N2HDebe1uiIM+ZkEvvTSS+u3sPCRICYe5cPqfZPcTnSwmNFkKxAQD+Qjz65tSU+aW3ItoLMl6bTvmhKYTkAHXX20fkT7Mg8H2NRXAvmzH9BWXZxwnHpvR8nAwEAFyJ/+9KfXRQZAEU4by7aRbd/dPBhAGJCh3QFE+Ouf8KJN5dgiPnAHCG1x8YMf/OAalr826i6sePgVRh6Sxybf6HLS4qQnnL5PX/isZz2rLhQHWHHCoe/SzwnrOeOjJ4+u1772tVVmNwY4jMff+q3fqgvDLa5IJ66w2XfqR9ACBv393/99lYs+xrxg8pBxd/TeAjo7KrmIlwU9BRITURU+pwKguzsBOuN7cyaU5LoiN8AOKnPgr3WHTqgTsVY3FPWYMYq19jH5E6siQibr4/sztyWgc2Vske15UByXNlQOGftuee2LHltOXjyv7NsVE7OxK6drNJQ7M05kWcEcu3PisRoIHVAnFl/R18MI6ExMkfmOOruOYkoqQBt5ceRbfOQyyq4njkZjcODBmzVds8qPYofOi9/wP+XrKxeVtX0HxneARsrhB3SVYw9fUG6NVTar1o6Vu9b0lw0jocDEd4N64gi3WWPryn6zNpQHHTSrnH7s4nLi0v5y6AGzyuw5feWu0L+v+P6q8vZ/u7ys6zqkHjF31AFD5ZcftaQ89dTDy8GR/JzgZWe47PSyPWRHKu30c3ep31af/fM//3P59Kc/XVcZQcuh5nbhQP51pAYWIMN3v/vdOhgwFnTElLnnPe95dVWXgUQHrsPUWaLtt4672Z4oaRRCfOUgZWDRqRrMdO46aMcMCJN8uuMFXS5p5rP36bxrhvNMYfR9if/4j/+oebNDh0Kd4fBtcGryhXd0E/hq0k2+cvCTNr8mH/zIzoDNP+N7lhcuwzfzY9XVFVdcUUEz4BlA5MlPfnIdaIQTB9/449KPv8tv+Wgqvjm4JmiTYSqB+JNxU+Z2TZ133nl1oFYmwB28NNMVJ53n5Ee6wrns9MG/Af9DH/pQVcoZi9LHk3jJUzN++qPv2YWeOx6zbLyXXuYn+c+615SDMOK7u9Bz5ybfveOSXv3R/mklMIMkYFeqFjg4FH1BnF1jAcUFr3t9ednL48i1k0+phnqsNajOzWXIzef6IggYpnPsNI62rpVAK4FWAq0EWglsWgL3G0E6QYwj8dT5Rk7odqFn0cHuuHdt+dil15RPXfXVmI2aXfbfb59y/DFLyyknHFOOGlhQFuwVxyhFxFgrV/p6YiEeUy3sTTangYp6hu5o0NuwfmM5+qhlMWm0vE7gmDBJ3ZCelvph6neb5r3jK2zqf/hMPd6kkJMCPvzhD9cTCtgydgmceeaZZWBgoO4qkRabAPADrGBTWAiHhl0SFmKdccYZVcdn76DB4ZWdYRcC+myeu+++uwIp6JuwtgsnF0xJg831yU9+su5iENcuCQvpfvVXf3VCN8WPPJv4MuH/p3/6pxVcsFsD7xbdpY7cyT25dsI7csuCuq985SvVDxjwkpe8pIIObLBtdZm3lH3Stwr8P//zP+sqaHllW1rJTU7kJZ5ySD1bvOlw0wnopJ2CN7zm5KKy+bd/+7cK+tmdY4I16wrbWTmKY7eX3TrKhixuuOGGasvlRCYwMOtUlj0ZKDP1CrBoISIbXPmQobs01C31QhpW2X/kIx+pcdhUVtmriwARYbisK8IDcl7xildUG419+bM/+7PV7ha2WQ6e1WO7x6zmd2fvA6YAQiZRs47XRLbwhyzZt3h95StfWXeUsSuBoexxi/2kBfD57//+73rh9Zd+6ZfqKRHSwl/az1tIaptftYDONotqjw84nYBO9g2Eqk8wJqiL+gpArB04dqcNxLjTBGq0n8svv7zOEYln8YC5uN/93d+tu17QzTasvXPGBmDLf/3Xf1UQVX+FrlN3tGPpieeyG8iuIPN85m300XblmevTRqWnHXPaofZq96rTdYDP+psMJ339vPD6TvM2FjPoQ9A2/2gu0YLlP/uzP6sLI4QRVrroi4uO3xweOb/1kW94wxsqQPWDH/yg9rnmLp0uA3TWL2Vc4cVFO/vxf/mXfylvfetba59kXLWgwc7R6XAtoDMFKWZhT4HERNSsMFmpdldAR4YddVaPQwu12bZ5k0RNQKe/K5DRaAAmhtbH+9vGj1z7tyvuLCt7lpa+saGyZPQ7Aeg8PgCd+QHoBJoa4bsCCBmLI8pydZWt9OPNsaOlRzq6Gn4mk2wEmpKLiSj/wDaRatgCg+P3OEMxnqIZx79S1o7NroDOOW/9v/KNNUvKPeWAOEpttOw1a7Tsvdesctftd1Q59ITxUYZji3VI44C5XeWIA2eVhxy2Vzn5iN5yzAF7lQMDCJ8TQNBIyOSWDT3l4u+tKG/996vK6nJ4BXSW7b+xPP3Ri8tTTju8HBR5s2tpZ7isu9ke8re008+zTlinDqm3+ofx8DM/8zMVjTeI2CauM9UhagfeA0UomFYkWY1kdZK2YXWATjSRbR2o8OJn+jplg0wq8Tl5jyeGkR0hjjiwFd0KN+GaYfCcLmniKwcuYQ10VvZ4lj/hkn9KoTQMavi0Mkoek1YqiSmjbPto8Ut/ecs4TX9+6Y/PDG/AkRcu36PtyjhoNt9TZg3YdkGRx1//9V/XQZKy20xTPHS49J/MX9JtvseTfGW6GR8/wikrPAB1rOCwSsMKQeU5uVxyoOYvvjIgc2HJ1DZ6Sj/jh1HyqEc9qioEKYvkzyoPaecAnPnyPvPU9Et/fniQnvjSdGfQcNLJeJmm9/zEabp8zw9Nv6UtfOtaCcw0CdSxM5r/sGNNjXlRX1//+teXc897RVVmP/OZKyfG2Hhdn7srYBNha5TxviNGx+GIawfrlMfhmSaklp9WAq0EWgm0EthOCRggtuQ6OmuGqCpSRIkhpF5+A2GW37OufPh/v1T++/KvlnXDcQB22IEL9p5TDlu8sBx1+KKy7IhD6n3RgrmlP+KiGppcx16LxYIW4vX0dIzDNWvWlmOPeXBMON1eJ6VMwNDNXMY+Op3n1BeTt03dmzqhyS56J3uGLWRS7cbx1b5sG0dLTT52RnpsHPoxUOf9739/3XEjbbtofud3fqcefUUfpWunQ9fE3T/+4z/WeHZSmEw3YQZ4MVmW9gta6Ju0M7kG2AEKAH7++I//uE74mXySBkdnZePYTU/vNrFmtTL+Uy7CeU5Hzze5ZjGdBVf09z/4gz8ov/d7v1ePwhFOXrfk0GNT0KeF9RtdoIoJRHyTET7ZiybNmoBO6u/NMtlSetvybjoBneRLuvIgn2xnYI6ylFeTr477YbsuXbq01ifh035k37CfAWhWhV988cX16CGAS9p50snw4jo+zw4ugI6V9eoV+TmqyLFFJnnJW/3l0j53hJqdZQC0M888swIh7HP1STllHECe0x+coqC+/uZv/matg2hlmTfrCvp4Up74x6tdOiaS2aYZR/zNOfRM+lpE+rd/+7c1L47gM6EL2CFbdPFpUlm7AoLJq7psFwD7vSmnzaW1rf4toLOtkmrDTSegQ5ravD5dG9f/6u8Bq/qSbOfGBPMr2o7+x7hjrgyIAvTUjoXRNoyJdrVpiy59q8vY9oEPfKDOwWjHuUvQWAIYThBDOubKgMfGEuOOtm6M0Ifou92ll2ngR3+rHQOD9Adnn312nTeSvybv2q08ZF+i7emr0APoZF+YeRVeOvqu7If99t5d3/fGN76x9qkAHX7yDywHVls8bGwXnkOPIxPPAJ2/+7u/qyATAMa4mrKoAafwpwV0piC8LLApkJiIqlJwKhC6uxOgU3fLRPYALTFsx8ROTOpYDVUnhBLQCcUFMBJLdzuAjsYTK6SagM6VAej0DcTulcGyZOTb5TUvilUjBwF0NgbIg6YOKM5OjDSsAAa2xGNV1cmWq9/NobAHWnTfBzE777b3r+ZaAZ146Oj/nQ+DdcwDgA7YKLbtj/WXHw2OlT9788XluxsPK3cFoLNxJAyN2PfPcKBIzOqNI+aG7y2L53eXowKkWnbwvLLsoNnlqIVzyqH7lThWLoCJ+EZPTxgnQ7395aYN/eUT168qb/mPzwagc0QcUzdSTjhgXXnmoxaVs047rOwfVsqs8Q5le/O1I+Gz/jbjZvvwzrMBgVJFudS5GUSsgoFqA0WE458dadLU2es4gTqOSfPeQOJyri7a4rlTzjxnmtm5u/MDuogvXNPxS5fpioOWTtg94xgcvDOBT2mG9kubv7iujJd5cefHoSM+10wXDRe/pCFM0vRuskPHJUzyJ52Mo26J5x2/dPmc4RgImwN00M+0m/w1/Q2w5IAefy7TEAcfBlnv5I+f5xw8xU+5iJdyyTAGUWFd4pJ15inLFH3p2GkE0KEQGDzPOOOMOmBmXvGGLjm5K0fvkifvk6/knV/ynfx5x6W8xeG8z7Ju5kN4PHIZ17PwHF64/F1/tH9aCcwoCXTabR1foz6rq+fXb+icW06NfvzKK69QuaOeR39T/0WYuqxB3Y4r6rjaPhYERmPhhit6vBmVw5aZVgKtBFoJtBLY2RIIfWoc/I+HzSROT7tPRxqrCwvoZhE+xqLROHrhx3evLR+45MvlI1d9K46mjm/V2H3Ddgq7cb95/eWIQxaVY49YUo4eWFSOOHRJ2W/vuSUOPajfZrVLJyzSOmbZtTO4YWM55ujj6w6d5pFrdDVjHz3ORc/bFr0tw6fOaKL6Xe96V520NplmgptdRJdOfTnTSv0y9USTa2wpk+m+kfL7v//71Z5yGgH6wlu49qlPfaqmYbEUXRhwYoeGCXE6NJ7QdM806NFsLvyZlAMKmfBzPAwAgc4sPD0c+GOHDb3bUcn/7//9vwoWkUfKKAsz9WEgjlMSTGzh36rtv/qrv6ogBf63Jktpp44NeDBhjx6QyM4f9oSdJ/JwZgAMuxqgQ15ZLspGeQAZ7LDyLQoLIQEzJkfVlbSdNlVXyMliyLe97W31+xUWTwJTyMXEY9pS6JrstAjO93nsylFXlLcJR3WjKfesK2Rt8RygCTjpKD92vWP4AIZZluw0E8GOIQf+ObHCd1It3ttUXUFffkzEsv0Bko4KVIfRcLKHNpL0s45NvuPv61//ejn33HNrXbObzMSnBYPqo/yj45mc7SJSL6WlLf7FX/xFTSvbymT6O/K7BXR2RGp7ZpzpBnTsVtFWL4xj1vTrjqIEXBoT8pSaHJ+0Cc/arn4G+KN9GHf0Kfofp6HoI/S32qw2ZNwBzAA+gEd2wwFO7OBzLFn2adqUtqcNcuZ5ANcAHQu/gfKOJTs7wBrjY447whnPLH4A6OjfLQrQl+AXH9l/SCsd0Mixi2QKPMKT8Ure04nHyXvG1cfo+9ybgI65SXOX5EI+FjYYA4FF4uclHlp+mwN985vffD9AR/jpcC2gMwUpKuDpcjkoKXR0dztAh6ACnOm4kFscKRZ/ooHEoB2Vve7QiXyDQfrDrysUdYCLHTrLc4fOVXeUFf0DoXhvLEuGv1NeDdBZBNDZUFdYVUAnnqz8zZK53115BZjTHeDHnJ44QokNMM7RjtzQHo2JKdP09ds99dC4KL84NK7mJNIyibU+fv84jlzzDZ1rNx5aVvcfUsZ6QmmNnUbDwxujk+or+87ZWI7YZ205MXbknLR0YTl68dxyUBxzu3dQmBt0Zg2vKz0RtisMl8HeOeXGwTnlv69bW978oc/HkW5Hxg6l4XLi/qvLsx59QDnr1EPKguiTfM9nZ7qsw9LMtpF+BgSIOsXftkerY3TAOnjKovA6u3TZkSYtv3XAtjVS7oBADBhKp45UfB0xxc2WSgYOsCeVObtkoOj8ndus07fzh78jB+ziMLDkQIZvNA1OjiuwygkghZ70KKpLly4tS5YsqVu50fIsTQh9DlA+AMfgka5Va1YmyCc6AAfbwCmWxx57bFXKrWpwZIC0pI0W/uyawT8em7KSDtnIO95tnZUnBg6jCVBjELS6Cn/SN6CiI495bQ3QkY40Us7NcjGoWdlkgLUDycArv9LNcHiTJl6BYMqSzPJsZPHQUTfkXX7J0pECeGS0ic/h1SBOGSEvioRwtvC6O3LtZS97Wa0HVltRWAy6Wb/kAR/KgOKBBnrk5R0a+KEceE5H+SAHd05YDt8MIHTQozDh2aouK8BcaTzzT5fxm3zxa4bJsO29lcADL4E64kXFt2QigOQYl6yIvuB1bygvP/cV5ZRQiq+88qoY+6yQSgB5HMgJvxov4hidx8bqSB9Z0kd0FOgHPn8tB60EWgm0EmglsPMlYGyJa6uAToSKoaQrdGgLBsbGx6Aev+MaiRMObrpzTfnX//1K+cjV14attFdn981oHMk7GOf1j24se8W2nP3iZISDD9ivnLDsiHLkYQeWgUMOLAsrsBN2IT5ijBsbiZXJ6zeU4449riwPnboJ6KTuRo+kr+W1JbkJIzwd0jOd0dEtJurpmybVnOufpw5siqZ0XUnHBLpdGybRTU6Jzz6RBr0S6AMwEs6OH5PT9OGcuJMGevTz1NfF5Uxc0dPx9w//8A9V/7Zz/2lPe1rV78VLOwYYA9BxLBvQxwRZk1f0pJV3/NPfL4xJRZNb7AU6u4m/7dl5gVc2FuAJMGTy3+Si9NlseLcyfFcDdMhKmeRlktNxYVaWn3jiidX2deRRc9V6FW7jT8o/aZggNZGrfqknZM3+YmeyaUx0vv3tb682mN1byjG/O5R1Ubmhm3Zo1mX2PfsvdxCxm6xWB4iwvcRhJwFy7NAxKWxlOlBnYGBgs3VFHZYGu149BjaxDQEuJpPNHWS9amT9fo/sRce2qbtsY7t0yI5tja+M75lj75uIttOLrE3+5rc82MAZ/n6JbOePFtDZToHtwcGnG9AxxwLc1V8fffTRdR7OsY3GDU6b02doD1nftW/jg3fGLbv4HPtpbkM/4ThGbdH7BFv0NxYDmG+zwNYcm3FH+9GPuHJOR3rp9EeAHMDHP/3TP9Wx8U/+5E/qST7GSfGNO+bO7CAERP/5n/95BWbMy6GLD7xzaKefO9qO8zde2OVox5/dm5k/+RbfJTwnzewrEtCRP32II0n1K/oYc18XxAJHc1fkoV8VN/OMJj3CwnTzRLlDpwV0qpgf2D85AEwHFwqcU4HQ3e0AHUt65bHmszO5I7+dI9fi7NZQooc1pPjXAXQoyh1Ax5FrF346lIWrlscOncMiBEDn2gB0nhyAztyyTwV0TDL1xwTO8PayAABAAElEQVQTgChW/iL+Ey5kG2BOd6QzuzsQXCZBZwz/iZDb5BHZkY6uqO72CZAq1O34Z5KKwQHcscuor9wyPFZe9NoPle+uW1w2zD0swkf6w6vL7NiZc+D+cRzXASPljOMPKMcuml0WxXGK8+KQ5/7gLbrQMjt4nj2yOngNQyAmwgZ75pYfAnSuXxeAzpfL6h6AzlA5eeGq8uxHLSg/f9rBFdDpi3zuDJftQGfF+e3K3/x0upRrSqlOTifq/EvKWcbnT3nLjlib8NtlJZGO2TZR37sx+Q65t9JoYCBAvvHO1/E/Vg/oqH1YjdFgUAHymKBn9IhH8XeOpUHNoAAo0jlnB44nIAKggrFgEKSwigcUcVa0AYpiaGDTuRsUrDgyuKGjw0ZX+sKmgiwfDLB3v/vd9bgiO43wID0rE6xsAPYYRMmHcXLmmWdW5ZpRRi450JIt+Vh5II4VUPg02Bm4KNEGCzIyyFDU9S3o5Eo49LYE6ODXlYOvNFNOnoEYvodk0DV4M56kYfAWTtk06wNDy6BGLsrEyikAndV0BloGGqORss844wyi8knZtnLKajwrRDzbGm8gBe6Rs23/jERykAbQkBEjn/jAE7kAGMkLAKR+qKMcgI18nMnKGPSbDMVFQ3zPLuCTuHhBR30xuFMOAHHkbTWd+rJ06dKJbzlJJ+mh6Uq/+tD+aSUw4yQQ9d+ihVhQEUuhy0i0A98teMMb31xe8cpXl5NPObV85rOfjzE46natzp3xD8BjpDQe1uNWfXMuxrGeWOgQpx1n4BmX25ahVgKtBFoJtBLYeRLoqEFpt3R0opp6jDPpRmIXDvCmo1fGGBMDDjvSGd2jIwEU3L6qvP+yOHrr6uviuOtZMdYEWNEbo03M73SFnVSGNsQVpzrEWLbPXv3l8CUHlBOPP7osOzIWPR24MHbs7FXm9ge9SGdVrLw9Jb6hcftttwb48N46AYMPulvem/pb9dzCH7ojPRbv9HxACNAkv9eRtgOawjQdP+mm/sleouezTUyCOZZGfGHYBxZO+TaPXR3SMIlvBbGFYUkj7YiMIz12h7TQ90yvZceYjD/77LMn9HJxpWvBmgk1E1rsK3o7vTd5ZTuky3zJm8Vn7DnH3liUdd5559UjdCw825pDO+latEXPR88kP7uSrWMy0OQ922JXA3TkX/6UE1vFIkY7S9iIVpSbCLRDhRzI0uWZI2Mu5e/OdmOjsHnYS+qKBXDeKWd02c1sUrYW+hZcson95ibXFXHVD2mjzyYHOL3pTW+qtig+2fm5iFFYPKhLjlxTJupKzgGgl2UqPfnINNVf/PkmLYAIwGgSGn9bc/KmnQBR5MXxTPKeAKY0pJ1tgj0LaDVprR6pQyZtxZVP+Z2qawGdqUpwz4k/nYCOOgwoMfelXRgTtFN9rr6c0x9oe9n/+K3OG7c4bcXcip2Q2qK+fmBgoLYN79D9xCc+Uc4///y628YcnYUEwBg0hUHPpc25tEHvcmx0N8djPsj8ip2rv/3bv12BVe3W2OYoRvNmFtKib+5NX4L3Jl2/pZm8m7Oxq8i3v/Sh4pkrzPkqtM2N4QkdLmm4kyHA98JYjGCOxy4hMtI3mdvSr+k/zYXhNfsweRLfqTEANf2l4+p8340cp8NJF+jtjj/pyUPKmhz4uabipho/0475gPGSSZ8H8D6drKSACB/d3RbQifIywWNyh9sUoNNnh06svDJsdr6hU8p7L/56ef8Vtwagc0gcr+bItesC0DmrnHzQnAB07IGJzgaYE+uxugJAMfUETJFaVF9JhZMm0CiU5VFpTHFgDjRoNK7OR51DaR0NxSeS7OqaFX9MVEVnFR7ru/sD0Cnlr97yX+XbKxeWtV0Ly/D6lWX/3lXloSccUh72kCPLI46Jj3fGwv/5EaMngJvh2HEzGkBWb++sALgCqhpbV7qGB8MgiW3BXbFDZ+Ps8rHr15c3f/hrZVXvEaV3ZLCctHBVec6j9osj15bsVEAnOz2dhnrc/F2lHnVa52sQ0ckAKGyZpmjnmbzCcTrL3AaOls6Qy05J567ztsLH6h/GAPBGvOxodZg6dgMIY0d70lkDLZxzeXYYJQAV/Niib1CjLOucdczSApBQPil2Bi4T+jrnZh4pd44hQJciq81SYK3qMTgZGAxq+AE0UF7x6p3Bk8EBgELDCjW8WokkLbQNAAZHwJCVB7ZyWsWXinz2GQY0xyowbNAwOJBhvncnG9tCGU4UWh3+0qXxPapIx/stATrk5xIuy9bdb+WDR8aessCrARJolqslyC1piKfsrASj1MsTkM9qBsaGlRzywMC1m0s5cuLbuuvMV6vM7GKST7uNGDxWbOAHsDMQygVlgBIvPFBG+aMhfeHJ2aB6+eWX13gGcGUrPy7l7zcgzbEDyi0VHYaJ8MA9q7go5+o3+la5kDF+yNwdn8Ch5z3vedUwUOfTiYNvVzp+rWslMPMkEPUywJzhwVWl1w6cWBQxGmP169/wpvLy815ZTnjIKeXSq64Ovxj+ou3EX8NhXJ2/HVCnU7eNwUGhXvfV/JmX45ajVgKtBFoJtBLYORK4z1bbVHqdkWJ4uHOkMP3M2FJ1qGotmgSPFbh3rSkfvOyr5aOf/W5ZM2JXeBzBEmF7e2ISKUjYgdNrJV/YTINrVwZ4Ezpf2G6HHrR/Of20E8upD3lQWXLAvACB4uPGIxvKqTGpu/yWm8t7Y0KZ3lzTHdfRpN38vSmu00/Y1O3ohiao6f/0QTqz7wHQFVMnpxOyAdgL0qCXutNh+QuX9IT1zK5Amw5q8RMbwwQPvdTkmMVj6HBNvbPJW1MXlbbJdLYSftlseTQamvgxicXuAfwAdDwDljKN+jD+J/n10654i+HYc2yE8wLQEZ/d0AzXjJ/PmVf6NduDbWMRlpMOyJAdQr+3kyO/w7CrfkPHini7U3Llt3KUl8krwJW9upF1RTn6rQzVlXxHhp6Fd6l/FqKZkDQRC+zIFfFokbV7Or+zfPK9d2ix3dh2gES7e9j5ykV9FMcCOjaeRXsmPk0mW9THNeud35mGuzpo0SR7HL8AHfZ27mYTfnNOW3HhQb6lQyaTHftOOHMM0rFIkd0nDxb1qaPT5VpAZ7okufvTmS5ARzsCZmjn5kXMrTjlxjfVEsAgzRxvhNceuKz7/LLv8KxfEUZ8zjvjjrEC6GG3pfTsBtRu9Rfan7icuyv9sw9A0ykzxgR9iWMiAczavPkxczhAJeC99Mw96UvkCS18yEeOmc30yMDckl2rdigZrwA6uWjXmCK/4qLDJc/uxld5M68HCCNDO/gsIjbWmkc0n2heL8Fs6esfxRdGHwnQMR4DdMxPTYdrAZ0pSDEryRRITETNiqwCobu7AjqdZrwNgE60Ix9TXh8N4LZ4ngB0emPSPY4qO3j0hviGzpMD0NkrjlwD6PiYpY4iFA9gSlXwIyLFvU4odUTNJKhGw+h0nN0fnVHQH40Vx/UIudjO7xtAXQG4lG6gUjTiuNYGP7cGG3/6ug+WL90yt4z07V+W7N1VHn/i/PLcs44rCwPImTW8IYCpoTK3h7EB7orVT3HFl0Mqnb7YlWTHTc9IdCilPwCdWeVj1wag858B6PQPVEDn5AUry3MesSAAnc6Razt7h06zDmcHrT7ryGz91wlSGHXCEPKBgYHaYarvwusoARGegSGpiOpYPVO4TKKjY2UXwEZnrBPjgDTO2WXEWDUG+IDgO2uYUgl4yEl5gwEFUacOJbfd3+BjIMEvcAEtKD4+ARR2gKApHTt7DFoAIfyJBygB2gAV/LZTBKBj8KQYemdin0wMKvjUsRucDIxWl8mLO17IgAIsHSDI0qVL6y4fxxrkAGzwwYNVeFb8MaQYSHaFUPjJzcCIX4CPbaaOfjMA6mMAItzWAB1h5MmVgx3ayk7+ydYgCWwBtBlc5UNZCqdshXMnj3e+850VNGE4AEw4O4wo+wxDwJtBEdBFNvizq8cFwCJPA+kZZ5xRy5Tfxz/+8frBPke5KSNpyTOZM/Lwwl9dJC87xtQLK0ikp5zlxw4bCrfVanbtANHwyFhUx11oCcMgBxwZ0JWdAZqjHEjHoG+HF158iNa2//wQZw0Yf6TJZfvJ39Wz/dNKYMZIIOppjL2DG1eW/tmzYoyKCacYj86/4G/LK1/9unLKIx9TPvTRj5d5c3tj0QH4pnNhP0fh8K7OlFIMezG6GY9b10qglUArgVYCrQS2LgHqkjEj1LA6rng2vozPvZTbV46WD13ypfKxK74UpxnE0dZhC44FkjMcx7END1n4FzprRO7rdRpE2FqD68rcvgB8YlEgAGdh7NB58HHHlEeffko56rA55eEnnFRuu+n75b3vflfV8VJPc6fL0wW3RWejB2d4k/R2KvjANHvBZBX9kG5twRCdl62C9mSHDl06nbTp5fybE2v0UqcZAE2sorbTwLdq2BXoSiPzgBY/dNDOySf8sFUcpQXIQd8EN7vKsVrSNNnu9AELtNgmwCmL2jh5QA+P8u7yLJ6JOPoxO8iuIbuHzjrrrPq8LfLMckCTy7ygbbIMmEPPtzt+V9uhoxw4eWPPKEeLBp0I4ds08qS8lFPWlZRHjRh/yNDVrEN+i8MpW04abC52I3vTRCR72CQq21QZNsOKIy1y9q5ZX3MnDbvIJCV7zWJG9pd0gW+5aM9EJjuRPYSeepJ1Be3k37O6jBb70vHhABc2IBt3Wxz66LEj5cWV9V3+M38W8tntBUATlj2nPpPxdE264rcFdLal1NowJPCqV72qnmJiPsUiY3VZnc06rV57dm3JiWMhrHkV7dw8jb5EO9LGtAfzSeho165MQ9s1h5F9QfYpaCYAknwkqGvuDJiufwe0CKt9Swu9XBCAZzTQTLru5pTMfWnr2rl2aPG1sSLncczdmd8yj+Q9cBgf4qc8/HZxeDCnY7xyxCRg3Lwc8Fkc+cOjcH67cykHd3IwB2mnk75LH2a3YC42B1abf3Ok5JmxIFjfwck3Z8zLHTr6F2WwLcB0jbyVPy2gsxUBbel1VpIthdnWd1n5VCB09zxAJyaMNcRQv+sOnWhHTUDnPRd/M3boxJFrvYfHDpbRsmT0e+U1LzyjnLx4XtmvK7bChjJesRvLg637rd/rqWp+yNM+mSBYGzW/SKU7AJ0aZltL6CfDoVQBnXroWnSIseLLrp/u7vimS9CnksXm/hJf1Cg3xZFrL3/HxeX6exeXdXFc2vyRO8sTjusrf/TMh5aDQ6/aK1Y+940MBSCENyufu2vc9XiPTmRO6PXUr+74DeT54fq+8rHr4si1//pKWR27lvpHNpZT911VnvvIA+MbOoeXfULf31mATrA14dRddVinqE5TTBkQtuMzBByRpQOzfTI7X3EoVDpKnV8qdfyzI/Wsg6U8On9SR8+ho0MWnwL2jne8o3a0FDO7PCjytj5mB28g8WyyHZhiFY7JfIMGhc3A4rxiRhBaACZnAfvmDwApO3l5AkAkMGDwATDo3AEm+MYPxZjydkYADwYRijgepJODldVkDC15YdBYSSQdeQZgAZ2EdYSaFWx2tKSc0iiShkGPbBmGOfDig1ythrvssssqACGOwcY2VrLh8Hr55ZdX+gZfwANeAEv4yLIQFk1O2brw6m7gVjZAIgCIlR9WZRjIlCmeDKa25ANfgE+MRMYfHtUNsrYjSlzvcvUW3oFjgDiyQt/OG3JIfhieAENAHRr4AuicEbJnUAiXK72s8JJPRgx6jATvlQ1eGTJWhqgjypriANhBR5qMLOWAL/nAj0Fdfjl5lScfC1U2QCxyOPvss2s9IVdhknfy5Sb/rp7tn1YCM0ICnfE0Wr7TaMq6DTEx0Ndf/u6t/1je/LZ3laOOP6U89PTHljvuXlG6+ztjoB08oRrH+BsGdcPeqEeU8o3xLN7MiNxhYuZwMmNE0jKyBQk0qvQWQrWvWgm0EtiqBMKAi2mpiWChdW6iQ44QoddxVSeNe+rKABu62Zr1G8uK+PbN2hikBmPQ8Z3TUu09i+NM9MTEcfzutl0ndvt0j/pWzqpYLDdU5s3qCXCnJ76z01sOXDC/LF08v7z11X9VViy/sfzTO/++6oF0tNTT6HTS3x5Hx8yjWYAgJpXs3s5FWJvStfnlJS36NifttLWa7/mbpGfX0OstagIgOcI4J6vwLo74nN/k55559J59YrEY/ZedY0Ke7WAyiz1m8Rwwho1nsR57DBjApZykKd90XryxN0xO2nVCBuY7LDIDPLHlkqdKZDN/0E59XZCcO/FMfzcpb3W4EyF2NUBHHji2h9MG2EIWGZoAZCeyOdiJTZeyznqQd3XFOzJNueY78fk50o3txT5yhBB5WeyWtjw5o6HsMq6ybNZ/YQGVJnJNGkvXwj32NXvHJKwyN0GtzJuTsPhI/tGUnnrAjw3MrmOL2UmUgJP6JwyetuaSZ+GET6CKfZ/1hhzMC1hp7+hzu3LY006R4PDVtNmq5w7+aQGdHRTcHhhtugAd9dfJJBYeAx+AI+aBLEbNdk682orfwnPZZ/PjtB/vmmNQtgvt1QJjbVVbN+7Y3WluSlsVjss212zn4qKZfY07ENuORO3V4m3jpF0xxh19iHkZc0ry4f3AwMD9+iR8atfJs/5J2zYXaZ7PmGbezhxUpo8346B4mWfvyMXdvA5AxzyT3aTm9cxXWcCt7/ONMPzlYnJjWp6YI/6FcUoRmRhXLTYHbLeATq0WD+wfBTxdTkFzWdF3f0BHZ0GBDyU78j4UyjxAh0LfOXLNAB9ntIYCbodOBXSuvKOs6F0aO3RGy+LR7weg86jYoTMvduiMlPjCSoAdlWScdAYWoviTqA6qA5IxEGqJRXpdocxLzf+puOj2YsLK93ti2io6AvkpXbPrUTSB4ZQNca2MNL4fDy95y/+UmzccVTaO7F32Hllennh8KS9+xonloNjhs0/3xvimTnBUdxgF2BSd5mDkfx3eg9++oAHI8nWg4TBIfgDQiW/ovOXD11RApy8AndP2W1V+45EHlZ8/dSDoRUc8jfVzazJq1l91ODtunR8jABpOYbwxvmljNRqln0LG6XS1JZ1udqKes33lM7rSsXMGkKKT1yFC5imM3kvDajIT64wOHbZ3+DCgZKdshUIeuUaBNTlvVwX6dsMAc9wpc86HznOdvcePu1VgBgegDQPN4ALQoWzLhw7bTiS7iawAMOAAIbgEpvBgpQKZNI8pM6Ck0pngExmeccYZ1UixlZOjgFspcHkYbc75xWtuO8284lV6VjkxxhheZGZgz10nWwN0pEW+WT5+c1lG7sALhp2j0QBPQI4E7fBggLZCC6CD7zyewTnI3lM2yNIKDwOkgTxXdtgtQ0lQhmcHKEIZye/iZHlQBvCQKyDwB9BhMKsPZEDJsFJR2VLW8WgXUNZXcfAir8oUiGRXk1VmlAaGqvpqMAdeCYsfZQfIwkvWNaCdPDPEGJcGe7wwMtUnBlmmm3LM9Ju/+bWulcDMkIAxNMagGNdGYlwejfr+hje8rbzr3e8vJz/ysWWkKwzk7tnxPlZixVhmp6nFCSbS6ng7nonOMaXGNkZCHZVnRvZaLloJtBJoJdBK4AGQQIwDYfPc5/I5jJ/GagA6Fv3M1RVjS+qkjmKbM2d2GYz7xtBHR3tj53y1x9hTLKcYi4JOQBgRLya3GYhxHJvv6nTHkWuzu8NuiR2oY7FjxxFsC/eZV444aN/ywXe/MQCdm8o7//7tdUKdzueio9EFPeNpay7D0wktqqKD0+3ZGPRQEz+pD8obl7qtuC5pcZ6bLv0zHpk4hpmuTf+0yMu3Ktlc4nqfrhlXejlRl2FMxKNhJ7sJMTaViTUL1+i6AB2T83Rqejnbjg3UKZ/7gwDCW1FND7dgim7ND2BBh2Yv4Cd5Sh43dyd/riknv9lmu/qRa+QH0FFHACRsG0BLLsTL8skyb8pgU3WFTJv+zfJhJ9lVY1JSObBV2ZjCsEWzvmW5JB11Wboufo6+Aw6xQ9m/yhUIpd7JC/uPjZ6AjnSyTqKddNBir5kvsGjOokYApYlhNqI2w24Ufmuuybs05CnzLm7+9g1Xdp1jtNnk7FP12aQtuzPbespga+lu6X0L6GxJOu27pgSmC9DRr5uv0pdom4BhfXoumpVms/1lG882M/l98ui9S3j9gTTMz9mpYkehRQUWwmYbEi/HuWb/zR+P6HhvXDBXZZ7GYmbzVcbMgYGB2mb1B+b/nKhi/DH3Ji/ac5O+PJmD1L7R820sC4MdjWaOydhosbb+tNkviOc3l/lzx1cCOtLDH5AZ706KsZvSqSzmp8jYvKD8J6gD0LF71BhlR0175FoV8QP/JweK6eBEReFUIHR3J0CnfghZ3iKP1FDgR9dYrBqR4fhromc4fkRTjqf7AJ14LLE5vCyPNvXeT3+jvP+q28uKvqUB3IyUA0e+X179wp8ppwSgs19XnOEYoIoz+SUQuEd1daiXSEwsoWzzjokoPPTESzuApuairILrWHsUZILgmGPcolOosAteQuGPJNaE4fDjSPgv3vTpct2qpWVj98Iyv+ve8rhlI+UFv3xsOax/rIJSZSR2O2AoIkXU+CRQbKnuCfmE8QGi6gnPnjiWLVSo2KHTXz75vbXlzR/8QlnRfXiAQbFDZ/+V5TcefVB5ymlL4/i2nbtDZ3L9TWXTpLbOFGp/3nnnTXTMBhWKnA692YnqiA0K4qdhQaHk+Hu+MDpEyvpkhNt76LgJfbR18Hbp5ECSnTxaAB0T8vjS4QIidLp4odABWii3eAb4aJN4cqUSqWNnmFlZ5kgzIAQFlWHGUW4NxgAmu0AYOoAdsgKgWAkEpLASyIDknFGdvrSEyfxalcQwc0SYFQ8GjKVLl9Y08MigsjvFoGSlAfACj6mACqgcDGjkw5AykJCP1RnJD1CIErupHTpoJF9555eOHwAKb5RVMrBy4RGPeESVmXDkAXyy24gybiA04OdAZ5C1M4giYHWD3TOUaXTJETDGUBTvjDPOqEnLp7SzTKzmsvuH8cr4NHjbXUVB984RFwwX8lD+ABZGAhpc0mN8qH8UE/WNcSM/di15BwC0NR+IRsmwO0c9Ez/rrbrkNz4cFUA2QByr1mxFlq735C9stplme6hMtX9aCcwkCcS42ZkYi2M3gq8Lzn9DKO1vKac9/JHlhS/+o9idE8srYgzOMJY5RCWv425mo9Paxv9OeRxOqu19T5YA3XFnu/ElQjs72Ta9VgK7oQQ648HWMtZp5zEGjUb4GFe66U+ihuHXE/bD3avjWx7fvrF87Qe3lKFu3zNlk9md09mhw1bTU7C1emIxYF9c/Q64HlkfgM7GMn9WdznkoAXl+KOWliMP3q/87rOeXu689eby7nf9U7UVmvzR1Tg6nGtLjj7uotfbMQ/Eoeua8LagK1dKT6ZF37TIia3Cbki9ks6aeqt07TK3Q2Zp2Ab86fnsGCcJmLRyJLJdFxkndc/kmb+08cfle+nTza1kxrdJbhNV+aF4i7NM4JssYzvwdxwbR6fFb6ZJNzaRZXU0vkzas2nYXxZLsQW4pq1WPTbzJ+lOlj1bQ95du+I3dNQTsmKnANNM+jkVQBmeHQvImiBIM+/AN/XErh7P5KMc3fMS3kI+341IGzwXqLHVla/6aMIz5Zt1IYsh/dUV9PI9m9zCQ+XplAwAFPvaxKd6xO62Uwygp5642EFouJo8yrtydEwU25V9ZV4MSKSOZ7ppNyVvm7snz/lefHUTXxbvsU3Zjhxb3jet7GgTj902OX7S2ZH7ngDoNOWVZUtWnrl833xXX8SfZpisvxlncvgMm3F3t7u5D/MZUz1yTVsFjFrUa+4KQAIczsXBykNb0vd4Nl8CeAXQcOScsvbepV2Yv7ILz1Fo6NpV4wQUYwagA/8WVevbc7zM/kJaSdc7v73T/2v/+gvzK+a4gE/mYKSnbwToGDvNfelHLDDIuRz5wF/ybZy56667yo0BEKNl8a0xEc3j4ht50hNe+sknPpJfPHrv3gR0jKc5jyWsMABt85P6bfNg5JyntwhjPsnck3GQ/M394Xs6XHvk2hSkmBVmCiQmomZDyUqxewE6nWwCdOoHk2MaqGe0s2W8zvJE/z4S7wA6/vfFaipzPMJXQCdmjS66+OsB6CwPQOeweAfQ+UF51QseF0euzQ9AZ6jMidgAHUNFbccan4tPKPSUeRNLcShaKP9xxFd8q4bP1BxAx1dyXLGVcAys5Ns3kQYTIhpvJFM2dPWW2yOhP37Dp8o3Vxxe1vUsiuPQVpbjF68rT3/soeXERXPKEfv3l1kBTMWnC8OwEDcihMUxGL+7e2ILeuTB8QA93UNlODqamzfMKp8KQOdvP/D5sqLnyNI1PFhO3P/e8pxHH1gBnYWR7f4qiKnlcHtiZ6eXHV92fs0dOpB2hoxrYGBggrwONTtzbaDZmabCZkDib4eOSXGdNGVRh2p3jd92P1DMfOuGvwEl+ZFYPucOHYMVlJ+SCGTQyTqr1w4d50UDXIAxeMOj9NPxAzbYheOINm0WaKMTlwfKqEl8ABMgBz/unHQS0GHIUHzPPPPMqrR6n7IgQwYTEEIazj0FyixdGsBm8GJgEyZlJF2/xTcgUurxAVRgQAEhKNMGwlxJJ/y27NDB15acNCmq8kVWjD5Kce58ojQrHwq/nUoGMoOpfCgXO4gAOoxXK7CUCSPVgO1ZWQG9yNG54+LkQOyZUwesFCQjK9t8gI5cKR7qHnDN6giDNvDKThk0yCBpuKtrwEO8WFVG6TEwM5gZAEA8qzAAPAxdRmPmw105pFKhDIBljDHKhPornvrGSTvD+02O/FytayUw0yRQ20owpZ2YSDv//AvKy1/28uj3Ti1fuOZzMWJ1XKdF/uTz+Ov21kqglUArgVYCrQQaEjBqNEeOxquwqzpu3M5rvDIWJbBz8x3ryvsvvqZ89DPfiMVzcfRnLKi7D8zpxGUbxtRVfK+0892cWWG17Tu3uxy6aJ9yzBGLy7IjDy1HHLq4zJ/dXU457vhye+wqueiiC+tCqNQTjYN0NW5b9LU6XoZeaELISt4EdHx3hg7JbqA7cnRHNOn3JqLsoABOOF6GbsplmknXJD3dMr+vQj81cWRizcIpurWPQCf/k2nwl37aFOhz7DfAE/2XLo5Xur302Bh0Wouv6N3socxD6rRklHaJNEzMswno1BZo0anZWHR0Tnw6+bY4PKKZd3E8AxPYbnT9XRHQIS8Xe4bs2YcAHTbT2QHoOCpbPl1p+6kXADdlzs674447almmTIRFk7zYkWxT8vebXWTVObkpD5OoQBjv0mV6/FyT6wo/k8COMQfwsXHtxkEvF+axPS2Gc8eLcnZPHj27pIUeG9xCS+CSxYEWVzotIePIe+Y/+Zx8R0f4rJd+c34DoEy8WuhnwaSJVfaiNqk9shO1B3VWPHxNh9vdAZ0sn6wzZNb087spz809N8NluSVNv9Mvy1b43c1NF6CjHptD0Tb148973vMqcAvUJb9sI+6uPP3FDpuckyDbbAPC+EwBsCJPHRFOGrlDB2hi7gqgYz5FXGUmrmf3HOs8u7z3zjhpkQAQx7hn/LEIeWnMfenrHNGvb9HnoSFuc2zMuoFn+RPGwl6AkDZuTNT/WQAtbNLAp98pk8xzky995YUBzODFPJp5Kenrz8jWHKI+VX/o29v41p8oA3NS+mjjKkDHIvDp+j5XC+gorR10zQqzgyQmojUbCbq7C6DTXHy7ZUCns0PH1vr+AHRAMeASgM7t8eFlgM4Hrrw1AJ3ofAK8WTT6w/LqF/xsHLnWAXQ6R65R1qOTHx9z6/n8IcvODp3YsRCK/XBcXG8c9RJdWISfiou0wiiI7imIQIQDgY77YPUJY2E0Vn1F+hviCJrlgWS98PyPlesGjy6rexaXocFV8Z2be8qyxbPLKYfvW04+sr8ctWheOXCvnrJ3b8ggMjEaxwEMxdb/3t7++Hhn0I9OLPavlJHonH4UO3QAOm/84OfLyn4fax8txx9wb/nVRywsZ510WFkc2Zwt7zvRNeuwZ5cOzAS4M5hNsts2ziAAxEC3KUpcdpbuOTinX3asOkydvAHCzgsdse3/Z4eCy0DwzhFZABSAjoFgS4AOFJ3yaTcI3qwwMHAAc3wPhsHh7gzm7ORzYMOTvBlADLg6aUryzgJ0rIRr8kTxp5waTAxwZA5IsIPHllQ7iQAqdvsIZyAhHwOacpoOQEd5AVEM7sAZA6aVZQMDAzUNoIazS/EI6FFuZEymnLoB9LDyAqBjO6z3eE+DkaIN0DGQcqloJ40c6A24jpxQT+zCMZCjbyWa8s1yVKdcWec8cwZml3DyZecTBchxBIxW5QyYytVsVoeoD2RJMWjSUy+tmHNUgBUvjEx1ziqRdFnv3V0cWq1rJTDTJJD1Uj3VXpyDb9WXfhIAmvV3pvHd8tNKoJVAK4FWAjNZAqF/NY3GJqvjhl1XteE6ulGONe50Lqcz3HjHqvL+S75UPvLZ75b1AegI77KQbzQWxQnUG2n0xRFrfQHozIsdOUsWzCtHLz2wPPiYw8qxRxxcDlo4vy7IW71yVTnphAB0wi4wSWPCJNM0Dqbe6TnHxSbLm3qmo9LF6cb0QTvIgTu+oWMC25hKh+TojibZHU3m5ADgjvcu+UXLYi06/kDo2Wmv0IvRpos7skoabCNAgDjoywee83lChuGfecSD9Om6Jp5MQgGGLIJjg6DFpgA40HHZYSbv2WbJpzsnLTq1d/R6i7nk+bTTTqt5YbPghV2zrQ7NzEfyzG9XB3Qy/2RCrmwhE5jsNhObVqQrY7LN8lNX2FbqifIiAzLJugJ8c9ydOkTuAB101CO7etgndsKYJHWChvIVJ9MRrraxoMml7FP+0mE/A0bog+whthYb3I6tXGxntwGQylHXgJqkL74raasHWZ/YX0A/u9g4ti2wRd635tDUTtU9PGebBTjRV4FfwE9tT73G7zHHHFOBJPkVXx4z/1tLb1ve7+6ADhmTNZm5pwzJJn+7u7Ld5rvJ8kMLnXTi+J11G21lu7u66QJ0yFF9149P/oZOlknKkGzNu9htYzGB31lW7vqlnGcyV22+xfyZcrEAVrs3t2buxeJrgI54SUOZZZmmX97xKT19jx1z5oQ8A5nPjjkj8yb6FvM55pEs1NVX5XeQMx1pcPoIfYUFA06xOf300+vC6oEYL/U9aHPaf/LgN/6SRvq762cT0AF6mwuy2zHDiKOv9pkA8jPemTfCP8BY23fijv6QPmFxRO5ole5UXAvoTEF6Kt10OZWBUxnQ3b0BnVBC6g6dkB8lPfLeOXINwOLINZ1zDLwBjPiGzu2hg//zxd8oH7jilviGTqyojzeLx34Y39B5Yhy5Nr/sEwBPH00+4iiSsTimLCQZMWNQ4R+eAKJ61YEhUolwfKbqOhRisKnGBoqhZEfysbk+joYbDHhntKyLb+r8aLC3vOj1Hys/KEdHHhaXwThWrWtoZenecG85cE5PWTRrbXnSaUvKw47atwwsnFv27uuN3TpWMwXtCDs3vvnTF/noHlwbcUc6O3RuWBeAztVlxdxlpbuvuyxbtKr80ukLylNOPLQcGtHmEsZOdM06LNn8rQM00e/bJVbCmAS3JRvokpPmDAOdrjg6UnG0Be9TYdUuKKm2bFMaxTc4Pe1pT6tGQLOjXbp06VZ36FjBZTUBBQ5I5MzLG2NLppVwJv4HBgYmjsfCAx7x5LnJI5DCrqCdBegY4BlEBijysgrA4GbVEyPOoE1ZxacBiwzd8QzMAd4wDAxE+TG46QB08KJ8AGVWJxjsGH8UcQMwY9M7ZWNLP3kZRL3jrAhhuDBgAB5WozEOrWZkMFqtQeFmbKDBSVN8efNMGbDiyqoSR04AdM4444y6G4YSYyuwi+zQTlBMfC773zQWDPZoMj6tDgNS2fHEGAdSMn4AlHYMZX1tjgt4Q4MBo9yUkfoinjJsOvyjwXluXSuBmSiBrJvqufraAjozsZRanloJtBJoJbCrSSD0nykCOjcFoPMBgM5nvl3WlbApQgTUu9HQ40aHA8wI+nPCrpo3uy++kzO3nHT80eVhJy0rRx4atmTsyOkdtw19s3QwJq6OPfqYcts0ADrGy7yAMHYq0FFNUtOH6ZbNSaXUI42xdluYuKKLCkNf5Y+OSS92lUkzO3QAJOKyZYzNJqwttjCJ5DQAuj69Fw0XO6HpxJUO5520LVijv9otgW8rknOHOb3dZBW92/FpdHf6sLh03wSQpGVhlXgm6tkl/OQn5SLN1C88b80JK27ehfe8qwM6ylY+yM7OHGDcJz7xiXpMkAVtdh2xUbim7MRTT9QL/sKQsfJkR5mcdTy4OsIOAehIw+kNVu6bjHV8EkDGbi51Jeuk8kSr6aTBxsGr93Zrmcg0oWviNeuj8saDXVxoW/Cnnli4ZzKWY78LIw20TH6qKyZE/U47NvMrzW114mQ99MwOxgt5AL+skHdiA37sPNM+yDLzi6+U97amuaVwuzug08x7lhdZKjO/0+Uz/6xHzXDNMs64zThJZ3e+Txegoz5nO1f3gfy+C2x+xjtydXdpa+o80MY4Yr4k/cga8OubwIBgp86Yb8n5FPMsQBxzL8YdfYE2rvy0Y3dpeM72ZZzwzC+dOSzfHrYAVv9h3kcb1R/pK771rW/V+SD9nXbr8wp4QD/TcNdu9SH6k7ykoT/INN0z78lT+gmLDvm45zyjOUKL0i2MNh7mO32HMEBi/JvPcnSjU2aMj07asUMnAR2LOXIsldZU3K4G6BDqjHFRAcam68pMRSMai45tLBrbWFSQsZjgrK+mK52dTWdsJNZFjV9uQ5Gb4bGR8IvPVo5siB/ug2OxE2Vs/ejGuAbj7Wi9BuO+IsJfNzw29rJPfn3sqHM+OXbAS74+tuQlXxk77S8/NHbJravG7gmaw1EO/7+9NwG27KjPPLPeUpuQkEZoAYxUZUDCYIEbs9iALZkO1Eu0wzFMBx2Dw41iwDBuO6bD2NEscrtkg9kamaYdMR1jaIS7TTP0IKsn2paBRpYY23gGMJuELDZtaEGWkEqqqveq3nJzvl+++opTz1XSrXOvivfu/bLqvHNOnsx//vPLvJn/zC/znLoimSuKp0MSdazo30HJOaAy2q80dAx0rfuK/+BgHUiHgdIe9VhdXa4aKChzkqvjkOQuDhbrocE+6bGvfm+wXL90aFBf+rar61l7vlC3vu2eOv/OvXX7ux+sc1d8p57ym7fXM/7VF+sP/cv/Wv/+71xb3/GpW+tf3L9av628fEt5v2Op1r3K4r6DS/XQwr66tLRQ71Q2PvTl/fVZb/pkPfPyb9YzLv96ffH7/7q+63N31pulinI7tro5bJ1Rks25DhMPx70Ih6oGuapTqGrk63XXXVfVWVSttGl6EobwamTbmd8Afl3Hcxm3VYZgVQNY9Z7bqo6phVPjWGV8VhEzVYZoFVlQNchp0a0HN77WxHoVa17F2FdNyFftZKnIUOdVZXBWdQxVWySrJu3b7xFd1Ok0/ZCDflql0PzUUFdtW63aLVRFXPG46YRMvZqrauVAFRnQZLWH+iODsmo7epXRW0XeVjH5TZafI9+6ykiuavRbnrVDpWpF3BGcNNiqV111Vb3kkksatiJuqgZNVaslqoz+ql0lVQO5Jp+86J2hLc+cNQBzclWdZ9X7Vas67qrVSVUEVcOEAOgx7IHeGqS29ktkUdXW25YvrSBs+OzevbuKqGn1gbIGV+Jw3HLLLVXkXNXKrSqirmqg2MpEHXZVh93yT1kRjvDE54xz/aGMNChpcsiLBrstHzyXAVDV+VZ16lUda8NRu21aXJ5zIBMsXC+5V+fcDl/feuutrQ6KAGx1BxzBh/iEdbk1xfRHqxqrBmNV78CtMliqDJQKHsaUeL4mfvfe/jkPXweD1eOLles1OPP70+7GZqtokqA9Cv6PL/7BN/imDqQOTGYdkN2rUeIxjwE2Mfbe2riCzsYYYDO1e51uu3dvffcffKr+5OuurD/22t+rf++1768v/MX31xf94vvqS97wu/UfvfF/r//87X9Yf/sjN9T/547FevNDtd5zeIy1X/EXGEM2+/JQ3bv3wWaPapKlaofOWhqH7WFu6P84hrHZWmT9QWfsVGxjLXqqmuypWkRWNQlfsUd55rEFNueRvCke9zjOhME23rNnT9NRJEobD/mZvlNTtfitauFb1SR1058xTldeV2+uyQv62WGPMuYSYVMZWzDOYOyGTcszdNXkfBtvYW/rVc7N/uYZsrCjyZPlopuvScPlhz+yeNb19/PjnR3WZ+uuRW5VxFPVyueq1/5UrRZv+joc6eHIcxeD46UzjP8Xv/jFZgdRVxhf4rrxyJvz3vU/1nU3LuNkTeq2cR1jZ00IVu2yOVJXKFOwI0/IwnXLkrKgruhbNFW7exomIg/bWJXwlBFjLcqYce/FGhtpsvaoscx6jLryW4L6gw5adFe1YLONI/Va6arJ3SYf3agH+r5E1eu22zhIxFQbB4IJOqIHeiIb5zrkPBkn/ElrvU5+fqwzabjOitiqIp2aHpq0bfMFek34keddudbN2B5Ldh8/kaytroiEPeY4m3Q5+sjeCHEoP3CkboI7Z/TCr5uvLr6UKwdYu+yRQ7wu/pT9+rqyEfL8eOlAG85csHaWHPX77uLZrbPH04Mw2sFXReJUESyt/ot0aeUB3i4jsKZccMTplgX3HMyl8PsV0VK1O6XS1xAPx7XbXua+SIP5Lpx1azf647rQfUYYypj2Sgt4K/MszOcxR+Y8M0cjMqnqlfmwg5U5OH7XdoRDdrcu4ddNx20IfoTlvptv/J1fp8sZnBjz0q/SxqEXfoRFhq+1G7Jq0XjVW3BaHl7zmte09u6DH/xgm1vUbtmGE/OWyB3HAV7gIWKnyXMefCZ/6DlqWsgbhwuhM6aCH7VAh43fyBwaBxoC6S7ztFEtXUJnIMJDzXhd0HlRBjvdOc2J6JYjhM5vXHtjfcabPlWf9Nav1XPe+lUROn9UP33XI3WvAkt0Y4oUvcKr7FfkffrtHpCsgyKJVnQ08mh1URUZMgdjgIpNBzPKsda4rSp/gyWlsbhPXNE+NSIHROYcUJ7UkYlAul/5/sKSCJ23X12ftOezdfu7vlNn33Fv3XLF7XXLntvr7L++s571zgfqub91R336Fd+oz/3NL9dL/82X6pv+2131v91X6+c12Pim8nP3QA3yyv523LK4Wv+PG0XovOUT9Zy3fL2e86Zb6s/87lfqv//83fVOhV0QJMOW0ajhlFRzyMHRYNBw+J4zBqhWw7SBB0aMtnvX2267rRlwNvjpOHDduDSONHjIJByGGIOTXbt2VX27pnUehMcQJBxyaSiHIXQwPCE+6JjQj8ZYK7taI6xVc1WrlxophGx043De0It7DAuMZDquk0nokGf01WvFqlZUtY4VfRkk0tnSqUIaQCqBC3nAaKcDYuClV94dIZ/AfFyEDphgxEOcQAxBHGFEaJVC1erAdlCG4GzDwfUE0g9CByy1YrGRa+DNQBdiStvzm976/lHLD3lCBvExGrmnjmjXVdWqkTYAAh/tqGlhbr311nr55ZdXrdaoDH4ZqGJoGEvikx7yOLr1kGvyRrlDsFFnMCYgBSHKKAviowcOvQhLPPLPZAB4aPVG1WrHVi6k4frkNJHj65zHY+QEx/Hi2Cq4/oAr9TuEznjxTX0NnqkDqQPTWQc0bhiR0Ln9nofqe//gE/VnfvHf1Je+/t/Vl73+ffXi17+n/oNfeW/951d8sL7ro9fXP73xO/Wb+w7W+0TePKLx46L6s4VlTfouLtTFhf1aZ6gR1PJiPfDw9+pTn3xumyQZB6FDf4mNin2onRJtko7FaUzAYCO7zLt2qO1k4jLeID7huNcrrqp2WtTzDxNDN9xwQ7NTeU5YJuaZvGfhGOMUT7xhm3oMg3xsWzvb0fgzLmASHiKHxUgsLGN8gX4cpMEiNq1QbguusPe5P1Y+nG/bvM6XZXEmHs7xH+vssD47/iQQOh5vMEahHCljJjf1+uk2djE2xo17MOWeM2VDGeNPXaHs9VaGqjcDVH334qj6xhjxQx/6UNX3l6pWnVe95qiNH8GV+oAcZKITZ+Pt+oh8xpqMbZDBRC+TrF64hk7kg8lP6hKLDvWWjsqYbH0+CItcZDovzhf3Phzvsc6Etyzqs97QUFl8pF059WKRV+TbeqIj9dThOVu+/X0/ynnSCR3XFzByebVKoz8uD8qUA4y7jjj4+XA4h7E8y6Z+jlIWGz3uuAgd46U3pbS5LeYvWFwL8cCzbpmBtcNz9u8e7HH0AXpLSSOHmQPh90M5EZbfEKQzczDa0Vn1dpVGtvCM3zVtjX9XyHI5k77ncfidQsKzqFo7cpoMfQvuSN/Gb5H+kzxAdrFYnLYEZ73bzeF70rB8zwcRjoNn5MvxfE/89XWNMMhhzMt8DvNpLBzvtg3EZx6HQ69ea3NF9PEsVNaO2TZHyVwYhBCLutfrY736nEPouNR7nPsAfrw4Tp4KRIWYqB06yo+2zohIkaEhukZNeNsd03bniIEZyJ99ORAwC7qmyZCdLTKkVi2eajt0Lheh88Nvvq6e8RvfqGdffnP98TdfU/+7CJ2HFJhdOVWECYQOtsYjSo4dLY9Ikkxn7f4hDT3QzpmBdgWt6vx9Qocfbf9jWYTQkvK3LEJnoN0zdUETxEtavTRYUJ4WlIdDInRqI3Quedcf1afs+Yt6+ru+XXf+zrfq2e/9dn3+f9pXz3v3HfWMt/5NPfuKu+sZb7m9nvlrX69P+/Wb6kV7vlgv/b0v1F/9xLfrR+5aqp+Tzf0tYXSbjs8vDOp7v/Rw3fWr/3c9+9duqk/99VvqP7zya/U/fOG79W5hxgDleHVt3P5Kqjnk4jhTh32PH40bDbJeNdWMOeo3O0JozNyAelDhzgN/d/g0mEycY4h6VQDGIZ05Yfy7geTBINWHyB5zh44JHVYssAqK9GisMbb04cW264bBEp2QG3zCWD/yBAlxsYxCdn2cTEIHPcFOrzBrnR67kq644oqq9542/dwR2Rino9TW8hYWwgSCxAMvymcchI7LGXIMvei0WI3FjpkPalUChAw7bRh0usyoI8aWlX56/V0jdFgtxm4pnqO73u/cypXBAMaCy5uycHngxwBXW3zbChSIq6uvvroRQqRHHlktou/dNEOAnTKQRcSzHOsDvvhzJq798YOM8i4uvSO2avt805Fn1A/CUl8dD+KIQRhEJp04+SdPluk43FOnOOcIBhu1DvA7x6EfdTeETurqRq2r0St1M3VgM9UB2U8jEjp33PNg/bf/8U/rpb/4jvpT/8s76ive8K762rddVd/3f/15/cRXbq9fu+/heu/i0tpbDzR+W9QbFpZXtaNEb1dY0dsPVpdFmHBocd7e++8dK6GDjYiNx5mFPkx6M15hgRGL0Vhl7PrqPrZrm9Lfdu3M2267ra3yRQY7ffT9yWZ72m7F9mTiHJtfH4OuV111VWVXP7ZpV5btTtL0M+xldpowIYftykI6fZ+06Y2O6EE6X/nKVxqhwxjosssuO7JQzGGQiUMu4xHy4zz6jCyu0cO6+NmjnZHLc599PQmEDuXjsqec/XaFn/zJn6xMyjJ2MTbOP9gRD/9u+XLPmw0gdJgE5a0QvFmA8JQhYfWq7lZ+1BXGbYydKC+eWRZl6PIjTa55xpiICVgWCkIeoiML6xjnuGy5JszFGi+zsI1JWPKFQz/C+Rq53TGU8+l8cUZv69J9vv4anRnDg5deXddWzLNDQa9oaotM+R0SBsfZ+fV1e6A/zsd6+X3uJ53QASvKhjLiAEv8fBgzY819ty52/XnmeJyRhUzqJnHws7xJPI+T0KEu87uH3Oc3wO/0wx/+cKW9BEfjbpzBGoe/caZcmTviLSoQFSzCZZGry4Ln9DvMxdGWMDelV7C13aSEQSZhKD+cyx5/0qGdQP4v/dIvNUKIHS56hX/rt4iHHsSlb2I+BcKH+ZXb1Ja4rnT1dRrOH+lwUIccznlz/eEex9nPfCYeY176Q+YjaSeR47Q5Ow3mwpjnhPihzdPr7Vpfeb7IeXTfs2dPw97pjnoOodOKrd+fUcHvxrcGVBoqxyQSOiuHiRsInVW9Wo1XrbGlBkJH05h1v84QOvD1HNrz0gidW9SmvPXam+qut/5ZPW3Pt+v/8Ju31B976zX1k3frlWuN0JEcCJVlNfaKyO4cXtWmfR1rhI6kta36kDrs0GmkjgwR3a+IHOl/yKBVee1XeS3QSBxkEKCVJUsiGUQaMUg4JPm8Fu6ry4N66Tuvrue95c/qmb/x1/Wsf/1X9eUf+mq98tur9U2feaT+06tuqxeIwDnnrTfXs99yRz37zXfXs996Z33ynq/XC9/7tXrpf/5Wfd0nv1F//44H6/XK45+qLXzHV/fVXb/+ifrkX/ub+rQ3fr1e+p6b67//7H31dmXzB0noCPojjSDXOBo4JtuZjOdVYLyijO35rDzyAIO6T4PN4YaWeHQ2vFoNAxBjkQl5Xq12qxh54hDGzhP/GKyP9cq1LqGDbqSJLLaNMzBBRxpiff/kCPHEb5Y06VDoxNhSyWvEeB3BySR0wAgjGsKJjgXyhE6TztDO2BCW1Vn6hlHrYBl4sSKQfNmNg9ABG/ADG8g2Onp3Whj6DDohndgp1HVuBxkYgjcryDAWTOhQLh/72MeqPuTZ8krnjQzXF9JEBkY7ZccqQlZfQejwqjPqDxgwQLj++uvbjiYwYFUhA2ATdoSxUUKaEGZ01gwC2Pmk7xO1sITTN5zaKi92irEbidctoAPPunIYLGCM0PFj/FDneWUeYZxv8kF6uK6/n+e8mSakJl9X/3apl9TbEDqTX+Zpg1LGqQOpA49/HRid0Lnznu/Vf3vVNfWVv/I79Zff/ZH6e3/02fqJL3+r3qSdO/cuLteHtQBwnwaKB5YP1SWN01Y0JhzoFdmDFS3cOvRIXTmopYA6Vy3M27f3gbEROmCHrWd7j74TO1nfBWhjCBaR8eonbHVWOfOcONi3XbvQE1EsQmP8xGuYsXchhbDpeU4c4mPXYwNjVzPxxYIobFfi2m4mDcJ6so1rVlGzY4idGhBB2OT6xkrVNxiafML6YLU2u4BYaKcPPB9ZKIYc9ObgmnyTJmdj4fyhcxcX/Ic5sEUI57OvNzuhQz7Aw5gwRmHhGOMIJmJ5jRwTsRCAlJWxAmuXK3EpI7BnoR+7Z5hX8tiHBXSuJ4RhPMkuNCYdIfB4tTmLKL3o0hgTp1tXqKssUuOtCoyFGY9CTnpcz3iQOIy/eE0S4zh916LVp+4Y70TqCvlFZw7n/XhncGD3EK8C9+uP+M3xO2DcT14Ig44cloOfD9Jx/v18lPOkEzpgw2/aZQ9+XLu8uAZ3ypx6Qfgu/jxzHeM5jrKwH3Isf5Ry2Axxx0nogCF9Am0Bb7Exucv8yvrFwK77xojyodz4zfBK/pe//OWtneBzArfddtuRPop4tBn0bReLvKXfoX8gDq8IpexclsjGIRt/2hLmWVjoQFvCfB99EG99oewJQ1jaPNoc5l/4jIMJHeRaX8tuCegP9zxHhtvJ7jXhCIMf4XCcLdNn6h1jXogqMKAdcZo866aDzvTn7ApkwQWfeCBP9JXMjTFfSbvr+KOeNxuhswWQ9Y64DeHGqQofVMKpQNvHlzQh3T7Wxsfj1Tk2vw2R6RNUon3fUh+X5MuUq8rjQGd9XqrMyI9nW+pMqTP6+J+eaVq+8Mm9rVvWPry3qnCLCn2fvpn+B//9a+Ujf3F/eWDbbn20crmct/K18p5/8fLywnOfUE4fHCyz4FbmlYY+Xj83W1ZIo+jDWzrPScZs1YeydK/PfrW/TSH5jOK010866yNZA9LShzYHqy29Kv0H0mMtp1vKgZmZco/C/Mt3ETRrzQAAP7VJREFUfLzcunC28rSzzK4+VH76uaeUX/mfX1rKvlq++8CB8pffuL/cfO+g3HZvLd97ZLYMtp5SVrfNlEOD/WVudn85bftiec75O8pzf/hJ5Sx9LPCBhwblv1z9pbI8OLfM6GOfzzx7ufyPP3VW+ccvOKc8Zb6U7Sfpp0Ld9W/B9Rhc7ce1GsP2oTA19O0jnSJ2iia7i8iZIiO1aKVA+9C9Grr2oTLiqtFuH3LUioL28TU+LobjY4r6fk770Jg6i/YxMvyJw29FRmlRY9k+VqYdH83fehGGa722q+i91UWriNqH1fggpFYTtLS1fbR9gFKroNpH4V796lcX5PBhM215b3lR51f0KoL24TcREUUdXeGDZFoBVbRNtP2OySv6aFVb+3CcXtPVzuiqTrVo8FZECLUPlWoVXFHnUEQM8bilwUfZ0FXkRRGB1T6mpk64qDNpWKljax+g1CvMCmnpXaZFq7jaR1Z5RlwwlNFcRHQUdTwt3+qwWjiRJu2jmA6nDrJ9dE4DhnL55ZcXDQLbh1a75diUO84fytgfkhNpUdSBt49OgitlrUFh0TeFWj75CCVhu047uFq6lDMfuVNHXmRwtCAi79oH5vgALB+4o/z5eCflDGbgqYHlkQ/EghnyRci0j/7xMVbaVsoNHMAdjEiHD9rJ0G95tT4yWtoHQmV4tzpA/dTushYOuRqstI/MakDdPtgn8qrpo8Fv048w1CPqGR++5WOj5FmGR8NVg6qmH9ijF9jxMT3KpvthQOuTcxDYKAhQZ3G0C9RdPrzMh275AKZWeR7V7m8UnaNHEAgCQSAIbHQEGCseZ4ivsRZuSxsffr8Pwo++CJuLoeZd9z1Q/vpr3yz3PLi/nK+PFj9z91PKmadvL/Pqt+YVbYYxwGBFYzaN12SCMh5tEeWv/zoUCPEzs2Vh8WC58IJnl3tkyzGuwMa3PUw/iN2G49r9YvM4xh/CEpePS2Pn2Y7kI/WMh7QoqH1IXru+i763WPQNyjYm4aPOyKav1YRR++A9Nj12Mv0tH5jHlmXOAJtZO+Fb6tZHOxPaXALjGa18LppQb2MuvRqrfdRZk/fNhkY2aWDbEo7xAOMG7tGJD2g/+9nPbh/Idr7JDx/aZp5CK6bbh6m1u76NgVCC5xzklcN+7UJ/nC/S5Tn31tthHu1MWOT7TFiuNUnWbHw+qK0FhIXxFXnAxiY8+lMOpOs47WKEP4xTsYGQDxaMGbi2c1rGwf7HOhtfwvpaJFzRK6Tb+FkTqGXXrl3lkksuafmjrlCO5AlHWiKB2tiFsRPjEJF9hQ+WM34SCVhEwBS9BqiFJR101eRj0ULIokVohTQ0IVv0totWnowLGf8SVhOiTS/GSZqAbfWLPKMr4ymtri+a8GxhPabR5GYbBzF+1UK6Qj3hIB84Y0X5GSP7tQD6Q77w8xiJsI/lSFdv0mgfIhcpVs4///z2OyZfYEZePI9AWGRbLvVFr40qjB/xs/9jpflYz9FDC0rbx9C1MPTvjLNPpK48Vlo/iOeUEXWBOkg9ou7RDtGucbhNA0+HEQHQ8KXOiRRsH7BHd7CgXtPeUW8Y7+v18q0tomy65fWDyOvjnaa+n1X27NnTcOM3BmZgwhmcObjmeCxHmfDb4nd+7bXXFuohvw3mrGgfOetVYkXfHmu/CeQRh76BuRN916bQzjGfQbuvTxa0ORTaEs/dOQ7tlXbkFb3SsIjIaXLpo7T7r83biNhoulO2zF9RP5gD0ptkmnyR8q2fYk6L9o3fKHlFf+bb6C/pj0VqF706rrU5/LaPh4Wx8m+LeoOf742n45POsZ7RXlx55ZXlqquuKrt3725zfsyV4QhPfpwWfrQpnr9iToy5Khy6ioApWqjesGueI/4BD5F1DRcR/g0LdHJe0Mv5GyUpZIzDhdAZB4onUYYJnaqL1UZ0yOCCaKFiydZR110gQJal0xoJg9GtyqLnq1tkwOr5fStbGqHznz/7oAidZ5TBymI5fyBC55dk+J67s5xeD5Y5Gei1igSZkbE8K2JH8jDUMSEhczj0c1NaUDp61hQbrVJiqmk9hwgX/Yglb0fVZCwDAlFIJnRWpcV+6XTHSi2/+s7/Wu5c+qGyPPOEMrd8T/mpH5kvv/bzP12eLO5H65HKXQsz5cu3P1K+cMve8jd3LJZ79skwXZ0tS3Nby5IQErVTtpcD5ewnbi9PPeds/Ui3lhtv+q7GIqeUevCh8iNPWS2v/Klzyz96/pPLD0nmDmF4sl33h07jsd7RuNAxXHPNNc04xZhhopvBBZ00HQlh6ERo5JmY13soi7ZwFrHbjczRVunW4buBp2FmQEM87UJpHYh2gxQIFBpa9KBBwxEGHTFCIXTocLRrog1IIB6QRdp0chAxWrnQDAitbGoGBAYgBiodIgYGDTWDB3RFDiSJCR2tNih0xjSwGCnoQ2eGfK06KXo1WGHAQb5p1CF0SN8OPQmLQfTe97737xA65Om6665rpI5WUjUctXKrYUknQnx0Iy+QHXSQdDaQLdox0wx6OkrSpJNhYAlpgeGu7bJFqyqaAd8tU+t2rDMdnQdM2mraDAaIEwYRPCNNvXe1kXjojlyXC/IoYwakGC2QdkwS6yOdrfx4fv3117cy0W6tNqiE3IKIwdjGGKCekBYDUIxEDrDHUKGOUQ/ABUNEr4BrZJ52NDVDSR8cbANhkyroAh4YCxiXlC11icEQ5U84niOHeoAxQ7lTvlyTFnUXA1SvOmjxKBvqAPWMvPugTnJQNpR3FxPyHRcENhICbg+o49TbEDobqXSiSxAIAkFgsyIwPKFD/2PHNXaThlHlwYf3lX1LK2XLth1lx87tZafWSDHS03CyEToanWnsqREigSFzGBE2WYrPOEHjUXxX9efA/oXybC3kuvee8RA62HddGx+dsZWxbfVqljbxiZ0OCQE5oLcEHFkgxBiHcQP2LUQONj3ysNexO7FPmSxFPnjYnqSPxr5noky7+Jv9r93ibdyhb4W2RVNMkmLXEha7lQk7xjbYu+jyqle9qk2udW120sCuZwz35je/uZE/2O1M7qE7eXN4wnLgOHf98eOetP2M+8dyhCUN4nUdfox79NrnNonP2JJxxyUiP7DbccQhnHUaJr1uGse6HiehQ1k4f04LfVkkxqI2Jr+Z/CSc6woL5vRWghaPusJiPn0fo9UVxjOUMQvgGA8xtqPsjQG4EAcHSYN8xk6ULQQh5cmCRsbgrleEZ2xzg4g/Jm8Zu+u7GW2ClzO6ua6TFyZhIZYYE3NmrExdYawO/hzWh/Lhnnh+Zhy4P5G6wtgQzPS9ioYfpKR/W+hHPsCGfPH7cnqkDeFFvSEO+UE/no/qpoHQASdjz1wL8w6UOeQqdQp8KUfaPxZG8gwH4cd4G+wJQ7kwbvcCWMqKiWsOJsVdR0Ytk40af5yEjjGnHjO3we+cOS7afNp6yBzmMZh3YX6NcPw++F1Qfvze6XcoW+aO+J2zIJvfh3/rxpGypd/ht0caxGMeRjtJW9zdu3c32ZQvfR5zaiwkIB3CaadgIz1JhwWw/s27PtDeQogwn8hiA0hk6kPXdX+r5B3HmcNtDWG4py/F0RZ6HsZxunLA4z3veU9b4MECXuotGLhtAAfrijxkgB/zRFdccUVrt5mbot2jDusNLy2/hB3VhdAZAUEX9ggijkR1hXFFmLQdOmuEjjpi9YUQLSZ02t1hQgezbEY/rjmRL1XGdoXQ0U6Xv10VofOpm8pH/+rh8r3tF5ZDB/eV8wY3l3f/i4vLC8/ZWc6cOVTmB0uy0iR/dmsjdSBS6HaZxp/RLqAtEDr6T/r6Oct/7cd9pAB6XdSiTb8idZZE6AzKVukwQzoz25XOvEgaET6S+/CWbeUbi7W8+f2fKrcvPk2E06nllHpvufiCUv63V76oXLhdOq0cLIdmZVBIyfsOzJQb79hfPnvjveWmO/aVB5a2lYdXt5WFFeVGq8YYf+iNAWpUt8oQmVdelPeF75Tnnjcor3zZeeUfXvS0cp4W6vwgCJ1Hg5Hfiw8Mbia7WSWAcUenTkOJEcpqAH4PNOJMjrMKg0ELE+LszGBCnEYdRyOKowFmcAGhA3OO4crkOauF+E05HNfIpnHF4IfQYaWMtni21XH+HWK8MfH/+7//+y0ME/+QNqRDR8eA6BnPeEbTSdvIm9HMYIYVR3RAOAgdVlaw+g5Ch4afwQWyyStkAEw/nSE7NyCNwAcd3DlgyLAa733ve98RQocOns6AMBjS7DJi1wmEBh0oGCIDogMM0ZWdUHSQYERnhEGLYcVqPVbLoCur8TCk6Mzf9ra3FQgT4nsQ1DL1KH/Q1WHpwOhwWZ0BMQZm6M2OGORTDhwYZ+5IMRYgdBisUs500mDsMgN/Vvpg/LE7CiOA/JImh0kVOlkGO9Srj370o83owEAgHWRxZqDCKjQGuQx6kEOZgCl4cEYe5cXurEtk1LNbCPx4jiOPkDoYRRCEGBYMWvCnfhp/9KHDZ0cRBtN6w+dRIM2jILDhEHAbSVvF7ymEzoYroigUBIJAENiECGhw0xbbHUP1tigP/zWb/xgh5KUxoP5qyKgFgoz11kITg505a+NOEzp6KjtZD9ZC6VpPFJcRqoZZSm/hwEJ5jmy272qSe9QdOhLZ+kvsf2xI+k+usQex2Zl0ZyzBmAhbl4NxB3Y1NqttU9uVjIOYfMNOZ0ESE/rIxEbFHqafRj5+3COHCTPGCiyawu7FVsUfu5Vw2MnY6tj92KrYvYxLmITDpiUMcun3bUuz4IwV0pBAED9veMMbjuxkJ/2uLuSBY1SHHqTfnTyzXcKZ8aVek9wmgcEGQoexjnUhfWPqeKPqNE5CB11cdoyRyC/jE/TX68Pa2IqxK+MP1xUmCSl740I5UlcYx1A3wIF5Jb2eu+0IIRwykY/jGiwoZ8aDjGk+/vGPtzEXb1hwPWF8Du6My11XGPNSTxjnMmbj+fq6gnxkQqxwZnynb7m2sazLk7TRgbC+bsqN8IffFYsnOVzW1m39PZhQP+3P74u3VfhNH91nI6jUdkZM8g4dcARD5nXY8cU8BxP2zI8w78BYmjLgYA6DNok2hDrP4lWwoc66HPA3oYOfXm9fLrvsskZ4u8xGKY+NHHechA7Y0Ua4HaadpE+AdKFPYE6FPoH+gN85uPNbpt2B8GFBM6SuFxDwu6cdoG2gHUGu2y1+v7Sx3DNvw5tKmJNhnoS2ijj0b8hHNm0VZ+bu6NP4zbHLz3UJ3d1OIJd5IggMiCnesAOhwwKIcbhu+0OaONdF8OONOey2QVfqNO0q+XXfCw7oiOMaeTxjbpJFFcw/mdChvwTXcbgQOiOg6IIeQcSRqK4sVF7kTiqhg7EsE1qGtTpOfid+5ZpMaL21UKa6dujowKSuM+zQWSN0/uOnbix/+Of3lwe3PbNs2zpTTt//pfLOX76kXHTmfHnSzFLZycYGWfJLq1rpvk2vV2oykKPJcRnm/IPM4SeGwb9GB6z9UHXb08moFKGjL2eI0NErk1a1K0I5GMzsKKvaPSPORVRLLXvL1vI3B2t5y/s1ebz0w2Wp7ijbFr5d/v6Fq+U3fuGny9PnZJgONKGsnTz6/o/24SiuyJq9B0u56baV8mef+2b58p0Pl0fqqeXh5e1lcaDXjG3VBHWdL0sHHy5P2HqgnDZ7b3neUw+Vn/uJ88orfnR3OVfEz7bDDVHPzI09Gg0cnQT1m8abhg7jFOaeXRdedUZjTweCYcgKAFYUsYuFRs+NOrI46AxoSJFJ56B3VbbVABBA+vBbW4lERmhMcYQlXQgdCBXS5XVZvArMk/7I5CAOxjKT/oSD8MBAYYKe3+clGuzQKGPw6T3VjYSgcWbwQxqspGOHCtvkWQ3FDhVIFTo+DGZWrUB2QLawUgl5DPRoA9xBkl+2uSKHFXx6z3bRezfbCheeIYvBIOQTAyp0JW9ggzHKij3iQOBgfLOjx68yYysr2IIr6dGh0zlBAIEHW9LprMEW3B7LEQ7MCAt+DPR4ZRkdGKu3MEwwBMCZDg4dyS9n8KL8MeZYLQIRh7G/e/faKg6MAg88KAPIQGSTV3QHQwYTHrRB1kCkgS8r2BjUIANsnSYGJmXEwAjswBlih/wjB10Z/NBpE7/rwJw6TF4xSNEHkgk53PMMY4f6S5mzuo3Vc5Q7+Se/cUFgMyJgW4XfO7+nEDqbsRSjcxAIAkFgoyEwOqHDqI6xHuM8rhlLrhE5IiPUZ3GsPeEho1Hd6czRXgvOWLEdpSxqcusiTSp9924InQ+3CST6PRz9ILarr90vNo/j/KG/5MA+Rg42qe1lZDE+YlLNYyImwrCjGRMx2cVEKAe7cRhnYB9joxOXw4QF9rUnpbCbSYsDuxMbnde0sasfm5+xAzY1/shjTID9i00NaYTdSt54jr6k4fEA+vIGACZsGR+x6O41r3lNG3uQru38bpzjQHNC3uQFfTwmQD+XB+MBMGShFXqxi5+xDnZ4l0hDhvE6ocSPE3jchI7rFmWGrmBJfrmnHJh4ZfzCK78Zn/IKIiZLwYUxBjscGLtQJrxlYNeuXW0MSFzkuQxdV8AGP57ZgSXjshu0C4exFmMkJoHBGtksVGOMw5iYMR4ycJbJmNNjHcZMEDkQK0zsMilPXUEOvwf04rfhutLVw/r0OZMmixip7+DndNDLuiHXY37SxR8smHdgbE4+GdOR73G4Sd+hQx0EQ9oVCGrmAJjrAUvKnFf3gTOYU5+Y7Gdegjp/xRVXFH2XpS2w5d7hmEBHDm0Oz9mdwTwP5el2YBxls9FkjJPQIW9uJ8GWa+o55UU/wEJY2hKu2V3FfAW/R3ZUMY9Cv/CCF7ygEf6UC3NH/GYhgOgnKPNumfEMR1h+/+z65LdPe0K7RdmzeIBFvsxR0ZYgn/TcR3JGDnKtM/cQUZA47Fpkl4u+39bitQRH/EP7BS7d9gGRpIvOLBT+yEc+0vpH6jNzZbQPxENHdHZ87vGnjtJXMpfHPBxtJcQlBCft5DhcCJ0RUKSSjsu5o6DCIHcaCB0WYs2IsMH4XtGNPm9XxOGUefnzSrQZkTR6mdraK9c++aXy0c/cVR6a31Vm5zSR/eAXy+9d/nPleec+sZwq2kTT4AopI1mGuH5Ohw35oztfTG92zFBs7V3KYyk8KSxSZ15He+0b6c/u0DeB1EhKvjgZETql3Cai5s2/q1c4LZyn9LVqZvmOcumzVsu/+mcvLk9dOSBCarkszomg0W6l5qTsYEmN42CHXrk2KF+4c7n88f/79fLFOw+Uu/bvKPtWnlhmt51VturZoe99rVx4zkL5Zz+j3TnPO7fsOnV72SE02Om0UR0dCA0djR51n3s6Bc42Av37oiG0nxtLfic4N7g0mHQ8dEA8Iw4NJg0rMrkmHQxU/HBehUBD7OftweE/yCEsBgNhuUeG9UJ35LHzhsl8GlOuvauE8OgFSYB8BmQ49CEucqxPN3/4oz/POLgm38Qjj+44CUf+OZMOhg4H14TB8Zw4zjNn9MGhj2UTh2cMhMCDgzRxw3Y2pI085ECugRv5Jg/gxjW6WOcmXH88WAUvcOYAHw9UXUfIJ3LQC5ncYyRYLvKcV2Ti0AHjEX/yyD36oSfpcTAwQiay7UcYMCRt60tcHM84cI6DbHQiPrJ4br2J7ziEI23ixQWBzYiA6y6/P+p7CJ3NWIrROQgEgSCw0RCQXT/iDh0NyDQa1Di6jQY10U8WsR11Olq0fA6Pt7B02dXDqAIyh2tFEaFzoPwYO3TGROi4z8Q2xGHT2ybFRqVvJQy2JP4Oj03JNXakbWjb2rZBCY+tyb0P26OkZfnIwh9blPRtryKfeOhGWNu4xMXPehLG4wz8SZOJW8YJHNjjhEGubV/ukT9OhzwO0kE++nLG4QfZgT6EYTwDXlyjM2fyw/W43DgJHfJBGaEn+eLsukLZoDdhyKf9nW/i4YhHOM7k3XWDOBy+R47Tw5/rrnzXFY+5eI7jjC4cyEJHzhzIcXkwvkIGMvH3eNh1hXg8J57j4DcuRzmjA2NF0uSe9NDfeSE90sY5784v3wkhj4xLqdvoOaqbdEIHfChrly34gx8YQwKAJ87jZsqEa+Iw7nc9IpzrAnMThKMue2yODMprkt04CR3qNJi6rhtb8AN79wcuD/8uiMMB1v59GHP/nigXy+FMGv5d8zvjmrCkwYFsytnnbhqEJywyHIZwHOjpeRTP3RCX3/a46oL1JR++Jl304R5SB11oDzhIF315Znx4zj3+4E44rjmQBR6EpS67PEhvFBdCZwT0KLBxOQoeRyEjd5oIHXiHZVnaquJtW/ycXl6sfS5ly5yMGFE19+lVY3/46S+X//IXd5X7Z8/TjpiZcsqhO8rlv3xxee5T9VoufbiGJt3drEydw4ROg7T9oaSOEDq6pjtZ677b415/1kqMqDIGdMyp3Bg2rKgsl3SG0Dmk44GlWv7sW4fKH/7xl8qDi+eWGX0X56nzf1v+yXPny//6jy8q5wz0bZyZlXIADGb53o9WWvFjX5HUZRFDAuh7M9vKXQcPlRvvG5S/vPmR8qVvPFQeOSAaa2mxnD5/f3nFC55c/smLn1J+9Cnbymna+jSvXT5bhNNGcdRpGjGcGy83eDaQqPt2hOU5z7rh8fPBb8bPiOvGkzjuBPDnoDHF0RFYrn9zhMXYoEOCCGClEzsu0IFVXXzcEhmEowHGn0aZ+9v1OjR25bDbA6Yexn3Xrl2t86PTIl3SIz5nHPFIGz/0Rx7X+PkZ4fDD4ce1w3OPbDoxy+nGJ47vOeNIh/QJz5kOhmtkIA/HvTtad0r4cQzjnE/COy3iMfijsyUd55Vr0iCc8QRT/Jw2zzh8Tzjr43xx5jmOsHaUs/PsOuJnhLMuTnN9GOKDjfUlXctDDvfEJX1k8Ywz/vjxzHE425F2997+OQeBzYKA6y91mboeQmezlFz0DAJBIAhsZARkrx7Nunxf2SML1B5tXIOthd0IoXPYXmxm4ZoN1l69rbFZc5xE6HhsiKXMCIXzQDpoDV45qInIcRE69JfuM7EVOXD0ofbnzDgEP/pZH9xz4GxnMmbxOMD2Nc+R4XjYrxw428ncr0/fdq7HA9YHOYT1PXYufti3+Pke3QiHHKfNGUc4nMPYv3mO+MfpGRPEWVfOpOV0CYOz37HitgA9/4yT0HEerK/LAH8O6055kT/y5Pxxv96PcS1lRj2hfrkMkOV4yCQM95QrDj+XMffIxY94rivr0+MZfq5vjKWsn7FHpsdI+HX1cTroYX/8+jrny/qiH85n0uCa9Dhzj/6u48SzHj731cXxpoHQAUPjSXlz7/oEDtzjjDtn/HxPWPCmHiHHY3qXj2X7eRM2gX/GSeiAmX+/lIkxpx8B1/W/EcNJOBzl43Lj3mXAcw5kuwyRh1zaHBzlxzPS5cC5PrhMHQY9CIN82i7m0awD/taB+JQ/8cftnA/kck17gF5ckx76cI2OXHd1wI/DzrKcB/QmPIfjO+wo5xA6I6DXLbARxLSorgyuIBNF6MhExhZnOzumJT+99so1XUE68IwdOmoqdC8jUZVdP1kFFLMpIuOBwXz548/fXv7Pv/xuufnhJ5almZ1lx2Bvee4zTi+nzmvSXNt65vWDUtdQ+NalpNLS6K9uZNjrJ9O20w9kvOvnrzv9+BRwS3vW4O/1hxTKFjWK0pbXx83pdW8tL3P60N6MjF49X5b/QenyXb1y7a6/PVAOLj6hzB06WJ59+oHyyheeVv7pS59ezp2TgbR0qCzDMtEwSK9ZjSbmRfxA/qyuaBfOjjnt4Jkpdy9uKXfsPVTueeCgtrBqp9LsSvmh05fL7rOeUM47Y3t5omSpySlz+pbQGtK9sva4RHIjx9kNuo0m7t3A0di5kaMB5NpGYbfzdmPIc/9+1p955t8UmXIaDsczO3SgA4LM4YOQbOnkndB8V4b3hjodN950NNdcc0254oor2nZztn/+7M/+bGFFD2HIm/V1A+64pAupgnGNH866OA7x/Yzn6Gws3PE6jvPDc+Lgz5l0uTa+3OPvvBgPwjiu8XdH6bDo8GgOWdbH4SwXWS5Dp4lc8khnTTgOdLN+3Dus5XTvScM62iBxvbLOyCJdHM8sm+c45OJ8z3PS6Drr0ZVtXAlLHMK4vChTy+M5z2yoELY7oOqmk+sgsBkQ8O+DOk7dDqGzGUotOgaBIBAENjoCjPu+PxFylLYnQOgw7pN1dzj6mj0nS01jv45tJ9vMKfGWCK6JwXnNXx9yF6HznCOvXPuDkV65Rl9Jn2kblHvbr1xz0LdiZzosGej2t1xzIMc2aNeutWyeczg8cnBdP+xVHDqQHs7x/QzZHE6PMNzj7Gfbm5XGXTmEsRzkrteF56M4p9/NP/LQgUVkjJHImx3hcZzRBTdOncZJ6FC2OJcHeSI/OK450N3PnTf8ute+79YV/HDduMThvuuME+EZvxhn0sY5vssYrPHjOekRz3WH8ISzHCZ51+fR965f1pO4ozjkcjDu4ox8ZJM/53G9zqTHMxxhHX5cOk06oUNZuz51y9V1pluHwJgw1G8wd33qhnXd4zlhOfOc8iA8ZTupbtyEDjh18TOmYGnMCbO+rnNPWA47rvHnoEx9bzndsMTxvWX73JVHGOLjeN6tD9zzHD+37fhRJzi77bC8Uc7kB5kcOO7Ri4UU6GCSiWvC8Ay9rL/jWQfaPuopYTjQ1W26w4x6DqEzAoIU3LicC98/iokhdABIOK2RNmuEDj9VdrNgXrdv6Oj3sroFOkc/jIEmnFfodPVocFCEznzZu2WHXjm2WD7+/91fPnnz/rK/nFZ2btNE7aH9ZXWZD/Sx2p8dGDD5Mii0X76RNfq2jba4yISXAaIfW9Vr0PTVDoVjQhu6xea7vHo5pcXeIJE6sxoRzC+vNSrLW7X9ThnAJBuwzEu7b2bm9E5RhR4cWC5P0uvVLrnglPI//cQ55YU//MRyhkQss2Pi8HvgGM/MKh9zA01urwotDU6W51f0+ja9Hkrk0UGltyThhxY0OazHZ+wsIrWU2CG991H4bZ2XPh1DtlfWHsdINL5ueLudM78n/Dn7t8Xvgms3rjTixMF1Ow3CuZH3b4lwTqsrz7K6aSGXMMjgGy4QOryzdffu3eX1r399++Ajr+4iDjLZzs87hflmD++75p3Wr33ta9t7QG2YkA4NOHK7B7qjI3KcrnUmnPVCF/LoZ45Hx0A8dyCcjYVlcnZ8nnXjoh9+yEE26aErjmvi+dp6W0Z7cJw/hCWcZXFGFh0fznJJk4Pw6Mlzp9P15xnyjFE3DOFw6ItzXghPOBzXhOMZjrDcIxfdkIuz3HZz+N5yLY/wXbmO1/XHD/nIJQ0c8XFOk+fj7sRbAvkTBE4SAtRhHL8H6n8InZMEfJIJAkEgCEw0ArJDRyZ0BFAjdLAD12xBCdX/NVtMo8wjCJojcqjvh1+Lu7CwWJ71zAvLvffwDZ3RCB3bmdiW9Jsc2Ifda9udDoui9Lfuc7l3v2v7lmeWsT5+Nx7XxLUdzjV+XTkOgzzrwLXHG47D2bpY3no7HlnExZGG7Xn8x+HQAfnOc9fmxuYnTZ5ZD8Lj5zM6EJ/n49BpnISO9UJfrjnWXzvf5IfDefCZ/OHvuM4nOOF/vPjEIyzxKFuny9kyfLZ8n4mLXMLiRzjOOOSRNn7UFe555rAOx/046wpyOdCLetEd9zkfXd0IZ114juvmo3mM+GdaCB1wA1uc60/3d2pcCcNznOucy8HhKTfKpVtviEOZTvKYepyEjnF2ve7iCfbg2Q3j8ln/eyCsncP4t40MwnNQhvbvpskz7jlID0c8y+I59YD4+LsOcI3j3vWDe8vzc/xGceixPk30xB+9uPY8mv27enbzgT/3rqeEdx3nGfduk0bRmbghdEZAkEo0LkeB4yhc5E4KoUOe1KVD1WgXjn6IOvOTbPtkMLoP79BZI3TUqDMRSqc7r0ZhZaEROvtmTyl3LsyXT9+8t/zRX91TvvOwcN+i76UcOFgqRM7czjLQTh5tVm/+vAAZQqeIENpSeemZZCrtqjiDwvY/abCFCVf9QI8Y/Lo9QUee1g4ZjlJpm1iW9sOdEwvLpC7VQ3rM8SWgurdsXX24bF96uDzn3B3l5158XvkHf+/cctZOGTQKh7rbZpX/po8agCpDVGQQ09V8T2h5i77RIRJqQB5ETEEUNRKJHULKG/FWtLtElUcNjd6BrF1CG81Rr93ogRN1HecGr9tQ4u/fF2E5uOcgHnE4cL53B9A89YcGmYPGksYfR1jCIa/biFo+4ffu3ds+bv/BD36wfOYznykveclL2odCefcrcoh/jwZ4fFCUDy7ysTg+uvnyl7+87c6xPujaTcPp85zOwPnjTPp+bjzw9zOH5Rnxcce6JhxpouN6PPB3J0V8rpGBP/G4Ry8PhowJZ+tHvOM5ZHR1MtYe6BGPNJBFOMJ3ZRMePw7nkTjWj7CO0y1Pwtifs/NFGsRBltOxbPyQQRiHJwzXdk7DcTjjiOMzGDs+ejodMHQY/IjrZ+1B/gSBTYoA9Rjn30UInU1akFE7CASBILChEJBtOxZCZ21kRtbaMIwBoP6vEThr/ZezLWuTR+1gTKiOTdcMyvS6l4WD5cILf0T2/r0jEzpNF8m0PYodyTUHfSn3XZuT8OttRoe1LUoY4hEOO9TxuSdMN5z9bJtadvfsOPZDJuGxbRkbkH7XkbbjcI0jDPH9DD/uPa5wOPxHccjs5g9bHOfxQlcP6+041oH8WddRdCHuOAkd5JG39XlAX5zHLlwbA/LBYT+Xi5/jTzz7GwNj0g2HH2m7zCyXs6+djv0ISxzw5zDmyCUtwq1PmzDWA3k4wrHrCxndtNae9v/bTdvl7t8Lz7q6GGfrbd37p350zEkndMDTZcc1jjN4el7CmNrf+LtsuvXCcSwLecQnTNcP/0lzb3/728uePXvKi1/84jbnRL7Bqosf1xyP5cDKeDkOsizPePLM+BPez52G5TicwxAHP8oQP7c3+HHgh/P1erk8cxhkWB/8cZbvMJw57L8WavS/1gtJ1pX2ze0uz52mdXBeHYc6yzO3Md04ruOExZ+2bhwuhM4IKFJY43JUGhyFi9yJInQEE1va1z46qR+28rme0NG0qExo/TBpCPT6sfmtmoBfXSzLenXYI1t2lodEZHz9/kPlz296qHzl1ofKbXc/VPYdUuewde0VbEtVKz7YfaNwW7Szpe3QGSyqdYDQ0Q9LfzXVLWwJI9l6nZu00jGC08BDTZ1kSbIYme0QOiKolue2S28Zvxo9zOjVbltF6Jw6u7+cPvtwOf+MlfITF5xRfuaiJ5fnPPVUhV8uC9qFMzczV07VLqV5KQqNsyLABtptMzurRk1s0ZLkQ/fow0IKoLN2A7GTaed25Vv1hYEKGC83g6+W7XPCYXzVcwSQvh+1+3uhntOo4WjwOPBjOyPbsbn3b4IwxHUcntGY4uxnA9JyiOv4xO2G7/ojg3s3sFwTnh04kDkf+MAH2vdx9u/f3z7myFZ+PrB5xhlntI+ZnX/++e27OZdeemk555xzmj7IhMRAJrI4kNvtAAjDc/y6uuHn/BHHgxSufdCx2NglPA4ZXIMHadsQ55kNbV6JgMNYJhwDNOSgH3FJC+w5kxZ+yHWYFvlR/hAHWbjuGX8cskjX4XyNP37cOw9g4LLEH53Ql7A4y8QfP2NMWA7jY3+H78a1jpZh/bryCIM84jttZHTLgOeWRZhuWoS1Tvivl8PzuCCwmRBw/fZvI4TOZiq96BoEgkAQ2KgIrI2njqmdt9MwDjquW7M1u2MfomGWNsuUxy1Id3Ak+05POQjI67jbB3R03widZ/1oufve745M6NBvYt/adsRG5R7XtS3pV93H+twC6Y/tTO5tVxKXw/G6YY4VHz8O7F5c175HHw6ed21owuHniXbrS1oOj71OGPRyeK7xI7yv28Mx/EEu6SMX+ejBtfNjnHnWDUscj7HGqdM4CR30pXzIE7oeq66QD8LZda/x47nP5NP5Nhbtof74/ljx8eMAS3BEF8tFN3TEj8NyLJe6whsqLBcdjLfDIwO5OJ65rBzOssZxNpbIcn5cV/BzXsgfh/POM5zzsXY32t9JJ3S6dQEswZ4ypT64nEHQ/iaLKX+eE8d1gXCO4zbL9Ydn3bS4nzQ3TkIHrMDQeHZxXI8bZbDe+TfgcuOecuKwc/lx77JxWVom/oRDF8rezs8tj3t+q4S3rvgR1/fogiMMxzic+w7LIk23D6Th524/rA+6dPUgHvf4c22sjJFxcTqjnkPojIAgBTQu54rogp4oQkcgYeJBOGA685OTWSDDWceaGS0CQ8alHsyIuFgVobOVHSYiOwbz28ojq/PlgEiYBf0wHlgo5et3LpUvfPVb5Z7vHSgPHFgtB5YlbXZnmdl6in40Igb0zRm2vGwZsGNFH/tqO3TopGFBtTOibb1XI9Cs/lHKUDJbzrQLRHnZSsMismVVJNRK2w2k/Kjh2a5Xrp1z2pbyrKc9sbzoOWeXZz1lezl752rZUVjFr0FD242zpTxxRkTFsnCgcZSxP1AellcP6fVpa8ONZW35mRGhMycsZmkcaDykPgOWLcLrEKSPrmeVP61tWcueUthIDiOPuk5D2G20qff4d/3cGPq34Xvy4/DdZ3yTxpP+hOVwg8k1jvBc+3fGPQcNtDsW7mmAIW8eeuih8id/8ifl05/+dLn11lvb7p1TTz21XHTRReVlL3tZueSSS8rTn/70lp+WQCcNG7T4u9Nx/vBDDzqlri5+Tnierdfb+vtMJ0Mcy+HeRhMy/Aw51gHsCYfjObJwPOeZsbVe7rRaoMf4Qxxkkh4H107Lcqw7z7l2ePs7CetMuXCNQ77TIM/I5nwst/4bReQPOdYDOTjSddqE4bqLg58Rnvjoy0FY/HjOvcMh0+Hw6zqH7/rlOghsJgRcp6nj1OcQOpup9KJrEAgCQWCjIjDMeOxom+ronBx+JjEOZR4Ia6/5ddkejb9wml5q41EZbjLeCMm5FF65dsGznjMWQqelI3uQftN9qG1j28A8w571c+7t7Od7nnVlWX7XTsXP97aTuSe9rsOWxXXT5h5/Dmxw0semxja2LNJHHvfWhfCEdRr44/DzdfMY0x/Gbk7fuvieNPGzTuiOsx7j1GnchI71REcc+eT6seqKw7dIh/+QX47uM67BBn/L5N5pEBXcXNYO3w3TlUddRpYxZvzM4kLXA6fVLRuXi8MQH4dcXzePMfwBv/VjY+fb6XHv/Dlv6IGf9R6DKmUaCB23bcbNGHbLvIsti3ldX4w9WBPG9bAb1/WJ+jbuujKOMh6XjHESOl2duhiDJa77OwRTwnTDrceZew7iEQ45HFy73ejWg/XpE9a/ue4z+3G2Hk7LcXiG69YJwozDoT+yaDNw1DHS4Ww8rBf6cO38WgfLcDjurTt+Dod8y+R6FBdCZwT0ugUygpgW1QXqyjFJhI6xaT+1w1b2UTa1Aqw9UwOiit6etXD6oWg11qoICr54g8nJNPSKAq/qlWOanm2vNcNfsQ5vp18TdjiZZsD7mjRaOjqP0yGfA5KKK5rGw0OCw/6QLGoUdGzVj5qzpqgVfi2UTKYWr31XSCKajjQoAkKmRJOhAO1KzevavQLxqja7tgpNN43c0Xk9vg6X84khwG+c36R/l9zzW+WgQ+Hwb/fEJCd0EAgCQWDzIeD2zm1jCJ3NV4bROAgEgSAQBIwAgylGkUe7hYWF8swLntVesTzqN3SOlpy7SUNgnITOpGGT/ByNwKQTOkfnNnejIPB4ETqj6JS4GxOBEDojlEsInRHAO8Go5i7WnxFjvxMUOfbgHgwcSx8/49y9RgmHt//YFYvAIBAEgkAQCAJjQCCEzhhAjIggEASCQBDY0AhA6FxwwQUhdDZ0KW0M5ULobIxy2AxahNDZDKW0MXQMobMxymEzaBFCZ4RSCqEzAniJGgSCQBAIAkEgCGwqBELobKriirJBIAgEgSDQA4EQOj1Am9IoIXSmtOB7ZDuETg/QpjRKCJ0pLfge2Q6h0wM0RwmhYyRyDgJBIAgEgSAQBCYdgRA6k17CyV8QCAJBIAiE0EkdGBaBEDrDIpVwIXRSB4ZFIITOsEglXAidEepACJ0RwEvUIBAEgkAQCAJBYFMhEEJnUxVXlA0CQSAIBIEeCITQ6QHalEYJoTOlBd8j2yF0eoA2pVFC6ExpwffIdgidHqA5SggdI5FzEAgCQSAIBIEgMOkIhNCZ9BJO/oJAEAgCQSCETurAsAiE0BkWqYQLoZM6MCwCIXSGRSrhQuiMUAdC6IwAXqIGgSAQBIJAEAgCmwqBEDqbqriibBAIAkEgCPRAIIROD9CmNEoInSkt+B7ZDqHTA7QpjRJCZ0oLvke2Q+j0AM1RQugYiZyDQBAIAkEgCASBSUcghM6kl3DyFwSCQBAIAiF0UgeGRSCEzrBIJVwIndSBYREIoTMsUgkXQmeEOhBCZwTwEjUIBIEgEASCQBDYVAiE0NlUxRVlg0AQCAJBoAcCIXR6gDalUULoTGnB98h2CJ0eoE1plBA6U1rwPbIdQqcHaI4SQsdI5BwEgkAQCAJBIAhMOgIhdCa9hJO/IBAEgkAQCKGTOjAsAiF0hkUq4ULopA4Mi0AInWGRSrgQOiPUgRA6I4CXqEEgCASBIBAEgsCmQiCEzqYqrigbBIJAEAgCPRAIodMDtCmNEkJnSgu+R7ZD6PQAbUqjhNCZ0oLvke0QOj1Ac5QQOkYi5yAQBIJAEAgCQWDSEQihM+klnPwFgSAQBIJACJ3UgWERCKEzLFIJF0IndWBYBELoDItUwoXQGaEOhNAZAbxEDQJBIAgEgSAQBDYVAiF0NlVxRdkgEASCQBDogUAInR6gTWmUEDpTWvA9sh1CpwdoUxolhM6UFnyPbIfQ6QGao4TQMRI5B4EgEASCQBAIApOOQAidSS/h5C8IBIEgEARC6KQODItACJ1hkUq4EDqpA8MiEEJnWKQSLoTOCHUghM4I4CVqEAgCQSAIBIEgsKkQCKGzqYorygaBIBAEgkAPBELo9ABtSqOE0JnSgu+R7RA6PUCb0ighdKa04HtkO4ROD9AcJYSOkcg5CASBIBAEgkAQmHQEQuhMegknf0EgCASBIBBCJ3VgWARC6AyLVMKF0EkdGBaBEDrDIpVwIXRGqAMhdEYAL1GDQBAIAkEgCASBTYVACJ1NVVxRNggEgSAQBHogEEKnB2hTGiWEzpQWfI9sh9DpAdqURgmhM6UF3yPbIXR6gOYoIXSMRM5BIAgEgSAQBILApCMQQmfSSzj5CwJBIAgEgRA6qQPDIhBCZ1ikEi6ETurAsAiE0BkWqYQLoTNCHQihMwJ4iRoEgkAQCAJBIAhsKgRC6Gyq4oqyQSAIBIEg0AOBEDo9QJvSKCF0prTge2Q7hE4P0KY0SgidKS34HtkOodMDNEcJoWMkcg4CQSAIBIEgEAQmHYEQOpNewslfEAgCQSAIhNBJHRgWgRA6wyKVcCF0UgeGRSCEzrBIJVwInRHqQAidEcBL1CAQBIJAEAgCQWBTIRBCZ1MVV5QNAkEgCASBHgiE0OkB2pRGCaEzpQXfI9shdHqANqVRQuhMacH3yHYInR6gOUoIHSORcxAIAkEgCASBIDDpCITQmfQSTv6CQBAIAkEghE7qwLAIhNAZFqmEC6GTOjAsAiF0hkUq4ULojFAHQuiMAF6iBoEgEASCQBAIApsKgRA6m6q4omwQCAJBIAj0QCCETg/QpjRKCJ0pLfge2Q6h0wO0KY0SQmdKC75HtkPo9ADNUULoGImcg0AQCAJBIAgEgUlHIITOpJdw8hcEgkAQCAIhdFIHhkUghM6wSCVcCJ3UgWERCKEzLFIJF0JnhDoQQmcE8BI1CASBIBAEgkAQ2FQIhNDZVMUVZYNAEAgCQaAHAiF0eoA2pVFC6ExpwffIdgidHqBNaZQQOlNa8D2yHUKnB2iOEkLHSOQcBIJAEAgCQSAITDoCIXQmvYSTvyAQBIJAEAihkzowLAIhdIZFKuFC6KQODItACJ1hkUq4EDoj1IEQOiOAl6hBIAgEgSAQBILApkIghM6mKq4oGwSCQBAIAj0QCKHTA7QpjRJCZ0oLvke2Q+j0AG1Ko4TQmdKC75HtEDo9QHOUEDpGIucgEASCQBAIAkFg0hEIoTPpJZz8BYEgEASCQAid1IFhEQihMyxSCRdCJ3VgWARC6AyLVMKF0BmhDoTQGQG8RA0CQSAIBIEgEAQ2FQIhdDZVcUXZIBAEgkAQ6IFACJ0eoE1plBA6U1rwPbIdQqcHaFMaJYTOlBZ8j2yH0OkBmqOE0DESOQeBIBAEgkAQCAKTjkAInUkv4eQvCASBIBAEQuikDgyLQAidYZFKuBA6qQPDIhBCZ1ikEi6Ezgh1IITOCOAlahAIAkEgCASBILCpEAihs6mKK8oGgSAQBIJADwRC6PQAbUqjhNCZ0oLvke0QOj1Am9IoIXSmtOB7ZDuETg/QHCWEjpHIOQgEgSAQBIJAEJh0BELoTHoJJ39BIAgEgSAQQid1YFgEQugMi1TChdBJHRgWgRA6wyKVcCF0RqgDIXRGAC9Rg0AQCAJBIAgEgU2FQAidTVVcUTYIBIEgEAR6IBBCpwdoUxolhM6UFnyPbIfQ6QHalEYJoTOlBd8j2yF0eoDmKCF0jETOQSAIBIEgEASCwKQjEEJn0ks4+QsCQSAIBIEQOqkDwyIQQmdYpBIuhE7qwLAIhNAZFqmEC6EzQh0IoTMCeIkaBIJAEAgCQSAIbCoEQuhsquKKskEgCASBINADgRA6PUCb0ighdKa04HtkO4ROD9CmNEoInSkt+B7ZDqHTAzRHCaFjJHIOAkEgCASBIBAEJh2BEDqTXsLJXxAIAkEgCITQSR0YFoEQOsMilXAhdFIHhkUghM6wSCVcCJ0R6sDJIHTe+MY3lt/+7d8u40xrhCwnahAIAkEgCASBIDClCHQJHeySK6+8svzWb/1W+fEf//Hy+c9/PrbKlNaLZDsIBIEgMEkIdAmdD3zgA+XVr371kf6NfnB1dbVll2v3i5OU/+RleAS++tWvlpe+9KWtflx//fXlRS960ZG6gpTBYNCEzczMDC80IScSgauvvrpcdtll5fTTTy833nhjOeOMM1JXJrKkR8/Uu9/97gKp84IXvKDQrtDPdOeDaVfS/4yO8yRIeN3rXlc+9rGPlV/4hV8oH/7wh1u9oH7Q53Cm3oyjrozL1tkihepGAX6cqgAQgGMgzs3NlVe84hXlM5/5TDnllFPaQZ7Hmd5GwTB6BIEgEASCQBAIApsHgfn5+bKystJskoMHD5b9+/eX5z3veeVzn/tcOXToUOF5Ji42T3lG0yAQBIJAEDgaAQidZz7zmeXee+9tk687duw4OkDugsBhBJaXl8sDDzzQ7s4888yydevWYBMEjonA4uJi2bt3b7ORzzrrrNjKx0QpniDA2Grfvn1tTPWkJz0poASB4yJAPcFmgdC56qqr2hgdbmF2dvao6+MKGPJBCJ1HAQoSBzKHSRDcgQMHyqte9apy3XXXFYwEJkZ4xsRJXBAIAkEgCASBIBAEflAIbN++vS0+wW7BuMNGef7zn1+uvfbactppp2WA+oMqmKQbBIJAEAgCY0GgS+iMRWCEBIEgEASCQBAIAkFgzAgwDt+5c2f5+Z//+fbmDMbp+JljgNjhflQXQudREGTnDRMjHDjub7jhhnLfffcd2SKFPyti44JAEAgCQSAIBIEgcLIRMHnDQhN2EmMc2n5hVeqll17a/Hg2LqPvZOcx6QWBIBAEgkAQYMzN65EgduKCQBAIAkEgCASBILAREYCwwe3atau85CUvaTtzIHO6JA7j8lHH5qPGN3YT+co1JkQ8KUJGPUlyJNNjKADLyjkIBIEgEASCQBAIAn0QwJhbWlr6O4QONgzPOGNYjsvo66Nj4gSBIBAEgkAQGBUB+rO4IBAEgkAQCAJBIAhsVAQYc7MIhc0hXlTJNZwCz7xppEvw9MnLuMb2E0voGGiDzoSISR78XCB9wE+cIBAEgkAQCAJBIAiMgoBtEq8E8mQXNgorgfh+Dlu+44JAEAgCQSAIBIEgEASCQBAIAkEgCASBxw8BxuCMxT0ehzfggOTpjtlD6ByjDDyZcYxHJ+wFocOqV4AGeANOwZAOBeUCOWHhiRAEgkAQCAJBIAgEgREQwBbBTtm2bVuTgqGIjcJqIGwUPvb6hCc8YYQUEjUIBIEgEASCwMZAYJzj/I2Ro2gRBIJAEAgCQSAITBIC5hAYj3uTCFwCCy3n5+eP4hVGyTdj/nG4idyhY2BM2phdY7LEBA+FQyHFBYEgEASCQBAIAkHgZCPA5Ba2CItLMBL5lg6GogmeTH6d7BJJekEgCASBIPB4ITCuyYvHS7/IDQJBIAgEgSAQBKYbATgEj8E5M063/cK43QswGbOP4ixzFBnEnUhCxwUASEySbN26teHEffeZr0cFMfGDQBAIAkEgCASBIHCiCGCXrLdNkGH7hFVCGIyEiQsCQSAIBIEgsFkRcL+2WfWP3kEgCASBIBAEgsB0IOCxNyQOJA9nxuQQPOOwZyx/VDQnktABFEBmNw7AH+var2AbFcDEDwJBIAgEgSAQBIJAXwQgbdgxjF3CNXbL9u3bx2Is9tUp8YJAEAgCQSAIjBOBcU1ejFOnyAoCQSAIBIEgEASCgBGAO+AwkcPmEL9uDTuGZ7hR+YRx2UQTS+i4QDgDehf8cYHXTSPXQSAIBIEgEASCQBA4UQQwGG0UehFKvvF3oigmfBAIAkEgCASBIBAEgkAQCAJBIAgEgdEQMKnDmLw7VjehMyqnMGp8524qCB1nNucgEASCQBAIAkEgCASBIBAEgkAQCAJBIAgEgSAQBIJAEAgCQSAInEwEQuicTLSTVhAIAkEgCASBIBAEgkAQCAJBIAgEgSAQBIJAEAgCQSAIBIEgEAR6IBBCpwdoiRIEgkAQCAJBIAgEgSAQBIJAEAgCQSAIBIEgEASCQBAIAkEgCASBk4lACJ2TiXbSCgJBIAgEgSAQBIJAEAgCQSAIBIEgEASCQBAIAkEgCASBIBAEgkAPBELo9AAtUYJAEAgCQSAIBIEgEASCQBAIAkEgCASBIBAEgkAQCAJBIAgEgSBwMhEIoXMy0U5aQSAIBIEgEASCQBAIAkEgCASBIBAEgkAQCAJBIAgEgSAQBIJAEOiBQAidHqAlShAIAkEgCASBIBAEgkAQCAJBIAgEgSAQBIJAEAgCQSAIBIEgEAROJgIhdE4m2kkrCASBIBAEgkAQCAJBIAgEgSAQBIJAEAgCQSAIBIEgEASCQBAIAj0QCKHTA7RECQJBIAgEgSAQBIJAEAgCJxuBWmvhwIDn8DV6cI1b79/143owGByJzz3OcSx/ZmbmSDiu7e9wnOPGiwAYr66ulrm5uSaYa3AG/xNxlG83jusFMsZdbsheL9P5ID3yYn26eliX5eXlMj8/z+0RRzjizM7OHvHrXjhNn/3M8tfr4+c5B4EgEASCQBAIAkEgCASBSUFgXDbvFhnRa6PIDYDMBlJlA6ARFYJAEAgCQSAIBIEgEAQmAQFsXBMyTNoz6c8Zg75r/3LNhDjnrj/hHL87CHA4y7Fs7rm2DD/vxp0EXDdCHigXCA5IEMpuZWXlKEJnGMwJc/DgwbJ169ZWbsh0eZNHytH1ZZg8P1qayEL2+vqBH7rjIGschjOOeMgl3tLSUtm2bdvfqV/EX0/0OC5n4loe98jr1lH84oJAEAgCQSAIBIEgEASCwKQi8Gh2+onk+f8HlVXdGnzbsUMAAAAASUVORK5CYII=;" vertex="1" parent="1">
          <mxGeometry x="-60.78" y="250" width="320.78" height="40" as="geometry" />
        </mxCell>
        <mxCell id="wZr598679HZc5HNXFRnV-148" value="Optimization upload:&lt;br&gt;* Split videos while uplaoding * upload to geo close CDN" style="text;html=1;align=center;verticalAlign=middle;whiteSpace=wrap;rounded=0;" vertex="1" parent="1">
          <mxGeometry y="180" width="90" height="80" as="geometry" />
        </mxCell>
        <mxCell id="wZr598679HZc5HNXFRnV-149" value="parallel processing for each GOP uploaded from original Video using Queue processing" style="shape=process;whiteSpace=wrap;html=1;backgroundOutline=1;" vertex="1" parent="1">
          <mxGeometry x="-9" y="560" width="150" height="80" as="geometry" />
        </mxCell>
        <mxCell id="wZr598679HZc5HNXFRnV-151" value="" style="edgeStyle=orthogonalEdgeStyle;rounded=0;orthogonalLoop=1;jettySize=auto;html=1;" edge="1" parent="1" source="wZr598679HZc5HNXFRnV-74" target="wZr598679HZc5HNXFRnV-150">
          <mxGeometry relative="1" as="geometry">
            <mxPoint x="-80" y="790" as="sourcePoint" />
            <mxPoint x="-80" y="550" as="targetPoint" />
          </mxGeometry>
        </mxCell>
        <mxCell id="wZr598679HZc5HNXFRnV-152" value="3a.1" style="edgeLabel;html=1;align=center;verticalAlign=middle;resizable=0;points=[];" vertex="1" connectable="0" parent="wZr598679HZc5HNXFRnV-151">
          <mxGeometry x="-0.15" y="1" relative="1" as="geometry">
            <mxPoint as="offset" />
          </mxGeometry>
        </mxCell>
        <mxCell id="wZr598679HZc5HNXFRnV-150" value="parallel processing for each GOP uploaded from original Video using Queue processing" style="shape=process;whiteSpace=wrap;html=1;backgroundOutline=1;" vertex="1" parent="1">
          <mxGeometry x="-155" y="620" width="150" height="80" as="geometry" />
        </mxCell>
      </root>
    </mxGraphModel>
  </diagram>
</mxfile>
